SplineFontDB: 3.0
FontName: Fiati-Regular
FullName: Fiati Regular
FamilyName: Fiati
Weight: Regular

StartChar: uniE000
Encoding: 1 57344 0
GlifName: uniE_000
Width: 0
VWidth: 0
GlyphClass: 2
LayerCount: 2
Fore
SplineSet
191 777 m 257
 164 777 141 799 141 827 c 256
 141 854 164 876 191 876 c 256
 218 876 241 854 241 827 c 256
 241 799 218 777 191 777 c 257
191 870 m 257
 167 870 147 851 147 827 c 256
 147 803 167 783 191 783 c 256
 215 783 235 803 235 827 c 256
 235 851 215 870 191 870 c 257
191 654 m 257
 164 654 141 676 141 704 c 256
 141 731 164 753 191 753 c 256
 218 753 241 731 241 704 c 256
 241 676 218 654 191 654 c 257
191 747 m 257
 167 747 147 728 147 704 c 256
 147 680 167 660 191 660 c 256
 215 660 235 680 235 704 c 256
 235 728 215 747 191 747 c 257
191 398 m 257
 164 398 141 420 141 447 c 256
 141 475 164 497 191 497 c 256
 218 497 241 475 241 447 c 256
 241 420 218 398 191 398 c 257
191 491 m 257
 167 491 147 471 147 447 c 256
 147 423 167 404 191 404 c 256
 215 404 235 423 235 447 c 256
 235 471 215 491 191 491 c 257
191 276 m 257
 164 276 141 298 141 326 c 256
 141 353 164 375 191 375 c 256
 218 375 241 353 241 326 c 256
 241 298 218 276 191 276 c 257
191 369 m 257
 167 369 147 350 147 326 c 256
 147 302 167 282 191 282 c 256
 215 282 235 302 235 326 c 256
 235 350 215 369 191 369 c 257
191 155 m 257
 164 155 141 177 141 204 c 256
 141 232 164 254 191 254 c 256
 218 254 241 232 241 204 c 256
 241 177 218 155 191 155 c 257
191 248 m 257
 167 248 147 228 147 204 c 256
 147 180 167 161 191 161 c 256
 215 161 235 180 235 204 c 256
 235 228 215 248 191 248 c 257
191 897 m 257
 164 897 141 919 141 947 c 256
 141 974 164 996 191 996 c 256
 218 996 241 974 241 947 c 256
 241 919 218 897 191 897 c 257
191 990 m 257
 167 990 147 971 147 947 c 256
 147 923 167 903 191 903 c 256
 215 903 235 923 235 947 c 256
 235 971 215 990 191 990 c 257
264 608 m 257
 123 608 l 258
 121 608 120 610 120 611 c 256
 120 613 121 614 123 614 c 258
 264 614 l 258
 266 614 267 613 267 611 c 256
 267 610 266 608 264 608 c 257
122 370 m 257
 110 370 104 379 104 388 c 256
 104 397 110 406 121 406 c 256
 135 406 158 396 158 388 c 256
 158 380 137 370 122 370 c 257
121 400 m 257
 113 400 110 394 110 388 c 256
 110 380 116 376 122 376 c 256
 136 376 150 385 152 388 c 257
 150 391 134 400 121 400 c 257
122 248 m 257
 110 248 104 257 104 266 c 256
 104 274 110 283 121 283 c 256
 135 283 158 274 158 266 c 256
 158 258 137 248 122 248 c 257
121 277 m 257
 113 277 110 271 110 266 c 256
 110 258 116 254 122 254 c 256
 136 254 150 263 152 266 c 257
 150 269 134 277 121 277 c 257
257 626 m 257
 248 626 192 627 192 627 c 257
 190 627 189 629 189 630 c 257
 189 644 l 257
 190 646 191 647 192 647 c 256
 227 647 234 654 243 663 c 257
 244 663 245 664 246 665 c 256
 249 668 252 674 255 679 c 256
 260 689 266 701 279 701 c 256
 297 701 303 686 303 672 c 256
 303 640 270 626 257 626 c 257
195 633 m 257
 207 633 249 632 257 632 c 256
 267 632 297 644 297 672 c 256
 297 692 287 695 281 695 c 256
 269 695 264 685 260 677 c 257
 260 676 254 665 250 661 c 258
 247 658 l 258
 238 649 229 641 195 641 c 257
 195 633 l 257
117 483 m 257
 91 483 80 507 80 516 c 256
 80 523 81 561 81 563 c 256
 81 565 83 566 84 566 c 257
 95 565 l 257
 96 565 98 564 98 562 c 256
 98 539 103 534 110 527 c 257
 114 524 118 522 123 519 c 257
 131 515 141 508 141 501 c 256
 141 496 140 492 138 490 c 256
 134 485 127 483 117 483 c 257
87 560 m 257
 87 550 86 522 86 516 c 256
 86 511 94 489 117 489 c 256
 125 489 130 491 133 494 c 256
 135 496 135 498 135 499 c 256
 135 508 125 512 120 514 c 256
 114 517 112 518 108 521 c 256
 97 528 92 543 92 559 c 257
 87 560 l 257
79 740 m 257
 74 741 69 745 65 747 c 256
 64 748 63 749 63 750 c 257
 63 857 l 258
 63 868 50 874 36 880 c 256
 21 887 13 891 13 908 c 258
 13 974 l 258
 13 994 22 998 30 998 c 256
 36 998 43 996 47 994 c 256
 49 993 50 993 51 993 c 256
 62 989 82 981 82 954 c 258
 82 743 l 257
 82 742 81 741 79 740 c 257
69 752 m 257
 76 748 l 257
 76 954 l 258
 76 977 60 983 49 987 c 257
 48 987 47 988 46 988 c 256
 41 990 35 992 30 992 c 256
 27 992 19 992 19 974 c 258
 19 911 l 258
 19 895 25 891 38 886 c 257
 39 886 40 885 41 885 c 256
 54 879 69 872 69 857 c 258
 69 752 l 257
51 755 m 257
 38 760 26 768 14 774 c 256
 13 775 12 776 12 777 c 257
 12 856 l 258
 12 868 19 870 22 870 c 256
 26 870 29 868 32 867 c 258
 46 859 l 257
 54 853 54 845 54 837 c 258
 54 758 l 257
 54 757 53 756 51 755 c 257
18 779 m 257
 48 763 l 257
 48 837 l 258
 48 846 47 852 43 854 c 258
 29 861 l 258
 27 862 25 864 22 864 c 256
 21 864 18 864 18 856 c 258
 18 779 l 257
222 103 m 257
 222 103 222 103 116 103 c 256
 101 103 101 118 101 123 c 258
 101 149 l 258
 101 152 102 154 103 155 c 256
 107 159 111 159 115 159 c 258
 140 159 l 258
 148 159 158 159 167 143 c 257
 167 143 167 143 172 132 c 256
 176 125 180 123 186 123 c 258
 222 123 l 258
 224 123 225 121 225 120 c 257
 225 107 l 258
 225 104 224 103 222 103 c 257
115 153 m 258
 112 153 109 153 108 151 c 256
 107 150 107 149 107 147 c 258
 107 123 l 258
 107 112 110 109 116 109 c 258
 219 109 l 257
 219 117 l 257
 186 117 l 258
 177 117 171 121 167 130 c 258
 162 140 l 258
 155 153 147 153 140 153 c 258
 115 153 l 258
EndSplineSet
EndChar

StartChar: uniE001
Encoding: 2 57345 1
GlifName: uniE_001
Width: 0
VWidth: 0
GlyphClass: 2
LayerCount: 2
Fore
SplineSet
180 42 m 256
 171 42 166 47 166 54 c 258
 166 81 l 258
 166 87 171 93 178 93 c 256
 187 93 192 87 192 81 c 258
 192 54 l 258
 192 47 187 42 180 42 c 256
186 81 m 258
 186 84 183 87 178 87 c 256
 175 87 172 84 172 81 c 258
 172 54 l 258
 172 51 175 48 178 48 c 256
 183 48 186 51 186 54 c 258
 186 81 l 258
156 13 m 256
 142 19 130 24 118 30 c 256
 104 38 101 54 101 55 c 258
 101 74 l 258
 101 91 111 93 115 93 c 258
 141 93 l 258
 152 93 158 85 158 72 c 258
 158 16 l 258
 158 14 157 13 156 13 c 256
107 74 m 258
 107 55 l 258
 107 54 110 41 121 36 c 258
 153 20 l 257
 153 72 l 257
 153 85 146 87 141 87 c 258
 115 87 l 258
 109 87 107 82 107 74 c 258
222 0 m 258
 203 0 l 258
 197 0 190 1 185 8 c 256
 184 11 183 14 183 18 c 258
 183 22 l 258
 185 27 188 31 193 33 c 256
 194 34 196 34 198 34 c 256
 203 34 208 32 212 28 c 256
 215 25 217 21 218 18 c 258
 222 18 l 258
 224 18 225 16 225 15 c 258
 225 3 l 258
 225 1 224 0 222 0 c 258
198 28 m 256
 192 26 190 23 189 20 c 256
 189 16 190 13 191 11 c 256
 193 7 197 6 203 6 c 258
 219 6 l 257
 219 12 l 257
 215 12 l 258
 214 12 212 13 212 15 c 256
 212 21 204 28 198 28 c 256
EndSplineSet
EndChar

StartChar: uniE002
Encoding: 3 57346 2
GlifName: uniE_002
Width: 0
VWidth: 0
GlyphClass: 2
LayerCount: 2
Fore
SplineSet
213 42 m 257
 204 42 199 47 199 54 c 258
 199 81 l 258
 199 87 204 93 211 93 c 256
 219 93 225 87 225 81 c 258
 225 54 l 258
 225 47 219 42 213 42 c 257
211 87 m 257
 207 87 205 84 205 81 c 258
 205 54 l 258
 205 51 207 48 211 48 c 256
 216 48 219 51 219 54 c 258
 219 81 l 258
 219 84 216 87 211 87 c 257
EndSplineSet
EndChar

StartChar: uniE003
Encoding: 4 57347 3
GlifName: uniE_003
Width: 0
VWidth: 0
GlyphClass: 2
LayerCount: 2
Fore
SplineSet
170 515 m 256
 144 515 133 539 133 548 c 256
 133 555 134 593 134 595 c 256
 134 597 136 598 137 598 c 258
 148 597 l 258
 149 597 151 596 151 594 c 256
 151 571 156 566 163 559 c 256
 166 556 169 555 176 551 c 256
 183 547 194 540 194 533 c 256
 194 528 193 524 191 522 c 256
 187 517 180 515 170 515 c 256
145 591 m 257
 140 592 l 257
 140 582 139 554 139 548 c 256
 139 543 147 521 170 521 c 256
 178 521 183 523 186 526 c 256
 188 528 188 530 188 531 c 256
 188 540 177 544 173 546 c 256
 170 548 166 550 162 553 c 256
 153 559 145 575 145 591 c 257
EndSplineSet
EndChar

StartChar: uniE004
Encoding: 5 57348 4
GlifName: uniE_004
Width: 0
VWidth: 0
GlyphClass: 2
LayerCount: 2
Fore
SplineSet
191 802 m 256
 177 802 166 813 166 827 c 256
 166 841 177 852 191 852 c 256
 205 852 216 841 216 827 c 256
 216 813 205 802 191 802 c 256
191 848 m 256
 181 848 170 837 170 827 c 256
 170 817 181 806 191 806 c 256
 201 806 212 817 212 827 c 256
 212 837 201 848 191 848 c 256
191 679 m 256
 177 679 166 690 166 704 c 256
 166 718 177 729 191 729 c 256
 205 729 216 718 216 704 c 256
 216 690 205 679 191 679 c 256
191 725 m 256
 181 725 170 714 170 704 c 256
 170 694 181 683 191 683 c 256
 201 683 212 694 212 704 c 256
 212 714 201 725 191 725 c 256
191 422 m 256
 177 422 166 433 166 447 c 256
 166 461 177 472 191 472 c 256
 205 472 216 461 216 447 c 256
 216 433 205 422 191 422 c 256
191 468 m 256
 181 468 170 457 170 447 c 256
 170 437 181 426 191 426 c 256
 201 426 212 437 212 447 c 256
 212 457 201 468 191 468 c 256
191 301 m 256
 177 301 166 312 166 326 c 256
 166 340 177 351 191 351 c 256
 205 351 216 340 216 326 c 256
 216 312 205 301 191 301 c 256
191 347 m 256
 181 347 170 336 170 326 c 256
 170 316 181 305 191 305 c 256
 201 305 212 316 212 326 c 256
 212 336 201 347 191 347 c 256
191 179 m 256
 177 179 166 190 166 204 c 256
 166 218 177 229 191 229 c 256
 205 229 216 218 216 204 c 256
 216 190 205 179 191 179 c 256
191 225 m 256
 181 225 170 214 170 204 c 256
 170 194 181 183 191 183 c 256
 201 183 212 194 212 204 c 256
 212 214 201 225 191 225 c 256
EndSplineSet
EndChar

StartChar: uniE005
Encoding: 6 57349 5
GlifName: uniE_005
Width: 0
VWidth: 0
GlyphClass: 2
LayerCount: 2
Fore
SplineSet
110 848 m 257
 98 848 92 857 92 866 c 256
 92 875 98 884 109 884 c 256
 123 884 146 874 146 866 c 256
 146 858 125 848 110 848 c 257
109 878 m 257
 101 878 98 872 98 866 c 256
 98 858 104 854 110 854 c 256
 124 854 138 863 140 866 c 257
 138 869 122 878 109 878 c 257
110 889 m 257
 98 889 92 898 92 907 c 256
 92 916 98 925 109 925 c 256
 123 925 146 915 146 907 c 256
 146 899 125 889 110 889 c 257
109 919 m 257
 101 919 98 913 98 907 c 256
 98 899 104 895 110 895 c 256
 124 895 138 904 140 907 c 257
 138 910 122 919 109 919 c 257
EndSplineSet
EndChar

StartChar: uniE006
Encoding: 7 57350 6
GlifName: uniE_006
Width: 0
VWidth: 0
GlyphClass: 2
LayerCount: 2
Fore
SplineSet
79 740 m 257
 74 741 69 745 65 747 c 256
 64 748 63 749 63 750 c 257
 63 857 l 258
 63 868 50 874 36 880 c 256
 21 887 13 891 13 908 c 258
 13 974 l 258
 13 994 22 998 30 998 c 256
 36 998 43 996 47 994 c 256
 49 993 50 993 51 993 c 256
 62 989 82 981 82 954 c 258
 82 743 l 257
 82 742 81 741 79 740 c 257
EndSplineSet
EndChar

StartChar: uniE007
Encoding: 8 57351 7
GlifName: uniE_007
Width: 0
VWidth: 0
GlyphClass: 2
LayerCount: 2
Fore
SplineSet
51 758 m 257
 15 777 l 257
 15 777 15 843 15 856 c 256
 15 864 18 867 22 867 c 256
 24 867 27 866 30 864 c 257
 45 857 l 258
 50 853 51 846 51 837 c 256
 51 828 51 758 51 758 c 257
EndSplineSet
EndChar

StartChar: uniE008
Encoding: 9 57352 8
GlifName: uniE_008
Width: 0
VWidth: 0
GlyphClass: 2
LayerCount: 2
Fore
SplineSet
238 947 m 257
 238 921 217 900 191 900 c 256
 165 900 144 921 144 947 c 256
 144 973 165 993 191 993 c 256
 217 993 238 973 238 947 c 257
EndSplineSet
EndChar

StartChar: uniE009
Encoding: 10 57353 9
GlifName: uniE_009
Width: 0
VWidth: 0
GlyphClass: 2
LayerCount: 2
Fore
SplineSet
238 827 m 257
 238 801 217 780 191 780 c 256
 165 780 144 801 144 827 c 256
 144 853 165 873 191 873 c 256
 217 873 238 853 238 827 c 257
EndSplineSet
EndChar

StartChar: uniE00A
Encoding: 11 57354 10
GlifName: uniE_00A_
Width: 0
VWidth: 0
GlyphClass: 2
LayerCount: 2
Fore
SplineSet
238 704 m 257
 238 678 217 657 191 657 c 256
 165 657 144 678 144 704 c 256
 144 730 165 750 191 750 c 256
 217 750 238 730 238 704 c 257
EndSplineSet
EndChar

StartChar: uniE00B
Encoding: 12 57355 11
GlifName: uniE_00B_
Width: 0
VWidth: 0
GlyphClass: 2
LayerCount: 2
Fore
SplineSet
257 626 m 257
 248 626 192 627 192 627 c 257
 190 627 189 629 189 630 c 257
 189 644 l 257
 190 646 191 647 192 647 c 256
 227 647 234 654 243 663 c 257
 244 663 245 664 246 665 c 256
 249 668 252 674 255 679 c 256
 260 689 266 701 279 701 c 256
 297 701 303 686 303 672 c 256
 303 640 270 626 257 626 c 257
EndSplineSet
EndChar

StartChar: uniE00C
Encoding: 13 57356 12
GlifName: uniE_00C_
Width: 0
VWidth: 0
GlyphClass: 2
LayerCount: 2
Fore
SplineSet
170 515 m 256
 144 515 133 539 133 548 c 256
 133 555 134 593 134 595 c 256
 134 597 136 598 137 598 c 258
 148 597 l 258
 149 597 151 596 151 594 c 256
 151 571 155 565 163 559 c 256
 167 556 171 554 176 551 c 256
 183 547 194 540 194 533 c 256
 194 528 193 524 191 522 c 256
 187 517 180 515 170 515 c 256
EndSplineSet
EndChar

StartChar: uniE00D
Encoding: 14 57357 13
GlifName: uniE_00D_
Width: 0
VWidth: 0
GlyphClass: 2
LayerCount: 2
Fore
SplineSet
117 483 m 257
 91 483 80 507 80 516 c 256
 80 523 81 561 81 563 c 256
 81 565 83 566 84 566 c 257
 95 565 l 257
 96 565 98 564 98 562 c 256
 98 539 103 534 110 527 c 257
 114 524 118 522 123 519 c 257
 131 515 141 508 141 501 c 256
 141 496 140 492 138 490 c 256
 134 485 127 483 117 483 c 257
EndSplineSet
EndChar

StartChar: uniE00E
Encoding: 15 57358 14
GlifName: uniE_00E_
Width: 0
VWidth: 0
GlyphClass: 2
LayerCount: 2
Fore
SplineSet
238 447 m 257
 238 422 217 401 191 401 c 256
 165 401 144 422 144 447 c 256
 144 473 165 494 191 494 c 256
 217 494 238 473 238 447 c 257
EndSplineSet
EndChar

StartChar: uniE00F
Encoding: 16 57359 15
GlifName: uniE_00F_
Width: 0
VWidth: 0
GlyphClass: 2
LayerCount: 2
Fore
SplineSet
122 373 m 257
 112 373 107 380 107 388 c 256
 107 395 112 403 121 403 c 256
 136 403 155 393 155 388 c 256
 155 384 137 373 122 373 c 257
EndSplineSet
EndChar

StartChar: uniE010
Encoding: 17 57360 16
GlifName: uniE_010
Width: 0
VWidth: 0
GlyphClass: 2
LayerCount: 2
Fore
SplineSet
238 326 m 257
 238 300 217 279 191 279 c 256
 165 279 144 300 144 326 c 256
 144 352 165 372 191 372 c 256
 217 372 238 352 238 326 c 257
EndSplineSet
EndChar

StartChar: uniE011
Encoding: 18 57361 17
GlifName: uniE_011
Width: 0
VWidth: 0
GlyphClass: 2
LayerCount: 2
Fore
SplineSet
122 251 m 257
 112 251 107 259 107 266 c 256
 107 273 112 280 121 280 c 256
 136 280 155 271 155 266 c 256
 155 261 137 251 122 251 c 257
EndSplineSet
EndChar

StartChar: uniE012
Encoding: 19 57362 18
GlifName: uniE_012
Width: 0
VWidth: 0
GlyphClass: 2
LayerCount: 2
Fore
SplineSet
238 204 m 257
 238 179 217 158 191 158 c 256
 165 158 144 179 144 204 c 256
 144 230 165 251 191 251 c 256
 217 251 238 230 238 204 c 257
EndSplineSet
EndChar

StartChar: uniE013
Encoding: 20 57363 19
GlifName: uniE_013
Width: 0
VWidth: 0
GlyphClass: 2
LayerCount: 2
Fore
SplineSet
222 106 m 257
 222 106 127 106 116 106 c 256
 106 106 104 114 104 123 c 258
 104 145 l 257
 104 156 110 156 115 156 c 257
 140 156 l 257
 148 156 156 156 164 142 c 258
 170 131 l 258
 174 123 178 120 186 120 c 256
 194 120 222 120 222 120 c 257
 222 106 l 257
EndSplineSet
EndChar

StartChar: uniE014
Encoding: 21 57364 20
GlifName: uniE_014
Width: 0
VWidth: 0
GlyphClass: 2
LayerCount: 2
Fore
SplineSet
156 72 m 257
 156 16 l 257
 156 16 133 26 120 33 c 256
 106 40 104 55 104 55 c 257
 104 55 104 62 104 74 c 256
 104 85 108 90 115 90 c 257
 142 90 l 257
 152 90 156 83 156 72 c 257
EndSplineSet
EndChar

StartChar: uniE015
Encoding: 22 57365 21
GlifName: uniE_015
Width: 0
VWidth: 0
GlyphClass: 2
LayerCount: 2
Fore
SplineSet
189 54 m 257
 189 49 185 45 180 45 c 257
 173 45 169 49 169 54 c 257
 169 81 l 257
 169 86 173 90 178 90 c 257
 185 90 189 86 189 81 c 257
 189 54 l 257
EndSplineSet
EndChar

StartChar: uniE016
Encoding: 23 57366 22
GlifName: uniE_016
Width: 0
VWidth: 0
GlyphClass: 2
LayerCount: 2
Fore
SplineSet
222 54 m 257
 222 49 218 45 213 45 c 257
 206 45 202 49 202 54 c 257
 202 81 l 257
 202 86 206 90 211 90 c 257
 218 90 222 86 222 81 c 257
 222 54 l 257
EndSplineSet
EndChar

StartChar: uniE017
Encoding: 24 57367 23
GlifName: uniE_017
Width: 0
VWidth: 0
GlyphClass: 2
LayerCount: 2
Fore
SplineSet
222 3 m 257
 222 3 208 3 203 3 c 256
 197 3 191 4 188 9 c 256
 187 12 186 14 186 17 c 256
 186 22 189 27 194 30 c 256
 195 31 197 31 199 31 c 256
 207 31 215 22 215 15 c 257
 222 15 l 257
 222 3 l 257
EndSplineSet
EndChar

StartChar: uniE01F
Encoding: 25 57375 24
GlifName: uniE_01F_
Width: 0
VWidth: 0
GlyphClass: 2
LayerCount: 2
Fore
SplineSet
191 780 m 256
 165 780 144 800 144 826 c 256
 144 852 165 873 191 873 c 256
 217 873 238 852 238 826 c 256
 238 800 217 780 191 780 c 256
191 849 m 256
 177 849 168 840 168 826 c 256
 168 812 177 804 191 804 c 256
 205 804 214 812 214 826 c 256
 214 840 205 849 191 849 c 256
EndSplineSet
EndChar

StartChar: uniE020
Encoding: 26 57376 25
GlifName: uniE_020
Width: 0
VWidth: 0
GlyphClass: 2
LayerCount: 2
Fore
SplineSet
191 657 m 256
 165 657 144 677 144 703 c 256
 144 729 165 750 191 750 c 256
 217 750 238 729 238 703 c 256
 238 677 217 657 191 657 c 256
191 726 m 256
 177 726 168 717 168 703 c 256
 168 689 177 681 191 681 c 256
 205 681 214 689 214 703 c 256
 214 717 205 726 191 726 c 256
EndSplineSet
EndChar

StartChar: uniE021
Encoding: 27 57377 26
GlifName: uniE_021
Width: 0
VWidth: 0
GlyphClass: 2
LayerCount: 2
Fore
SplineSet
191 401 m 256
 165 401 144 421 144 447 c 256
 144 473 165 494 191 494 c 256
 217 494 238 473 238 447 c 256
 238 421 217 401 191 401 c 256
191 470 m 256
 177 470 168 461 168 447 c 256
 168 433 177 425 191 425 c 256
 205 425 214 433 214 447 c 256
 214 461 205 470 191 470 c 256
EndSplineSet
EndChar

StartChar: uniE022
Encoding: 28 57378 27
GlifName: uniE_022
Width: 0
VWidth: 0
GlyphClass: 2
LayerCount: 2
Fore
SplineSet
191 279 m 256
 165 279 144 299 144 325 c 256
 144 351 165 372 191 372 c 256
 217 372 238 351 238 325 c 256
 238 299 217 279 191 279 c 256
191 348 m 256
 177 348 168 339 168 325 c 256
 168 311 177 303 191 303 c 256
 205 303 214 311 214 325 c 256
 214 339 205 348 191 348 c 256
EndSplineSet
EndChar

StartChar: uniE023
Encoding: 29 57379 28
GlifName: uniE_023
Width: 0
VWidth: 0
GlyphClass: 2
LayerCount: 2
Fore
SplineSet
191 158 m 256
 165 158 144 178 144 204 c 256
 144 230 165 251 191 251 c 256
 217 251 238 230 238 204 c 256
 238 178 217 158 191 158 c 256
191 227 m 256
 177 227 168 218 168 204 c 256
 168 190 177 182 191 182 c 256
 205 182 214 190 214 204 c 256
 214 218 205 227 191 227 c 256
EndSplineSet
EndChar

StartChar: uniE024
Encoding: 30 57380 29
GlifName: uniE_024
Width: 0
VWidth: 0
GlyphClass: 2
LayerCount: 2
Fore
SplineSet
191 900 m 257
 165 900 144 921 144 947 c 256
 144 973 165 993 191 993 c 257
 191 900 l 257
EndSplineSet
EndChar

StartChar: uniE025
Encoding: 31 57381 30
GlifName: uniE_025
Width: 0
VWidth: 0
GlyphClass: 2
LayerCount: 2
Fore
SplineSet
191 780 m 257
 165 780 144 801 144 827 c 256
 144 853 165 873 191 873 c 257
 191 780 l 257
EndSplineSet
EndChar

StartChar: uniE026
Encoding: 32 57382 31
GlifName: uniE_026
Width: 0
VWidth: 0
GlyphClass: 2
LayerCount: 2
Fore
SplineSet
191 657 m 257
 165 657 144 678 144 704 c 256
 144 730 165 750 191 750 c 257
 191 657 l 257
EndSplineSet
EndChar

StartChar: uniE027
Encoding: 33 57383 32
GlifName: uniE_027
Width: 0
VWidth: 0
GlyphClass: 2
LayerCount: 2
Fore
SplineSet
191 401 m 257
 165 401 144 422 144 447 c 256
 144 473 165 494 191 494 c 257
 191 401 l 257
EndSplineSet
EndChar

StartChar: uniE028
Encoding: 34 57384 33
GlifName: uniE_028
Width: 0
VWidth: 0
GlyphClass: 2
LayerCount: 2
Fore
SplineSet
191 279 m 257
 165 279 144 300 144 326 c 256
 144 352 165 372 191 372 c 257
 191 279 l 257
EndSplineSet
EndChar

StartChar: uniE029
Encoding: 35 57385 34
GlifName: uniE_029
Width: 0
VWidth: 0
GlyphClass: 2
LayerCount: 2
Fore
SplineSet
191 158 m 257
 165 158 144 179 144 204 c 256
 144 230 165 251 191 251 c 257
 191 158 l 257
EndSplineSet
EndChar

StartChar: uniE02A
Encoding: 36 57386 35
GlifName: uniE_02A_
Width: 0
VWidth: 0
GlyphClass: 2
LayerCount: 2
Fore
SplineSet
238 947 m 257
 238 921 217 900 191 900 c 257
 191 993 l 257
 217 993 238 973 238 947 c 257
EndSplineSet
EndChar

StartChar: uniE02B
Encoding: 37 57387 36
GlifName: uniE_02B_
Width: 0
VWidth: 0
GlyphClass: 2
LayerCount: 2
Fore
SplineSet
238 827 m 257
 238 801 217 780 191 780 c 257
 191 873 l 257
 217 873 238 853 238 827 c 257
EndSplineSet
EndChar

StartChar: uniE02C
Encoding: 38 57388 37
GlifName: uniE_02C_
Width: 0
VWidth: 0
GlyphClass: 2
LayerCount: 2
Fore
SplineSet
238 704 m 257
 238 678 217 657 191 657 c 257
 191 750 l 257
 217 750 238 730 238 704 c 257
EndSplineSet
EndChar

StartChar: uniE02D
Encoding: 39 57389 38
GlifName: uniE_02D_
Width: 0
VWidth: 0
GlyphClass: 2
LayerCount: 2
Fore
SplineSet
238 447 m 257
 238 422 217 401 191 401 c 257
 191 494 l 257
 217 494 238 473 238 447 c 257
EndSplineSet
EndChar

StartChar: uniE02E
Encoding: 40 57390 39
GlifName: uniE_02E_
Width: 0
VWidth: 0
GlyphClass: 2
LayerCount: 2
Fore
SplineSet
238 326 m 257
 238 300 217 279 191 279 c 257
 191 372 l 257
 217 372 238 352 238 326 c 257
EndSplineSet
EndChar

StartChar: uniE02F
Encoding: 41 57391 40
GlifName: uniE_02F_
Width: 0
VWidth: 0
GlyphClass: 2
LayerCount: 2
Fore
SplineSet
238 204 m 257
 238 179 217 158 191 158 c 257
 191 251 l 257
 217 251 238 230 238 204 c 257
EndSplineSet
EndChar

StartChar: uniE030
Encoding: 42 57392 41
GlifName: uniE_030
Width: 0
VWidth: 0
GlyphClass: 2
LayerCount: 2
Fore
SplineSet
168 987 m 257
 168 906 l 257
 154 915 144 930 144 947 c 256
 144 964 154 979 168 987 c 257
EndSplineSet
EndChar

StartChar: uniE031
Encoding: 43 57393 42
GlifName: uniE_031
Width: 0
VWidth: 0
GlyphClass: 2
LayerCount: 2
Fore
SplineSet
168 867 m 257
 168 786 l 257
 154 795 144 810 144 827 c 256
 144 844 154 859 168 867 c 257
EndSplineSet
EndChar

StartChar: uniE032
Encoding: 44 57394 43
GlifName: uniE_032
Width: 0
VWidth: 0
GlyphClass: 2
LayerCount: 2
Fore
SplineSet
168 744 m 257
 168 663 l 257
 154 671 144 686 144 703 c 256
 144 721 154 736 168 744 c 257
EndSplineSet
EndChar

StartChar: uniE033
Encoding: 45 57395 44
GlifName: uniE_033
Width: 0
VWidth: 0
GlyphClass: 2
LayerCount: 2
Fore
SplineSet
168 487 m 257
 168 406 l 257
 154 415 144 430 144 447 c 256
 144 464 154 479 168 487 c 257
EndSplineSet
EndChar

StartChar: uniE034
Encoding: 46 57396 45
GlifName: uniE_034
Width: 0
VWidth: 0
GlyphClass: 2
LayerCount: 2
Fore
SplineSet
168 366 m 257
 168 285 l 257
 154 293 144 308 144 325 c 256
 144 343 154 358 168 366 c 257
EndSplineSet
EndChar

StartChar: uniE035
Encoding: 47 57397 46
GlifName: uniE_035
Width: 0
VWidth: 0
GlyphClass: 2
LayerCount: 2
Fore
SplineSet
168 244 m 257
 168 164 l 257
 154 172 144 187 144 204 c 256
 144 221 154 236 168 244 c 257
EndSplineSet
EndChar

StartChar: uniE036
Encoding: 48 57398 47
GlifName: uniE_036
Width: 0
VWidth: 0
GlyphClass: 2
LayerCount: 2
Fore
SplineSet
214 987 m 257
 228 979 238 964 238 947 c 256
 238 930 228 915 214 906 c 257
 214 987 l 257
EndSplineSet
EndChar

StartChar: uniE037
Encoding: 49 57399 48
GlifName: uniE_037
Width: 0
VWidth: 0
GlyphClass: 2
LayerCount: 2
Fore
SplineSet
214 867 m 257
 228 859 238 844 238 827 c 256
 238 810 228 795 214 786 c 257
 214 867 l 257
EndSplineSet
EndChar

StartChar: uniE038
Encoding: 50 57400 49
GlifName: uniE_038
Width: 0
VWidth: 0
GlyphClass: 2
LayerCount: 2
Fore
SplineSet
214 743 m 257
 228 735 238 720 238 703 c 256
 238 686 228 671 214 662 c 257
 214 743 l 257
EndSplineSet
EndChar

StartChar: uniE039
Encoding: 51 57401 50
GlifName: uniE_039
Width: 0
VWidth: 0
GlyphClass: 2
LayerCount: 2
Fore
SplineSet
214 487 m 257
 228 479 238 464 238 447 c 256
 238 430 228 415 214 406 c 257
 214 487 l 257
EndSplineSet
EndChar

StartChar: uniE03A
Encoding: 52 57402 51
GlifName: uniE_03A_
Width: 0
VWidth: 0
GlyphClass: 2
LayerCount: 2
Fore
SplineSet
214 366 m 257
 228 358 238 343 238 326 c 256
 238 309 228 294 214 285 c 257
 214 366 l 257
EndSplineSet
EndChar

StartChar: uniE03B
Encoding: 53 57403 52
GlifName: uniE_03B_
Width: 0
VWidth: 0
GlyphClass: 2
LayerCount: 2
Fore
SplineSet
214 244 m 257
 228 236 238 221 238 204 c 256
 238 187 228 172 214 164 c 257
 214 244 l 257
EndSplineSet
EndChar

StartChar: uniE03C
Encoding: 54 57404 53
GlifName: uniE_03C_
Width: 0
VWidth: 0
GlyphClass: 2
LayerCount: 2
Fore
SplineSet
4 891 m 257
 2 891 1 893 1 894 c 256
 1 895 2 896 89 984 c 257
 90 984 91 985 92 985 c 256
 93 985 94 983 94 981 c 256
 94 980 94 980 6 892 c 257
 4 891 l 257
EndSplineSet
EndChar

StartChar: uniE03D
Encoding: 55 57405 54
GlifName: uniE_03D_
Width: 0
VWidth: 0
GlyphClass: 2
LayerCount: 2
Fore
SplineSet
7 789 m 257
 7 789 6 789 5 790 c 256
 4 791 4 793 5 794 c 257
 55 844 l 257
 57 846 59 846 60 844 c 256
 61 843 61 841 60 840 c 257
 9 790 l 257
 9 789 8 789 7 789 c 257
EndSplineSet
EndChar

StartChar: uniE03E
Encoding: 56 57406 55
GlifName: uniE_03E_
Width: 0
VWidth: 0
GlyphClass: 2
LayerCount: 2
Fore
SplineSet
142 896 m 257
 141 896 140 896 139 897 c 256
 138 898 138 900 139 901 c 257
 237 998 l 257
 238 1000 240 1000 241 998 c 256
 242 997 242 995 241 994 c 257
 144 897 l 257
 143 896 142 896 142 896 c 257
EndSplineSet
EndChar

StartChar: uniE03F
Encoding: 57 57407 56
GlifName: uniE_03F_
Width: 0
VWidth: 0
GlyphClass: 2
LayerCount: 2
Fore
SplineSet
142 775 m 257
 141 775 140 775 139 776 c 256
 138 777 138 779 139 780 c 257
 237 877 l 257
 238 879 240 879 241 877 c 256
 242 876 242 874 241 873 c 257
 144 776 l 257
 143 775 142 775 142 775 c 257
EndSplineSet
EndChar

StartChar: uniE040
Encoding: 58 57408 57
GlifName: uniE_040
Width: 0
VWidth: 0
GlyphClass: 2
LayerCount: 2
Fore
SplineSet
142 650 m 257
 141 650 140 650 139 651 c 256
 138 652 138 654 139 655 c 257
 237 752 l 257
 238 754 240 754 241 752 c 256
 242 751 242 749 241 748 c 257
 144 651 l 257
 143 650 142 650 142 650 c 257
EndSplineSet
EndChar

StartChar: uniE041
Encoding: 59 57409 58
GlifName: uniE_041
Width: 0
VWidth: 0
GlyphClass: 2
LayerCount: 2
Fore
SplineSet
222 616 m 257
 221 616 220 616 220 617 c 256
 219 618 219 620 220 621 c 257
 303 704 l 257
 305 706 307 706 308 704 c 256
 309 703 309 701 308 700 c 257
 224 617 l 257
 223 616 223 616 222 616 c 257
EndSplineSet
EndChar

StartChar: uniE042
Encoding: 60 57410 59
GlifName: uniE_042
Width: 0
VWidth: 0
GlyphClass: 2
LayerCount: 2
Fore
SplineSet
129 515 m 257
 128 515 127 515 127 516 c 256
 126 517 126 519 127 520 c 257
 179 573 l 257
 181 574 183 574 184 573 c 256
 185 572 185 570 184 569 c 257
 131 516 l 257
 130 515 130 515 129 515 c 257
EndSplineSet
EndChar

StartChar: uniE043
Encoding: 61 57411 60
GlifName: uniE_043
Width: 0
VWidth: 0
GlyphClass: 2
LayerCount: 2
Fore
SplineSet
77 482 m 257
 76 482 75 482 75 483 c 256
 74 484 74 486 75 487 c 257
 127 540 l 257
 129 541 131 541 132 540 c 256
 133 539 133 537 132 536 c 257
 79 483 l 257
 78 482 78 482 77 482 c 257
EndSplineSet
EndChar

StartChar: uniE044
Encoding: 62 57412 61
GlifName: uniE_044
Width: 0
VWidth: 0
GlyphClass: 2
LayerCount: 2
Fore
SplineSet
142 398 m 257
 141 398 140 398 139 398 c 256
 138 400 138 402 139 403 c 257
 237 500 l 257
 238 501 240 501 241 500 c 256
 242 499 242 497 241 496 c 257
 144 398 l 257
 143 398 142 398 142 398 c 257
EndSplineSet
EndChar

StartChar: uniE045
Encoding: 63 57413 62
GlifName: uniE_045
Width: 0
VWidth: 0
GlyphClass: 2
LayerCount: 2
Fore
SplineSet
149 365 m 257
 148 365 147 365 146 366 c 257
 103 409 l 257
 102 410 102 412 103 413 c 256
 104 414 106 414 107 413 c 257
 151 370 l 257
 152 369 152 367 151 366 c 256
 150 365 149 365 149 365 c 257
EndSplineSet
EndChar

StartChar: uniE046
Encoding: 64 57414 63
GlifName: uniE_046
Width: 0
VWidth: 0
GlyphClass: 2
LayerCount: 2
Fore
SplineSet
142 272 m 257
 141 272 140 272 139 272 c 256
 138 274 138 276 139 277 c 257
 237 374 l 257
 238 375 240 375 241 374 c 256
 242 373 242 371 241 370 c 257
 144 272 l 257
 143 272 142 272 142 272 c 257
EndSplineSet
EndChar

StartChar: uniE047
Encoding: 65 57415 64
GlifName: uniE_047
Width: 0
VWidth: 0
GlyphClass: 2
LayerCount: 2
Fore
SplineSet
149 243 m 257
 148 243 147 243 146 244 c 257
 103 287 l 257
 102 288 102 290 103 291 c 256
 104 292 106 292 107 291 c 257
 151 248 l 257
 152 247 152 245 151 244 c 256
 150 243 149 243 149 243 c 257
EndSplineSet
EndChar

StartChar: uniE048
Encoding: 66 57416 65
GlifName: uniE_048
Width: 0
VWidth: 0
GlyphClass: 2
LayerCount: 2
Fore
SplineSet
142 154 m 257
 141 154 140 154 139 154 c 256
 138 156 138 158 139 159 c 257
 237 256 l 257
 238 257 240 257 241 256 c 256
 242 255 242 253 241 252 c 257
 144 154 l 257
 143 154 142 154 142 154 c 257
EndSplineSet
EndChar

StartChar: uniE049
Encoding: 67 57417 66
GlifName: uniE_049
Width: 0
VWidth: 0
GlyphClass: 2
LayerCount: 2
Fore
SplineSet
117 96 m 257
 116 96 115 97 114 97 c 256
 113 98 113 100 114 101 c 257
 169 156 l 257
 171 158 173 158 174 156 c 256
 175 155 175 153 174 152 c 257
 119 97 l 257
 118 97 117 96 117 96 c 257
EndSplineSet
EndChar

StartChar: uniE04A
Encoding: 68 57418 67
GlifName: uniE_04A_
Width: 0
VWidth: 0
GlyphClass: 2
LayerCount: 2
Fore
SplineSet
103 29 m 257
 102 29 101 29 100 30 c 256
 99 31 99 33 100 34 c 257
 158 92 l 257
 159 93 161 93 162 92 c 256
 164 91 164 89 162 88 c 257
 105 30 l 257
 104 29 103 29 103 29 c 257
EndSplineSet
EndChar

StartChar: uniE04B
Encoding: 69 57419 68
GlifName: uniE_04B_
Width: 0
VWidth: 0
GlyphClass: 2
LayerCount: 2
Fore
SplineSet
164 52 m 257
 163 52 162 52 162 53 c 256
 161 54 161 56 162 57 c 257
 190 85 l 257
 191 87 193 87 194 85 c 256
 196 84 196 82 194 81 c 257
 166 53 l 257
 165 52 165 52 164 52 c 257
EndSplineSet
EndChar

StartChar: uniE04C
Encoding: 70 57420 69
GlifName: uniE_04C_
Width: 0
VWidth: 0
GlyphClass: 2
LayerCount: 2
Fore
SplineSet
197 52 m 257
 197 52 196 52 195 53 c 256
 194 54 194 56 195 57 c 257
 223 85 l 257
 225 87 227 87 228 85 c 256
 229 84 229 82 228 81 c 257
 199 53 l 257
 199 52 198 52 197 52 c 257
EndSplineSet
EndChar

StartChar: uniE04D
Encoding: 71 57421 70
GlifName: uniE_04D_
Width: 0
VWidth: 0
GlyphClass: 2
LayerCount: 2
Fore
SplineSet
182 -8 m 257
 182 -8 181 -8 180 -7 c 256
 179 -6 179 -4 180 -3 c 257
 217 34 l 257
 219 36 221 36 222 34 c 256
 223 33 223 31 222 30 c 257
 184 -7 l 257
 184 -8 183 -8 182 -8 c 257
EndSplineSet
EndChar

StartChar: uniE0A0
Encoding: 72 57504 71
GlifName: uniE_0A_0
Width: 0
VWidth: 0
GlyphClass: 2
LayerCount: 2
Fore
SplineSet
56 28 m 258
 56 27 61 25 64 25 c 256
 69 25 74 27 74 28 c 258
 74 42 l 258
 73 42 69 44 66 44 c 256
 61 44 57 42 56 42 c 258
 56 28 l 258
66 19 m 256
 60 19 50 21 50 27 c 258
 50 42 l 258
 50 48 60 50 64 50 c 256
 70 50 80 48 80 42 c 258
 80 27 l 258
 80 21 70 19 66 19 c 256
56 62 m 258
 56 61 61 59 64 59 c 256
 69 59 74 61 74 62 c 258
 74 76 l 258
 73 77 69 78 66 78 c 256
 61 78 57 77 56 76 c 258
 56 62 l 258
66 53 m 256
 60 53 50 55 50 62 c 258
 50 76 l 258
 50 82 60 84 64 84 c 256
 70 84 80 82 80 76 c 258
 80 62 l 258
 80 55 70 53 66 53 c 256
22 43 m 258
 23 42 27 40 31 40 c 256
 36 40 40 42 41 43 c 258
 41 57 l 258
 40 58 35 59 32 59 c 256
 27 59 23 58 22 57 c 258
 22 43 l 258
32 34 m 256
 26 34 16 36 16 43 c 258
 16 57 l 258
 16 63 26 65 31 65 c 256
 37 65 47 63 47 57 c 258
 47 43 l 258
 47 36 37 34 32 34 c 256
22 78 m 258
 23 77 27 75 31 75 c 256
 36 75 40 77 41 78 c 258
 41 92 l 258
 40 93 35 94 32 94 c 256
 27 94 23 93 22 92 c 258
 22 78 l 258
32 69 m 256
 26 69 16 71 16 78 c 258
 16 92 l 258
 16 98 26 100 31 100 c 256
 37 100 47 98 47 92 c 258
 47 78 l 258
 47 71 37 69 32 69 c 256
26 431 m 258
 24 431 22 429 22 427 c 256
 22 424 24 422 26 422 c 258
 34 422 l 258
 36 422 38 424 38 427 c 256
 38 429 36 431 34 431 c 258
 26 431 l 258
34 416 m 258
 26 416 l 258
 20 416 16 421 16 427 c 256
 16 433 20 437 26 437 c 258
 34 437 l 258
 40 437 44 433 44 427 c 256
 44 421 40 416 34 416 c 258
26 408 m 258
 24 408 22 406 22 404 c 256
 22 401 24 399 26 399 c 258
 34 399 l 258
 36 399 38 401 38 404 c 256
 38 406 36 408 34 408 c 258
 26 408 l 258
34 393 m 258
 26 393 l 258
 20 393 16 398 16 404 c 256
 16 410 20 414 26 414 c 258
 34 414 l 258
 40 414 44 410 44 404 c 256
 44 398 40 393 34 393 c 258
18 385 m 258
 15 385 13 383 13 381 c 256
 13 378 15 376 18 376 c 258
 34 376 l 258
 36 376 38 378 38 381 c 256
 38 383 36 385 34 385 c 258
 18 385 l 258
34 370 m 258
 18 370 l 258
 12 370 7 375 7 381 c 256
 7 387 12 391 18 391 c 258
 34 391 l 258
 39 391 44 387 44 381 c 256
 44 375 39 370 34 370 c 258
11 362 m 258
 8 362 6 360 6 357 c 256
 6 354 8 352 11 352 c 258
 33 352 l 258
 36 352 38 354 38 357 c 256
 38 360 36 362 33 362 c 258
 11 362 l 258
33 346 m 258
 11 346 l 258
 5 346 0 351 0 357 c 256
 0 363 5 368 11 368 c 258
 33 368 l 258
 39 368 44 363 44 357 c 256
 44 351 39 346 33 346 c 258
28 199 m 258
 27 199 26 198 26 196 c 256
 26 195 27 194 28 194 c 258
 60 194 l 258
 61 194 62 195 62 196 c 256
 62 198 61 199 60 199 c 258
 28 199 l 258
60 188 m 258
 28 188 l 258
 24 188 20 192 20 196 c 256
 20 201 24 205 28 205 c 258
 60 205 l 258
 64 205 68 201 68 196 c 256
 68 192 64 188 60 188 c 258
94 510 m 258
 91 510 87 506 86 501 c 256
 86 500 85 499 85 498 c 256
 85 496 86 493 89 492 c 258
 114 480 l 257
 113 500 106 503 106 503 c 257
 94 510 l 258
117 472 m 256
 108 478 96 482 86 487 c 256
 82 489 79 493 79 498 c 256
 79 499 80 501 80 502 c 256
 81 509 87 516 94 516 c 256
 96 516 97 516 99 515 c 258
 109 509 l 258
 111 508 120 502 120 476 c 256
 120 473 119 472 117 472 c 256
130 507 m 257
 141 507 l 258
 144 507 146 508 148 509 c 256
 149 510 150 512 150 514 c 256
 150 517 148 520 145 520 c 256
 143 520 142 521 141 521 c 256
 134 521 130 516 130 507 c 257
141 501 m 258
 127 501 l 258
 125 501 124 502 124 504 c 256
 124 525 136 527 141 527 c 256
 143 527 144 527 145 526 c 256
 152 526 156 520 156 514 c 256
 156 510 154 507 152 505 c 256
 150 503 147 501 141 501 c 258
132 476 m 257
 145 476 l 258
 148 476 151 476 152 478 c 256
 153 479 154 481 154 483 c 256
 154 486 151 490 145 490 c 258
 132 490 l 257
 132 476 l 257
145 470 m 258
 129 470 l 258
 127 470 126 471 126 473 c 258
 126 493 l 258
 126 495 127 496 129 496 c 258
 145 496 l 258
 155 496 160 489 160 483 c 256
 160 479 159 476 156 474 c 256
 154 471 150 470 145 470 c 258
125 452 m 258
 45 452 l 258
 43 452 42 453 42 455 c 256
 42 456 43 458 45 458 c 258
 125 458 l 258
 127 458 128 456 128 455 c 256
 128 453 127 452 125 452 c 258
63 528 m 258
 106 528 l 258
 108 528 110 529 110 530 c 256
 112 531 112 533 112 535 c 256
 112 539 110 541 105 541 c 256
 97 541 95 534 95 534 c 258
 94 533 93 532 92 532 c 258
 63 532 l 258
 61 532 60 530 60 530 c 258
 60 529 60 528 63 528 c 258
106 522 m 258
 63 522 l 258
 58 522 54 525 54 530 c 256
 54 534 57 538 63 538 c 258
 90 538 l 257
 92 542 96 547 105 547 c 256
 111 547 118 543 118 535 c 256
 118 532 117 529 115 526 c 256
 113 523 109 522 106 522 c 258
130 655 m 258
 129 654 128 654 127 654 c 256
 123 650 105 648 95 647 c 256
 90 647 88 645 88 643 c 256
 88 642 89 640 92 640 c 256
 97 640 108 640 118 642 c 256
 131 645 136 648 136 651 c 256
 136 655 134 655 134 655 c 257
 130 655 l 258
92 634 m 256
 86 634 83 638 82 643 c 256
 82 648 85 653 93 653 c 256
 103 654 117 657 123 659 c 256
 124 659 125 659 126 660 c 256
 130 660 132 661 134 661 c 256
 137 661 142 660 142 651 c 256
 142 644 134 639 119 637 c 256
 109 634 97 634 92 634 c 256
122 868 m 257
 122 826 l 258
 122 821 128 800 147 800 c 256
 154 800 158 801 160 804 c 256
 162 806 162 808 162 809 c 256
 162 818 156 821 150 823 c 256
 146 825 142 828 139 831 c 256
 131 839 126 844 126 867 c 257
 122 868 l 257
147 794 m 256
 125 794 116 817 116 826 c 258
 116 871 l 258
 116 873 118 873 119 874 c 258
 129 873 l 258
 130 873 132 872 132 870 c 256
 132 848 136 843 142 836 c 258
 142 836 149 831 153 829 c 256
 154 828 168 819 168 812 c 256
 168 807 168 803 165 800 c 256
 161 796 155 794 147 794 c 256
45 911 m 256
 39 911 34 906 34 900 c 256
 34 893 39 888 45 888 c 256
 52 888 57 893 57 900 c 256
 57 906 52 911 45 911 c 256
45 882 m 256
 36 882 28 890 28 900 c 256
 28 909 36 917 45 917 c 256
 55 917 63 909 63 900 c 256
 63 890 55 882 45 882 c 256
87 172 m 256
 70 172 57 159 57 143 c 256
 57 127 70 113 87 113 c 256
 103 113 116 127 116 143 c 256
 116 159 103 172 87 172 c 256
87 107 m 256
 67 107 51 123 51 143 c 256
 51 162 67 178 87 178 c 256
 106 178 122 162 122 143 c 256
 122 123 106 107 87 107 c 256
87 276 m 256
 70 276 57 263 57 247 c 256
 57 231 70 217 87 217 c 256
 103 217 116 231 116 247 c 256
 116 263 103 276 87 276 c 256
87 211 m 256
 67 211 51 227 51 247 c 256
 51 266 67 282 87 282 c 256
 106 282 122 266 122 247 c 256
 122 227 106 211 87 211 c 256
87 363 m 256
 70 363 57 350 57 333 c 256
 57 317 70 304 87 304 c 256
 103 304 116 317 116 333 c 256
 116 350 103 363 87 363 c 256
87 298 m 256
 67 298 51 314 51 333 c 256
 51 353 67 369 87 369 c 256
 106 369 122 353 122 333 c 256
 122 314 106 298 87 298 c 256
87 619 m 256
 70 619 57 606 57 589 c 256
 57 573 70 560 87 560 c 256
 103 560 116 573 116 589 c 256
 116 606 103 619 87 619 c 256
87 554 m 256
 67 554 51 570 51 589 c 256
 51 609 67 625 87 625 c 256
 106 625 122 609 122 589 c 256
 122 570 106 554 87 554 c 256
87 722 m 256
 70 722 57 709 57 693 c 256
 57 677 70 663 87 663 c 256
 103 663 116 677 116 693 c 256
 116 709 103 722 87 722 c 256
87 657 m 256
 67 657 51 673 51 693 c 256
 51 712 67 728 87 728 c 256
 106 728 122 712 122 693 c 256
 122 673 106 657 87 657 c 256
87 809 m 256
 70 809 57 796 57 779 c 256
 57 763 70 750 87 750 c 256
 103 750 116 763 116 779 c 256
 116 796 103 809 87 809 c 256
87 744 m 256
 67 744 51 760 51 779 c 256
 51 799 67 815 87 815 c 256
 106 815 122 799 122 779 c 256
 122 760 106 744 87 744 c 256
86 900 m 257
 85 897 82 890 77 874 c 256
 77 862 74 855 74 849 c 256
 74 846 75 844 77 841 c 256
 79 838 82 837 87 837 c 256
 91 837 94 838 96 841 c 256
 98 843 99 847 99 851 c 256
 99 859 96 868 95 873 c 256
 95 874 95 875 94 876 c 256
 92 888 88 897 86 900 c 257
87 831 m 256
 80 831 75 833 72 837 c 256
 69 841 68 847 68 853 c 256
 68 862 70 870 71 874 c 256
 71 879 78 906 86 906 c 256
 88 906 94 906 100 877 c 256
 100 876 101 876 101 874 c 256
 101 868 104 860 104 853 c 256
 104 847 103 841 100 837 c 256
 97 833 93 831 87 831 c 256
46 992 m 257
 44 990 41 983 37 967 c 256
 37 959 33 951 33 943 c 256
 33 940 34 936 36 933 c 256
 38 931 41 930 46 930 c 256
 50 930 53 931 55 933 c 256
 57 936 58 940 58 944 c 256
 58 952 55 961 54 966 c 256
 54 975 49 985 46 992 c 257
46 924 m 256
 39 924 35 926 31 930 c 256
 28 934 27 939 27 944 c 256
 27 953 30 963 31 967 c 256
 31 968 34 999 45 999 c 256
 47 999 53 999 59 970 c 256
 60 969 60 968 60 967 c 256
 60 960 64 952 64 945 c 256
 64 939 63 934 60 930 c 256
 57 926 52 924 46 924 c 256
EndSplineSet
EndChar

StartChar: uniE0A1
Encoding: 73 57505 72
GlifName: uniE_0A_1
Width: 0
VWidth: 0
GlyphClass: 2
LayerCount: 2
Fore
SplineSet
22 9 m 258
 23 8 27 6 31 6 c 256
 36 6 40 8 41 9 c 258
 41 23 l 258
 40 24 35 25 32 25 c 256
 27 25 23 24 22 23 c 258
 22 9 l 258
32 0 m 256
 26 0 16 2 16 9 c 258
 16 23 l 258
 16 29 26 31 31 31 c 256
 37 31 47 29 47 23 c 258
 47 9 l 258
 47 2 37 0 32 0 c 256
EndSplineSet
EndChar

StartChar: uniE0A2
Encoding: 74 57506 73
GlifName: uniE_0A_2
Width: 0
VWidth: 0
GlyphClass: 2
LayerCount: 2
Fore
SplineSet
46 924 m 256
 39 924 35 926 31 930 c 256
 28 934 27 939 27 944 c 256
 27 953 30 963 31 967 c 256
 31 968 34 999 45 999 c 256
 47 999 53 999 59 970 c 256
 60 969 60 968 60 967 c 256
 60 960 64 952 64 945 c 256
 64 939 63 934 60 930 c 256
 57 926 52 924 46 924 c 256
EndSplineSet
EndChar

StartChar: uniE0A3
Encoding: 75 57507 74
GlifName: uniE_0A_3
Width: 0
VWidth: 0
GlyphClass: 2
LayerCount: 2
Fore
SplineSet
60 900 m 256
 60 892 54 885 45 885 c 256
 37 885 31 892 31 900 c 256
 31 908 37 914 45 914 c 256
 54 914 60 908 60 900 c 256
EndSplineSet
EndChar

StartChar: uniE0A4
Encoding: 76 57508 75
GlifName: uniE_0A_4
Width: 0
VWidth: 0
GlyphClass: 2
LayerCount: 2
Fore
SplineSet
87 831 m 256
 80 831 75 833 72 837 c 256
 69 841 68 847 68 853 c 256
 68 862 70 870 71 874 c 256
 71 879 78 906 86 906 c 256
 88 906 94 906 100 877 c 256
 100 876 101 876 101 874 c 256
 101 868 104 860 104 853 c 256
 104 847 103 841 100 837 c 256
 97 833 93 831 87 831 c 256
EndSplineSet
EndChar

StartChar: uniE0A5
Encoding: 77 57509 76
GlifName: uniE_0A_5
Width: 0
VWidth: 0
GlyphClass: 2
LayerCount: 2
Fore
SplineSet
147 794 m 256
 125 794 116 817 116 826 c 258
 116 871 l 258
 116 873 118 873 119 874 c 258
 129 873 l 258
 130 873 132 872 132 870 c 256
 132 848 136 843 142 836 c 258
 142 836 149 831 153 829 c 256
 154 828 168 819 168 812 c 256
 168 807 168 803 165 800 c 256
 161 796 155 794 147 794 c 256
EndSplineSet
EndChar

StartChar: uniE0A6
Encoding: 78 57510 77
GlifName: uniE_0A_6
Width: 0
VWidth: 0
GlyphClass: 2
LayerCount: 2
Fore
SplineSet
87 744 m 256
 67 744 51 760 51 779 c 256
 51 799 67 815 87 815 c 256
 106 815 122 799 122 779 c 256
 122 760 106 744 87 744 c 256
EndSplineSet
EndChar

StartChar: uniE0A7
Encoding: 79 57511 78
GlifName: uniE_0A_7
Width: 0
VWidth: 0
GlyphClass: 2
LayerCount: 2
Fore
SplineSet
87 657 m 256
 67 657 51 673 51 693 c 256
 51 712 67 728 87 728 c 256
 106 728 122 712 122 693 c 256
 122 673 106 657 87 657 c 256
EndSplineSet
EndChar

StartChar: uniE0A8
Encoding: 80 57512 79
GlifName: uniE_0A_8
Width: 0
VWidth: 0
GlyphClass: 2
LayerCount: 2
Fore
SplineSet
92 634 m 256
 86 634 83 638 82 643 c 256
 82 648 85 653 93 653 c 256
 103 654 117 657 123 659 c 256
 124 659 125 659 126 660 c 256
 130 660 132 661 134 661 c 256
 137 661 142 660 142 651 c 256
 142 644 134 639 119 637 c 256
 109 634 97 634 92 634 c 256
EndSplineSet
EndChar

StartChar: uniE0A9
Encoding: 81 57513 80
GlifName: uniE_0A_9
Width: 0
VWidth: 0
GlyphClass: 2
LayerCount: 2
Fore
SplineSet
87 554 m 256
 67 554 51 570 51 589 c 256
 51 609 67 625 87 625 c 256
 106 625 122 609 122 589 c 256
 122 570 106 554 87 554 c 256
EndSplineSet
EndChar

StartChar: uniE0AA
Encoding: 82 57514 81
GlifName: uniE_0A_A_
Width: 0
VWidth: 0
GlyphClass: 2
LayerCount: 2
Fore
SplineSet
106 522 m 258
 63 522 l 258
 58 522 54 525 54 530 c 256
 54 534 57 538 63 538 c 258
 90 538 l 257
 92 542 96 547 105 547 c 256
 111 547 118 543 118 535 c 256
 118 532 117 529 115 526 c 256
 113 523 109 522 106 522 c 258
EndSplineSet
EndChar

StartChar: uniE0AB
Encoding: 83 57515 82
GlifName: uniE_0A_B_
Width: 0
VWidth: 0
GlyphClass: 2
LayerCount: 2
Fore
SplineSet
141 501 m 258
 127 501 l 258
 125 501 124 502 124 504 c 256
 124 525 136 527 141 527 c 256
 143 527 144 527 145 526 c 256
 152 526 156 520 156 514 c 256
 156 510 154 507 152 505 c 256
 150 503 147 501 141 501 c 258
EndSplineSet
EndChar

StartChar: uniE0AC
Encoding: 84 57516 83
GlifName: uniE_0A_C_
Width: 0
VWidth: 0
GlyphClass: 2
LayerCount: 2
Fore
SplineSet
129 473 m 257
 129 493 l 257
 145 493 l 258
 153 493 157 488 157 483 c 256
 157 478 153 473 145 473 c 258
 129 473 l 257
EndSplineSet
EndChar

StartChar: uniE0AD
Encoding: 85 57517 84
GlifName: uniE_0A_D_
Width: 0
VWidth: 0
GlyphClass: 2
LayerCount: 2
Fore
SplineSet
117 475 m 257
 117 475 99 483 87 489 c 256
 83 491 82 494 82 498 c 256
 82 505 88 513 94 513 c 256
 95 513 96 513 97 512 c 256
 107 506 107 506 107 506 c 257
 107 506 117 503 117 475 c 257
EndSplineSet
EndChar

StartChar: uniE0AE
Encoding: 86 57518 85
GlifName: uniE_0A_E_
Width: 0
VWidth: 0
GlyphClass: 2
LayerCount: 2
Fore
SplineSet
41 427 m 256
 41 423 38 419 34 419 c 258
 26 419 l 258
 22 419 19 423 19 427 c 256
 19 431 22 434 26 434 c 258
 34 434 l 258
 38 434 41 431 41 427 c 256
EndSplineSet
EndChar

StartChar: uniE0AF
Encoding: 87 57519 86
GlifName: uniE_0A_F_
Width: 0
VWidth: 0
GlyphClass: 2
LayerCount: 2
Fore
SplineSet
41 404 m 256
 41 400 38 396 34 396 c 258
 26 396 l 258
 22 396 19 400 19 404 c 256
 19 408 22 411 26 411 c 258
 34 411 l 258
 38 411 41 408 41 404 c 256
EndSplineSet
EndChar

StartChar: uniE0B0
Encoding: 88 57520 87
GlifName: uniE_0B_0
Width: 0
VWidth: 0
GlyphClass: 2
LayerCount: 2
Fore
SplineSet
41 381 m 256
 41 376 38 373 34 373 c 258
 18 373 l 258
 14 373 10 376 10 381 c 256
 10 385 14 388 18 388 c 258
 34 388 l 258
 38 388 41 385 41 381 c 256
EndSplineSet
EndChar

StartChar: uniE0B1
Encoding: 89 57521 88
GlifName: uniE_0B_1
Width: 0
VWidth: 0
GlyphClass: 2
LayerCount: 2
Fore
SplineSet
41 357 m 256
 41 352 38 349 33 349 c 258
 11 349 l 258
 7 349 3 352 3 357 c 256
 3 362 7 365 11 365 c 258
 33 365 l 258
 38 365 41 362 41 357 c 256
EndSplineSet
EndChar

StartChar: uniE0B2
Encoding: 90 57522 89
GlifName: uniE_0B_2
Width: 0
VWidth: 0
GlyphClass: 2
LayerCount: 2
Fore
SplineSet
87 298 m 256
 67 298 51 314 51 333 c 256
 51 353 67 369 87 369 c 256
 106 369 122 353 122 333 c 256
 122 314 106 298 87 298 c 256
EndSplineSet
EndChar

StartChar: uniE0B3
Encoding: 91 57523 90
GlifName: uniE_0B_3
Width: 0
VWidth: 0
GlyphClass: 2
LayerCount: 2
Fore
SplineSet
87 211 m 256
 67 211 51 227 51 247 c 256
 51 266 67 282 87 282 c 256
 106 282 122 266 122 247 c 256
 122 227 106 211 87 211 c 256
EndSplineSet
EndChar

StartChar: uniE0B4
Encoding: 92 57524 91
GlifName: uniE_0B_4
Width: 0
VWidth: 0
GlyphClass: 2
LayerCount: 2
Fore
SplineSet
65 196 m 256
 65 193 63 191 60 191 c 258
 28 191 l 258
 25 191 23 193 23 196 c 256
 23 200 25 202 28 202 c 258
 60 202 l 258
 63 202 65 200 65 196 c 256
EndSplineSet
EndChar

StartChar: uniE0B5
Encoding: 93 57525 92
GlifName: uniE_0B_5
Width: 0
VWidth: 0
GlyphClass: 2
LayerCount: 2
Fore
SplineSet
87 107 m 256
 67 107 51 123 51 143 c 256
 51 162 67 178 87 178 c 256
 106 178 122 162 122 143 c 256
 122 123 106 107 87 107 c 256
EndSplineSet
EndChar

StartChar: uniE0B6
Encoding: 94 57526 93
GlifName: uniE_0B_6
Width: 0
VWidth: 0
GlyphClass: 2
LayerCount: 2
Fore
SplineSet
32 69 m 256
 26 69 16 71 16 78 c 258
 16 92 l 258
 16 98 26 100 31 100 c 256
 37 100 47 98 47 92 c 258
 47 78 l 258
 47 71 37 69 32 69 c 256
EndSplineSet
EndChar

StartChar: uniE0B7
Encoding: 95 57527 94
GlifName: uniE_0B_7
Width: 0
VWidth: 0
GlyphClass: 2
LayerCount: 2
Fore
SplineSet
66 53 m 256
 60 53 50 55 50 62 c 258
 50 76 l 258
 50 82 60 84 64 84 c 256
 70 84 80 82 80 76 c 258
 80 62 l 258
 80 55 70 53 66 53 c 256
EndSplineSet
EndChar

StartChar: uniE0B8
Encoding: 96 57528 95
GlifName: uniE_0B_8
Width: 0
VWidth: 0
GlyphClass: 2
LayerCount: 2
Fore
SplineSet
32 34 m 256
 26 34 16 36 16 43 c 258
 16 57 l 258
 16 63 26 65 31 65 c 256
 37 65 47 63 47 57 c 258
 47 43 l 258
 47 36 37 34 32 34 c 256
EndSplineSet
EndChar

StartChar: uniE0B9
Encoding: 97 57529 96
GlifName: uniE_0B_9
Width: 0
VWidth: 0
GlyphClass: 2
LayerCount: 2
Fore
SplineSet
66 19 m 256
 60 19 50 21 50 27 c 258
 50 42 l 258
 50 48 60 50 64 50 c 256
 70 50 80 48 80 42 c 258
 80 27 l 258
 80 21 70 19 66 19 c 256
EndSplineSet
EndChar

StartChar: uniE0BA
Encoding: 98 57530 97
GlifName: uniE_0B_A_
Width: 0
VWidth: 0
GlyphClass: 2
LayerCount: 2
Fore
SplineSet
32 0 m 256
 26 0 16 2 16 9 c 258
 16 23 l 258
 16 29 26 31 31 31 c 256
 37 31 47 29 47 23 c 258
 47 9 l 258
 47 2 37 0 32 0 c 256
EndSplineSet
EndChar

StartChar: uniE0BB
Encoding: 99 57531 98
GlifName: uniE_0B_B_
Width: 0
VWidth: 0
GlyphClass: 2
LayerCount: 2
Fore
SplineSet
87 802 m 256
 74 802 64 792 64 779 c 256
 64 767 74 757 87 757 c 256
 99 757 109 767 109 779 c 256
 109 792 99 802 87 802 c 256
87 815 m 256
 106 815 122 799 122 779 c 256
 122 760 106 744 87 744 c 256
 67 744 51 760 51 779 c 256
 51 799 67 815 87 815 c 256
EndSplineSet
EndChar

StartChar: uniE0BC
Encoding: 100 57532 99
GlifName: uniE_0B_C_
Width: 0
VWidth: 0
GlyphClass: 2
LayerCount: 2
Fore
SplineSet
87 728 m 256
 106 728 122 712 122 692 c 256
 122 673 106 657 87 657 c 256
 67 657 51 673 51 692 c 256
 51 712 67 728 87 728 c 256
EndSplineSet
EndChar

StartChar: uniE0BD
Encoding: 101 57533 100
GlifName: uniE_0B_D_
Width: 0
VWidth: 0
GlyphClass: 2
LayerCount: 2
Fore
SplineSet
87 625 m 256
 106 625 122 609 122 589 c 256
 122 570 106 554 87 554 c 256
 67 554 51 570 51 589 c 256
 51 609 67 625 87 625 c 256
87 612 m 256
 74 612 64 602 64 589 c 256
 64 577 74 567 87 567 c 256
 99 567 109 577 109 589 c 256
 109 602 99 612 87 612 c 256
EndSplineSet
EndChar

StartChar: uniE0BE
Encoding: 102 57534 101
GlifName: uniE_0B_E_
Width: 0
VWidth: 0
GlyphClass: 2
LayerCount: 2
Fore
SplineSet
87 356 m 256
 74 356 64 346 64 333 c 256
 64 321 74 311 87 311 c 256
 99 311 109 321 109 333 c 256
 109 346 99 356 87 356 c 256
87 369 m 256
 106 369 122 353 122 333 c 256
 122 314 106 298 87 298 c 256
 67 298 51 314 51 333 c 256
 51 353 67 369 87 369 c 256
EndSplineSet
EndChar

StartChar: uniE0BF
Encoding: 103 57535 102
GlifName: uniE_0B_F_
Width: 0
VWidth: 0
GlyphClass: 2
LayerCount: 2
Fore
SplineSet
87 269 m 256
 74 269 64 259 64 247 c 256
 64 234 74 224 87 224 c 256
 99 224 109 234 109 247 c 256
 109 259 99 269 87 269 c 256
87 282 m 256
 106 282 122 266 122 246 c 256
 122 227 106 211 87 211 c 256
 67 211 51 227 51 246 c 256
 51 266 67 282 87 282 c 256
EndSplineSet
EndChar

StartChar: uniE0C0
Encoding: 104 57536 103
GlifName: uniE_0C_0
Width: 0
VWidth: 0
GlyphClass: 2
LayerCount: 2
Fore
SplineSet
87 165 m 256
 74 165 64 155 64 143 c 256
 64 130 74 120 87 120 c 256
 99 120 109 130 109 143 c 256
 109 155 99 165 87 165 c 256
87 178 m 256
 106 178 122 162 122 142 c 256
 122 123 106 107 87 107 c 256
 67 107 51 123 51 142 c 256
 51 162 67 178 87 178 c 256
EndSplineSet
EndChar

StartChar: uniE0C1
Encoding: 105 57537 104
GlifName: uniE_0C_1
Width: 0
VWidth: 0
GlyphClass: 2
LayerCount: 2
Fore
SplineSet
87 744 m 257
 67 744 51 760 51 779 c 256
 51 799 67 815 87 815 c 257
 87 744 l 257
EndSplineSet
EndChar

StartChar: uniE0C2
Encoding: 106 57538 105
GlifName: uniE_0C_2
Width: 0
VWidth: 0
GlyphClass: 2
LayerCount: 2
Fore
SplineSet
87 657 m 257
 67 657 51 673 51 693 c 256
 51 712 67 728 87 728 c 257
 87 657 l 257
EndSplineSet
EndChar

StartChar: uniE0C3
Encoding: 107 57539 106
GlifName: uniE_0C_3
Width: 0
VWidth: 0
GlyphClass: 2
LayerCount: 2
Fore
SplineSet
87 554 m 257
 67 554 51 570 51 589 c 256
 51 609 67 625 87 625 c 257
 87 554 l 257
EndSplineSet
EndChar

StartChar: uniE0C4
Encoding: 108 57540 107
GlifName: uniE_0C_4
Width: 0
VWidth: 0
GlyphClass: 2
LayerCount: 2
Fore
SplineSet
87 298 m 257
 67 298 51 314 51 333 c 256
 51 353 67 369 87 369 c 257
 87 298 l 257
EndSplineSet
EndChar

StartChar: uniE0C5
Encoding: 109 57541 108
GlifName: uniE_0C_5
Width: 0
VWidth: 0
GlyphClass: 2
LayerCount: 2
Fore
SplineSet
87 211 m 257
 67 211 51 227 51 247 c 256
 51 266 67 282 87 282 c 257
 87 211 l 257
EndSplineSet
EndChar

StartChar: uniE0C6
Encoding: 110 57542 109
GlifName: uniE_0C_6
Width: 0
VWidth: 0
GlyphClass: 2
LayerCount: 2
Fore
SplineSet
87 107 m 257
 67 107 51 123 51 143 c 256
 51 162 67 178 87 178 c 257
 87 107 l 257
EndSplineSet
EndChar

StartChar: uniE0C7
Encoding: 111 57543 110
GlifName: uniE_0C_7
Width: 0
VWidth: 0
GlyphClass: 2
LayerCount: 2
Fore
SplineSet
87 744 m 257
 87 815 l 257
 106 815 122 799 122 779 c 256
 122 760 106 744 87 744 c 257
EndSplineSet
EndChar

StartChar: uniE0C8
Encoding: 112 57544 111
GlifName: uniE_0C_8
Width: 0
VWidth: 0
GlyphClass: 2
LayerCount: 2
Fore
SplineSet
87 657 m 257
 87 728 l 257
 106 728 122 712 122 693 c 256
 122 673 106 657 87 657 c 257
EndSplineSet
EndChar

StartChar: uniE0C9
Encoding: 113 57545 112
GlifName: uniE_0C_9
Width: 0
VWidth: 0
GlyphClass: 2
LayerCount: 2
Fore
SplineSet
87 554 m 257
 87 625 l 257
 106 625 122 609 122 589 c 256
 122 570 106 554 87 554 c 257
EndSplineSet
EndChar

StartChar: uniE0CA
Encoding: 114 57546 113
GlifName: uniE_0C_A_
Width: 0
VWidth: 0
GlyphClass: 2
LayerCount: 2
Fore
SplineSet
87 298 m 257
 87 369 l 257
 106 369 122 353 122 333 c 256
 122 314 106 298 87 298 c 257
EndSplineSet
EndChar

StartChar: uniE0CB
Encoding: 115 57547 114
GlifName: uniE_0C_B_
Width: 0
VWidth: 0
GlyphClass: 2
LayerCount: 2
Fore
SplineSet
87 211 m 257
 87 282 l 257
 106 282 122 266 122 247 c 256
 122 227 106 211 87 211 c 257
EndSplineSet
EndChar

StartChar: uniE0CC
Encoding: 116 57548 115
GlifName: uniE_0C_C_
Width: 0
VWidth: 0
GlyphClass: 2
LayerCount: 2
Fore
SplineSet
87 107 m 257
 87 178 l 257
 106 178 122 162 122 143 c 256
 122 123 106 107 87 107 c 257
EndSplineSet
EndChar

StartChar: uniE0CD
Encoding: 117 57549 116
GlifName: uniE_0C_D_
Width: 0
VWidth: 0
GlyphClass: 2
LayerCount: 2
Fore
SplineSet
70 748 m 257
 59 754 51 766 51 779 c 256
 51 793 59 805 70 811 c 257
 70 748 l 257
EndSplineSet
EndChar

StartChar: uniE0CE
Encoding: 118 57550 117
GlifName: uniE_0C_E_
Width: 0
VWidth: 0
GlyphClass: 2
LayerCount: 2
Fore
SplineSet
70 661 m 257
 59 667 51 679 51 693 c 256
 51 706 59 718 70 724 c 257
 70 661 l 257
EndSplineSet
EndChar

StartChar: uniE0CF
Encoding: 119 57551 118
GlifName: uniE_0C_F_
Width: 0
VWidth: 0
GlyphClass: 2
LayerCount: 2
Fore
SplineSet
70 558 m 257
 59 564 51 576 51 589 c 256
 51 603 59 615 70 621 c 257
 70 558 l 257
EndSplineSet
EndChar

StartChar: uniE0D0
Encoding: 120 57552 119
GlifName: uniE_0D_0
Width: 0
VWidth: 0
GlyphClass: 2
LayerCount: 2
Fore
SplineSet
70 302 m 257
 59 308 51 320 51 333 c 256
 51 347 59 359 70 365 c 257
 70 302 l 257
EndSplineSet
EndChar

StartChar: uniE0D1
Encoding: 121 57553 120
GlifName: uniE_0D_1
Width: 0
VWidth: 0
GlyphClass: 2
LayerCount: 2
Fore
SplineSet
70 215 m 257
 59 221 51 233 51 247 c 256
 51 260 59 272 70 278 c 257
 70 215 l 257
EndSplineSet
EndChar

StartChar: uniE0D2
Encoding: 122 57554 121
GlifName: uniE_0D_2
Width: 0
VWidth: 0
GlyphClass: 2
LayerCount: 2
Fore
SplineSet
70 111 m 257
 59 117 51 129 51 143 c 256
 51 156 59 168 70 174 c 257
 70 111 l 257
EndSplineSet
EndChar

StartChar: uniE0D3
Encoding: 123 57555 122
GlifName: uniE_0D_3
Width: 0
VWidth: 0
GlyphClass: 2
LayerCount: 2
Fore
SplineSet
103 748 m 257
 103 811 l 257
 114 805 122 793 122 779 c 256
 122 766 114 754 103 748 c 257
EndSplineSet
EndChar

StartChar: uniE0D4
Encoding: 124 57556 123
GlifName: uniE_0D_4
Width: 0
VWidth: 0
GlyphClass: 2
LayerCount: 2
Fore
SplineSet
103 661 m 257
 103 724 l 257
 114 718 122 706 122 693 c 256
 122 679 114 667 103 661 c 257
EndSplineSet
EndChar

StartChar: uniE0D5
Encoding: 125 57557 124
GlifName: uniE_0D_5
Width: 0
VWidth: 0
GlyphClass: 2
LayerCount: 2
Fore
SplineSet
103 558 m 257
 103 621 l 257
 114 615 122 603 122 589 c 256
 122 576 114 564 103 558 c 257
EndSplineSet
EndChar

StartChar: uniE0D6
Encoding: 126 57558 125
GlifName: uniE_0D_6
Width: 0
VWidth: 0
GlyphClass: 2
LayerCount: 2
Fore
SplineSet
103 302 m 257
 103 365 l 257
 114 359 122 347 122 333 c 256
 122 320 114 308 103 302 c 257
EndSplineSet
EndChar

StartChar: uniE0D7
Encoding: 127 57559 126
GlifName: uniE_0D_7
Width: 0
VWidth: 0
GlyphClass: 2
LayerCount: 2
Fore
SplineSet
103 215 m 257
 103 278 l 257
 114 272 122 260 122 247 c 256
 122 233 114 221 103 215 c 257
EndSplineSet
EndChar

StartChar: uniE0D8
Encoding: 128 57560 127
GlifName: uniE_0D_8
Width: 0
VWidth: 0
GlyphClass: 2
LayerCount: 2
Fore
SplineSet
103 111 m 257
 103 174 l 257
 114 168 122 156 122 143 c 256
 122 129 114 117 103 111 c 257
EndSplineSet
EndChar

StartChar: uniE0D9
Encoding: 129 57561 128
GlifName: uniE_0D_9
Width: 0
VWidth: 0
GlyphClass: 2
LayerCount: 2
Fore
SplineSet
26 935 m 257
 23 933 l 257
 22 934 20 935 20 936 c 256
 20 937 20 937 21 938 c 258
 63 980 l 257
 63 980 64 981 65 981 c 256
 66 981 67 979 67 977 c 256
 67 976 67 976 26 935 c 257
EndSplineSet
EndChar

StartChar: uniE0DA
Encoding: 130 57562 129
GlifName: uniE_0D_A_
Width: 0
VWidth: 0
GlyphClass: 2
LayerCount: 2
Fore
SplineSet
26 876 m 257
 24 875 l 257
 23 875 21 876 21 878 c 256
 21 879 21 879 63 922 c 256
 64 923 65 923 67 923 c 257
 68 922 69 920 69 920 c 257
 68 919 68 918 26 876 c 257
EndSplineSet
EndChar

StartChar: uniE0DB
Encoding: 131 57563 130
GlifName: uniE_0D_B_
Width: 0
VWidth: 0
GlyphClass: 2
LayerCount: 2
Fore
SplineSet
66 840 m 257
 64 839 l 257
 63 839 61 840 61 842 c 256
 61 843 61 843 103 886 c 257
 106 886 l 258
 108 886 109 885 109 884 c 256
 109 883 108 882 66 840 c 257
EndSplineSet
EndChar

StartChar: uniE0DC
Encoding: 132 57564 131
GlifName: uniE_0D_C_
Width: 0
VWidth: 0
GlyphClass: 2
LayerCount: 2
Fore
SplineSet
124 795 m 257
 122 794 l 257
 121 794 119 795 119 797 c 256
 119 798 119 798 158 837 c 257
 161 837 l 257
 162 837 163 836 163 835 c 256
 163 834 162 833 124 795 c 257
EndSplineSet
EndChar

StartChar: uniE0DD
Encoding: 133 57565 132
GlifName: uniE_0D_D_
Width: 0
VWidth: 0
GlyphClass: 2
LayerCount: 2
Fore
SplineSet
51 743 m 258
 51 743 50 743 49 744 c 256
 48 745 48 747 49 748 c 258
 118 817 l 258
 119 818 121 818 122 817 c 256
 124 816 124 814 122 813 c 258
 53 744 l 258
 53 743 52 743 51 743 c 258
EndSplineSet
EndChar

StartChar: uniE0DE
Encoding: 134 57566 133
GlifName: uniE_0D_E_
Width: 0
VWidth: 0
GlyphClass: 2
LayerCount: 2
Fore
SplineSet
51 657 m 258
 51 657 50 657 49 658 c 256
 48 659 48 661 49 662 c 258
 118 731 l 258
 119 732 121 732 122 731 c 256
 124 730 124 728 122 727 c 258
 53 658 l 258
 53 657 52 657 51 657 c 258
EndSplineSet
EndChar

StartChar: uniE0DF
Encoding: 135 57567 134
GlifName: uniE_0D_F_
Width: 0
VWidth: 0
GlyphClass: 2
LayerCount: 2
Fore
SplineSet
92 625 m 256
 91 625 90 625 90 626 c 256
 89 627 89 629 90 630 c 258
 131 672 l 258
 133 673 135 673 136 672 c 256
 137 671 137 669 136 668 c 258
 94 626 l 258
 93 625 93 625 92 625 c 256
EndSplineSet
EndChar

StartChar: uniE0E0
Encoding: 136 57568 135
GlifName: uniE_0E_0
Width: 0
VWidth: 0
GlyphClass: 2
LayerCount: 2
Fore
SplineSet
51 552 m 258
 51 552 50 552 49 553 c 256
 48 554 48 556 49 557 c 258
 118 626 l 258
 119 627 121 627 122 626 c 256
 124 625 124 623 122 622 c 258
 53 553 l 258
 53 552 52 552 51 552 c 258
EndSplineSet
EndChar

StartChar: uniE0E1
Encoding: 137 57569 136
GlifName: uniE_0E_1
Width: 0
VWidth: 0
GlyphClass: 2
LayerCount: 2
Fore
SplineSet
53 509 m 258
 53 509 52 509 51 510 c 256
 50 511 50 513 51 514 c 258
 88 550 l 258
 89 552 91 552 92 550 c 256
 93 549 93 547 92 546 c 258
 55 510 l 258
 55 509 54 509 53 509 c 258
EndSplineSet
EndChar

StartChar: uniE0E2
Encoding: 138 57570 137
GlifName: uniE_0E_2
Width: 0
VWidth: 0
GlyphClass: 2
LayerCount: 2
Fore
SplineSet
127 496 m 258
 127 496 126 497 125 497 c 256
 124 498 124 500 125 501 c 258
 153 529 l 258
 154 530 156 530 157 529 c 256
 158 528 158 526 157 525 c 258
 129 497 l 257
 129 497 128 496 127 496 c 258
EndSplineSet
EndChar

StartChar: uniE0E3
Encoding: 139 57571 138
GlifName: uniE_0E_3
Width: 0
VWidth: 0
GlyphClass: 2
LayerCount: 2
Fore
SplineSet
127 465 m 258
 127 465 126 465 125 466 c 256
 124 467 124 469 125 470 c 258
 153 498 l 258
 154 499 156 499 157 498 c 256
 158 497 158 495 157 494 c 258
 129 466 l 258
 129 465 128 465 127 465 c 258
EndSplineSet
EndChar

StartChar: uniE0E4
Encoding: 140 57572 139
GlifName: uniE_0E_4
Width: 0
VWidth: 0
GlyphClass: 2
LayerCount: 2
Fore
SplineSet
84 477 m 258
 84 477 83 478 82 478 c 256
 81 479 81 481 82 482 c 258
 113 513 l 258
 114 514 116 514 117 513 c 256
 118 512 118 510 117 509 c 258
 86 478 l 257
 86 478 85 477 84 477 c 258
EndSplineSet
EndChar

StartChar: uniE0E5
Encoding: 141 57573 140
GlifName: uniE_0E_5
Width: 0
VWidth: 0
GlyphClass: 2
LayerCount: 2
Fore
SplineSet
17 412 m 258
 17 412 16 412 15 413 c 256
 14 414 14 416 15 417 c 258
 41 442 l 258
 42 444 44 444 45 442 c 256
 46 441 46 439 45 438 c 258
 19 413 l 258
 19 412 18 412 17 412 c 258
EndSplineSet
EndChar

StartChar: uniE0E6
Encoding: 142 57574 141
GlifName: uniE_0E_6
Width: 0
VWidth: 0
GlyphClass: 2
LayerCount: 2
Fore
SplineSet
17 389 m 258
 17 389 16 389 15 390 c 256
 14 391 14 393 15 394 c 258
 41 421 l 258
 42 422 44 422 45 421 c 256
 46 420 46 418 45 417 c 258
 19 390 l 258
 19 389 18 389 17 389 c 258
EndSplineSet
EndChar

StartChar: uniE0E7
Encoding: 143 57575 142
GlifName: uniE_0E_7
Width: 0
VWidth: 0
GlyphClass: 2
LayerCount: 2
Fore
SplineSet
14 366 m 258
 13 366 12 366 12 367 c 256
 10 368 10 370 11 371 c 258
 37 397 l 258
 38 399 40 399 41 398 c 256
 43 396 43 394 41 393 c 258
 16 367 l 258
 15 366 14 366 14 366 c 258
EndSplineSet
EndChar

StartChar: uniE0E8
Encoding: 144 57576 143
GlifName: uniE_0E_8
Width: 0
VWidth: 0
GlyphClass: 2
LayerCount: 2
Fore
SplineSet
9 341 m 258
 9 341 8 342 7 342 c 256
 6 343 6 345 7 346 c 258
 33 373 l 258
 34 374 36 374 37 373 c 256
 38 372 38 370 37 369 c 258
 11 342 l 257
 11 342 10 341 9 341 c 258
EndSplineSet
EndChar

StartChar: uniE0E9
Encoding: 145 57577 144
GlifName: uniE_0E_9
Width: 0
VWidth: 0
GlyphClass: 2
LayerCount: 2
Fore
SplineSet
51 297 m 258
 51 297 50 297 49 298 c 256
 48 299 48 301 49 302 c 258
 118 371 l 258
 119 372 121 372 122 371 c 256
 124 370 124 368 122 367 c 258
 53 298 l 258
 53 297 52 297 51 297 c 258
EndSplineSet
EndChar

StartChar: uniE0EA
Encoding: 146 57578 145
GlifName: uniE_0E_A_
Width: 0
VWidth: 0
GlyphClass: 2
LayerCount: 2
Fore
SplineSet
51 212 m 258
 51 212 50 212 49 213 c 256
 48 214 48 216 49 217 c 258
 118 286 l 258
 119 287 121 287 122 286 c 256
 124 285 124 283 122 282 c 258
 53 213 l 258
 53 212 52 212 51 212 c 258
EndSplineSet
EndChar

StartChar: uniE0EB
Encoding: 147 57579 146
GlifName: uniE_0E_B_
Width: 0
VWidth: 0
GlyphClass: 2
LayerCount: 2
Fore
SplineSet
31 179 m 258
 31 179 30 180 29 180 c 256
 28 181 28 183 29 184 c 258
 55 211 l 258
 56 212 58 212 59 211 c 256
 60 210 60 208 59 207 c 258
 33 180 l 257
 33 180 32 179 31 179 c 258
EndSplineSet
EndChar

StartChar: uniE0EC
Encoding: 148 57580 147
GlifName: uniE_0E_C_
Width: 0
VWidth: 0
GlyphClass: 2
LayerCount: 2
Fore
SplineSet
51 105 m 258
 51 105 50 105 49 106 c 256
 48 107 48 109 49 110 c 258
 118 179 l 258
 119 180 121 180 122 179 c 256
 124 178 124 176 122 175 c 258
 53 106 l 258
 53 105 52 105 51 105 c 258
EndSplineSet
EndChar

StartChar: uniE0ED
Encoding: 149 57581 148
GlifName: uniE_0E_D_
Width: 0
VWidth: 0
GlyphClass: 2
LayerCount: 2
Fore
SplineSet
16 65 m 258
 15 65 14 65 13 66 c 256
 12 67 12 69 13 70 c 258
 45 102 l 258
 47 103 49 103 50 102 c 256
 51 101 51 99 50 98 c 258
 18 66 l 258
 17 65 16 65 16 65 c 258
EndSplineSet
EndChar

StartChar: uniE0EE
Encoding: 150 57582 149
GlifName: uniE_0E_E_
Width: 0
VWidth: 0
GlyphClass: 2
LayerCount: 2
Fore
SplineSet
51 49 m 258
 50 49 49 49 48 50 c 256
 47 51 47 53 48 54 c 258
 80 86 l 258
 82 87 84 87 85 86 c 256
 86 85 86 83 85 82 c 258
 53 50 l 258
 52 49 51 49 51 49 c 258
EndSplineSet
EndChar

StartChar: uniE0EF
Encoding: 151 57583 150
GlifName: uniE_0E_F_
Width: 0
VWidth: 0
GlyphClass: 2
LayerCount: 2
Fore
SplineSet
16 30 m 258
 15 30 14 31 13 31 c 256
 12 32 12 34 13 35 c 258
 45 67 l 258
 47 69 49 69 50 67 c 256
 51 66 51 64 50 63 c 258
 18 31 l 258
 17 31 16 30 16 30 c 258
EndSplineSet
EndChar

StartChar: uniE0F0
Encoding: 152 57584 151
GlifName: uniE_0F_0
Width: 0
VWidth: 0
GlyphClass: 2
LayerCount: 2
Fore
SplineSet
51 15 m 258
 50 15 49 15 48 16 c 256
 47 17 47 19 48 20 c 258
 80 52 l 258
 82 53 84 53 85 52 c 256
 86 51 86 49 85 48 c 258
 53 16 l 258
 52 15 51 15 51 15 c 258
EndSplineSet
EndChar

StartChar: uniE0F1
Encoding: 153 57585 152
GlifName: uniE_0F_1
Width: 0
VWidth: 0
GlyphClass: 2
LayerCount: 2
Fore
SplineSet
16 -5 m 257
 16 -4 l 257
 15 -4 14 -4 13 -3 c 256
 12 -3 12 -3 12 -3 c 258
 12 -2 13 0 13 0 c 257
 45 32 l 257
 46 32 47 33 48 32 c 256
 49 31 50 31 50 29 c 257
 50 28 l 257
 18 -4 l 258
 17 -5 16 -5 16 -5 c 257
EndSplineSet
EndChar

StartChar: uniE140
Encoding: 154 57664 153
GlifName: uniE_140
Width: 0
VWidth: 0
GlyphClass: 2
LayerCount: 2
Fore
SplineSet
167 507 m 258
 183 507 l 258
 190 507 198 502 198 491 c 256
 198 487 197 483 194 481 c 256
 193 478 189 476 183 476 c 258
 167 476 l 258
 165 476 164 477 164 479 c 258
 164 504 l 258
 164 506 165 507 167 507 c 258
170 482 m 257
 183 482 l 258
 186 482 188 483 190 484 c 256
 191 486 192 488 192 491 c 256
 192 496 189 501 183 501 c 258
 170 501 l 257
 170 482 l 257
150 117 m 258
 150 174 l 258
 150 180 155 186 161 186 c 256
 167 186 172 180 172 174 c 258
 172 117 l 258
 172 111 167 106 161 106 c 256
 155 106 150 111 150 117 c 258
166 117 m 258
 166 174 l 258
 166 177 164 180 161 180 c 256
 158 180 156 177 156 174 c 258
 156 117 l 258
 156 114 158 112 161 112 c 256
 164 112 166 114 166 117 c 258
93 324 m 256
 117 324 135 305 135 282 c 256
 135 258 117 240 93 240 c 256
 70 240 51 258 51 282 c 256
 51 305 70 324 93 324 c 256
93 246 m 256
 113 246 129 262 129 282 c 256
 129 302 113 318 93 318 c 256
 73 318 57 302 57 282 c 256
 57 262 73 246 93 246 c 256
93 187 m 256
 117 187 135 168 135 145 c 256
 135 121 117 103 93 103 c 256
 70 103 51 121 51 145 c 256
 51 168 70 187 93 187 c 256
93 109 m 256
 113 109 129 125 129 145 c 256
 129 165 113 181 93 181 c 256
 73 181 57 165 57 145 c 256
 57 125 73 109 93 109 c 256
56 88 m 258
 69 86 l 258
 73 86 77 85 81 85 c 256
 84 85 86 85 88 84 c 256
 92 84 94 80 94 76 c 256
 94 71 91 68 86 67 c 256
 81 67 76 66 71 65 c 256
 63 64 59 63 55 60 c 256
 50 55 42 51 33 51 c 256
 30 51 27 52 25 53 c 256
 17 55 12 62 12 71 c 256
 12 81 18 88 26 90 c 256
 30 90 31 91 32 91 c 256
 37 91 43 90 48 89 c 256
 51 88 53 88 56 88 c 258
69 80 m 258
 56 82 l 258
 53 82 50 82 47 83 c 256
 42 84 37 85 32 85 c 256
 31 85 30 84 29 84 c 256
 27 84 17 76 17 71 c 256
 18 65 21 60 27 58 c 256
 29 58 31 57 33 57 c 256
 40 57 47 60 51 64 c 256
 56 69 62 70 68 71 c 256
 75 72 80 73 86 73 c 256
 87 73 88 74 88 76 c 256
 88 79 84 79 82 79 c 256
 76 79 72 80 69 80 c 258
78 59 m 256
 84 59 88 58 91 55 c 256
 93 53 94 50 94 46 c 256
 94 39 89 32 80 32 c 256
 71 34 59 36 59 36 c 258
 58 37 54 42 54 45 c 256
 54 46 57 54 61 56 c 258
 61 56 73 57 78 59 c 256
79 38 m 256
 85 38 88 41 88 46 c 256
 88 48 88 50 87 51 c 256
 85 53 82 53 80 53 c 256
 79 53 68 52 63 50 c 256
 61 49 60 48 60 46 c 256
 60 43 78 38 79 38 c 256
69 5 m 258
 56 3 l 258
 53 3 51 3 48 2 c 256
 43 1 37 0 32 0 c 256
 31 0 30 1 29 1 c 256
 18 1 12 10 12 18 c 256
 12 29 17 36 25 38 c 256
 27 39 30 40 33 40 c 256
 42 40 50 37 55 31 c 256
 59 28 63 27 69 26 c 256
 76 25 81 24 86 24 c 256
 91 23 94 20 94 16 c 256
 94 12 92 7 88 7 c 256
 86 6 84 6 83 6 c 256
 77 6 73 5 69 5 c 258
56 9 m 258
 69 11 l 258
 72 11 76 12 80 12 c 256
 84 12 85 12 87 13 c 256
 87 15 87 18 86 18 c 256
 80 18 75 19 70 20 c 256
 62 21 56 22 51 27 c 256
 47 31 40 34 33 34 c 256
 31 34 29 33 27 33 c 256
 21 31 18 26 17 20 c 256
 17 13 21 8 27 7 c 256
 30 7 31 6 32 6 c 256
 37 6 42 7 47 8 c 256
 50 9 53 9 56 9 c 258
46 227 m 258
 85 227 l 258
 90 227 92 224 93 222 c 256
 94 221 94 219 94 218 c 256
 94 214 92 210 90 208 c 256
 86 202 77 199 66 199 c 256
 57 199 51 200 46 203 c 256
 40 206 37 212 37 218 c 256
 38 224 42 227 46 227 c 258
85 221 m 258
 46 221 l 258
 45 221 44 220 43 218 c 256
 43 213 45 210 48 208 c 256
 53 206 59 205 66 205 c 256
 75 205 83 207 86 212 c 256
 87 214 88 218 88 220 c 257
 87 220 86 221 85 221 c 258
42 378 m 258
 42 345 l 258
 42 337 39 332 36 330 c 256
 33 326 28 324 24 324 c 256
 17 325 11 329 11 336 c 258
 11 371 l 258
 11 383 21 390 29 390 c 256
 37 390 42 385 42 378 c 258
17 371 m 258
 17 336 l 258
 17 332 21 330 24 330 c 256
 27 330 30 332 32 334 c 256
 35 336 36 340 36 345 c 258
 36 378 l 258
 36 384 30 384 29 384 c 256
 24 384 17 380 17 371 c 258
41 879 m 258
 41 873 l 258
 41 868 40 863 39 859 c 256
 36 851 29 847 22 847 c 256
 17 847 13 848 10 850 c 256
 4 855 2 862 1 868 c 258
 1 874 l 258
 1 881 2 886 4 890 c 258
 4 890 7 897 10 897 c 256
 14 897 18 896 21 896 c 256
 25 896 29 896 31 897 c 256
 31 900 37 895 37 893 c 256
 37 892 38 889 38 889 c 258
 40 886 40 882 41 879 c 258
7 877 m 258
 7 868 l 258
 8 862 10 857 13 855 c 256
 15 854 19 853 22 853 c 256
 27 853 31 856 33 861 c 256
 34 865 35 869 35 874 c 258
 35 879 l 258
 35 881 34 884 33 887 c 258
 33 887 32 889 31 891 c 256
 27 890 24 890 21 890 c 256
 18 890 14 890 11 891 c 257
 11 889 9 888 9 887 c 256
 8 885 7 881 7 877 c 258
21 901 m 256
 15 901 11 903 8 907 c 256
 4 912 2 920 2 929 c 256
 2 939 4 950 5 956 c 256
 5 963 11 998 20 998 c 256
 23 998 28 998 34 960 c 256
 35 960 35 958 35 957 c 256
 35 956 36 954 36 953 c 256
 37 946 39 937 39 928 c 256
 39 920 37 912 33 907 c 256
 30 903 26 901 21 901 c 256
12 957 m 256
 8 953 8 936 8 930 c 256
 8 922 9 915 13 911 c 256
 14 909 17 907 21 907 c 256
 24 907 27 908 29 911 c 256
 32 914 33 920 33 927 c 256
 33 938 30 950 29 956 c 256
 29 957 29 958 28 959 c 256
 26 975 23 987 21 991 c 257
 19 987 15 976 12 957 c 256
30 796 m 258
 30 801 l 258
 30 808 32 815 34 819 c 256
 37 825 43 828 48 828 c 256
 53 828 57 824 57 819 c 258
 57 780 l 258
 57 777 56 775 55 773 c 256
 53 772 51 771 49 771 c 256
 45 771 41 773 39 775 c 256
 33 778 30 786 30 796 c 258
36 801 m 258
 36 797 l 258
 36 788 38 782 42 780 c 256
 44 778 47 777 49 777 c 256
 51 778 51 778 51 780 c 258
 51 780 51 780 51 819 c 256
 51 821 50 822 48 822 c 256
 45 822 41 820 39 817 c 256
 37 813 36 807 36 801 c 258
82 840 m 257
 64 845 51 861 51 880 c 256
 51 904 70 923 93 923 c 256
 117 923 135 904 135 880 c 256
 135 861 122 844 104 839 c 257
 110 836 113 830 113 823 c 256
 113 812 104 803 93 803 c 256
 82 803 73 812 73 823 c 256
 73 830 76 836 82 840 c 257
93 809 m 256
 100 809 107 815 107 823 c 256
 107 831 100 837 93 837 c 256
 85 837 79 831 79 823 c 256
 79 815 85 809 93 809 c 256
93 917 m 256
 74 917 57 900 57 880 c 256
 57 861 74 844 93 844 c 256
 113 844 129 861 129 880 c 256
 129 900 113 917 93 917 c 256
93 866 m 256
 85 866 79 872 79 881 c 256
 79 889 85 895 93 895 c 256
 101 895 108 889 108 881 c 256
 108 872 101 866 93 866 c 256
93 889 m 256
 89 889 85 885 85 881 c 256
 85 876 89 872 93 872 c 256
 98 872 102 876 102 881 c 256
 102 885 98 889 93 889 c 256
158 515 m 258
 138 515 l 258
 136 515 135 516 135 518 c 256
 135 544 151 547 157 547 c 256
 160 547 162 547 162 547 c 258
 169 547 176 541 176 531 c 256
 176 527 174 523 171 520 c 256
 169 518 165 515 158 515 c 258
141 521 m 257
 158 521 l 258
 162 521 165 522 167 524 c 256
 169 526 170 528 170 531 c 256
 170 536 167 541 162 541 c 258
 157 541 l 258
 150 541 142 538 141 521 c 257
134 318 m 256
 124 318 118 327 118 336 c 256
 118 344 124 353 134 353 c 256
 147 353 166 343 166 336 c 256
 166 329 149 318 134 318 c 256
134 347 m 256
 127 347 124 341 124 336 c 256
 124 330 127 324 134 324 c 256
 147 324 159 333 160 336 c 256
 159 339 145 347 134 347 c 256
93 347 m 256
 70 347 51 365 51 389 c 256
 51 412 70 431 93 431 c 256
 117 431 135 412 135 389 c 256
 135 365 117 347 93 347 c 256
93 425 m 256
 73 425 57 409 57 389 c 256
 57 369 73 353 93 353 c 256
 113 353 129 369 129 389 c 256
 129 409 113 425 93 425 c 256
93 585 m 256
 70 585 51 603 51 627 c 256
 51 650 70 669 93 669 c 256
 117 669 135 650 135 627 c 256
 135 603 117 585 93 585 c 256
93 663 m 256
 73 663 57 647 57 627 c 256
 57 607 73 591 93 591 c 256
 113 591 129 607 129 627 c 256
 129 647 113 663 93 663 c 256
51 737 m 256
 51 760 70 779 93 779 c 256
 117 779 135 760 135 737 c 256
 135 714 117 695 93 695 c 256
 70 695 51 714 51 737 c 256
129 737 m 256
 129 757 113 773 93 773 c 256
 73 773 57 757 57 737 c 256
 57 717 73 701 93 701 c 256
 113 701 129 717 129 737 c 256
134 808 m 256
 147 808 166 798 166 791 c 256
 166 784 149 773 134 773 c 256
 124 773 118 782 118 791 c 256
 118 799 124 808 134 808 c 256
134 779 m 256
 147 779 159 788 160 791 c 256
 159 794 145 802 134 802 c 256
 127 802 124 796 124 791 c 256
 124 785 127 779 134 779 c 256
166 682 m 256
 166 675 149 664 134 664 c 256
 124 664 118 673 118 682 c 256
 118 690 124 699 134 699 c 256
 147 699 166 689 166 682 c 256
134 670 m 256
 147 670 159 679 160 682 c 256
 159 685 145 693 134 693 c 256
 127 693 124 687 124 682 c 256
 124 676 127 670 134 670 c 256
107 541 m 258
 118 534 l 258
 121 533 131 527 131 496 c 256
 131 493 130 492 128 492 c 256
 115 497 103 503 92 509 c 256
 87 511 84 516 84 522 c 256
 84 524 85 525 85 527 c 256
 87 534 93 542 101 542 c 256
 103 542 105 542 107 541 c 258
95 514 m 258
 125 500 l 257
 124 524 116 528 116 528 c 258
 116 529 115 529 101 536 c 256
 97 536 92 531 91 525 c 256
 91 524 90 523 90 522 c 256
 90 519 92 516 95 514 c 258
159 506 m 258
 159 484 l 258
 159 471 153 465 146 465 c 256
 141 465 135 470 135 484 c 258
 135 506 l 258
 135 507 136 509 138 509 c 258
 156 509 l 258
 157 509 159 507 159 506 c 258
141 503 m 257
 141 484 l 258
 141 475 144 471 146 471 c 256
 149 471 153 475 153 484 c 258
 153 503 l 257
 141 503 l 257
160 575 m 258
 160 571 l 258
 160 567 159 564 157 561 c 256
 154 557 150 555 146 555 c 258
 106 555 l 258
 99 555 95 559 95 563 c 256
 95 568 98 571 101 573 c 258
 143 585 l 258
 145 585 147 586 149 586 c 256
 154 586 158 582 160 575 c 258
106 561 m 258
 146 561 l 258
 148 561 151 562 152 565 c 256
 153 566 154 568 154 570 c 256
 152 580 150 580 149 580 c 256
 148 580 147 579 145 579 c 258
 145 579 145 579 103 567 c 256
 101 566 101 565 101 564 c 256
 101 562 103 561 106 561 c 258
12 405 m 258
 12 423 l 258
 12 432 21 440 38 443 c 256
 40 443 41 441 41 440 c 258
 41 412 l 258
 41 402 31 395 22 395 c 256
 16 395 12 399 12 405 c 258
35 412 m 258
 35 436 l 257
 24 434 18 429 18 423 c 258
 18 405 l 258
 18 402 19 401 22 401 c 256
 27 401 35 406 35 412 c 258
35 460 m 258
 152 460 l 258
 154 460 155 458 155 457 c 256
 155 455 154 454 152 454 c 258
 35 454 l 258
 33 454 32 455 32 457 c 256
 32 458 33 460 35 460 c 258
162 839 m 256
 156 839 152 846 148 859 c 256
 146 871 144 887 144 903 c 256
 144 920 146 935 148 947 c 256
 152 960 156 967 162 967 c 256
 168 967 172 960 175 947 c 256
 178 935 180 920 180 903 c 256
 180 887 178 871 175 859 c 256
 172 846 168 839 162 839 c 256
162 961 m 256
 158 961 150 941 150 903 c 256
 150 866 158 845 162 845 c 256
 166 845 174 866 174 903 c 256
 174 941 166 961 162 961 c 256
EndSplineSet
EndChar

StartChar: uniE141
Encoding: 155 57665 154
GlifName: uniE_141
Width: 0
VWidth: 0
GlyphClass: 2
LayerCount: 2
Fore
SplineSet
20 995 m 256
 27 995 31 965 31 958 c 256
 32 952 36 938 36 926 c 256
 36 914 32 904 21 904 c 256
 8 904 5 916 5 929 c 256
 5 941 8 955 9 958 c 256
 10 964 16 995 20 995 c 256
EndSplineSet
EndChar

StartChar: uniE142
Encoding: 156 57666 155
GlifName: uniE_142
Width: 0
VWidth: 0
GlyphClass: 2
LayerCount: 2
Fore
SplineSet
7 891 m 257
 7 891 l 257
 8 892 10 895 10 894 c 256
 13 893 16 893 20 893 c 256
 25 893 30 893 32 895 c 258
 32 895 35 888 35 888 c 258
 37 885 37 882 38 879 c 257
 38 874 l 257
 38 869 37 864 36 860 c 256
 34 854 28 850 22 850 c 256
 18 850 14 851 12 853 c 256
 7 856 5 862 4 868 c 257
 4 877 l 257
 4 882 6 886 7 891 c 257
EndSplineSet
EndChar

StartChar: uniE143
Encoding: 157 57667 156
GlifName: uniE_143
Width: 0
VWidth: 0
GlyphClass: 2
LayerCount: 2
Fore
SplineSet
82 840 m 257
 64 845 51 861 51 880 c 256
 51 904 70 923 93 923 c 256
 117 923 135 904 135 880 c 256
 135 861 122 844 104 839 c 257
 110 836 113 830 113 823 c 256
 113 812 104 803 93 803 c 256
 82 803 73 812 73 823 c 256
 73 830 76 836 82 840 c 257
EndSplineSet
EndChar

StartChar: uniE144
Encoding: 158 57668 157
GlifName: uniE_144
Width: 0
VWidth: 0
GlyphClass: 2
LayerCount: 2
Fore
SplineSet
162 839 m 256
 156 839 152 846 148 859 c 256
 146 871 144 887 144 903 c 256
 144 920 146 935 148 947 c 256
 152 960 156 967 162 967 c 256
 168 967 172 960 175 947 c 256
 178 935 180 920 180 903 c 256
 180 887 178 871 175 859 c 256
 172 846 168 839 162 839 c 256
EndSplineSet
EndChar

StartChar: uniE145
Encoding: 159 57669 158
GlifName: uniE_145
Width: 0
VWidth: 0
GlyphClass: 2
LayerCount: 2
Fore
SplineSet
54 780 m 258
 54 776 52 774 49 774 c 256
 46 774 43 776 41 777 c 256
 35 781 32 791 32 800 c 256
 32 807 34 814 36 818 c 256
 39 823 44 825 48 825 c 256
 52 825 54 823 54 819 c 258
 54 780 l 258
EndSplineSet
EndChar

StartChar: uniE146
Encoding: 160 57670 159
GlifName: uniE_146
Width: 0
VWidth: 0
GlyphClass: 2
LayerCount: 2
Fore
SplineSet
134 808 m 256
 147 808 166 798 166 791 c 256
 166 784 149 773 134 773 c 256
 124 773 118 782 118 791 c 256
 118 799 124 808 134 808 c 256
EndSplineSet
EndChar

StartChar: uniE147
Encoding: 161 57671 160
GlifName: uniE_147
Width: 0
VWidth: 0
GlyphClass: 2
LayerCount: 2
Fore
SplineSet
51 737 m 256
 51 760 70 779 93 779 c 256
 117 779 135 760 135 737 c 256
 135 714 117 695 93 695 c 256
 70 695 51 714 51 737 c 256
EndSplineSet
EndChar

StartChar: uniE148
Encoding: 162 57672 161
GlifName: uniE_148
Width: 0
VWidth: 0
GlyphClass: 2
LayerCount: 2
Fore
SplineSet
166 682 m 256
 166 675 149 664 134 664 c 256
 124 664 118 673 118 682 c 256
 118 690 124 699 134 699 c 256
 147 699 166 689 166 682 c 256
EndSplineSet
EndChar

StartChar: uniE149
Encoding: 163 57673 162
GlifName: uniE_149
Width: 0
VWidth: 0
GlyphClass: 2
LayerCount: 2
Fore
SplineSet
93 585 m 256
 70 585 51 603 51 627 c 256
 51 650 70 669 93 669 c 256
 117 669 135 650 135 627 c 256
 135 603 117 585 93 585 c 256
EndSplineSet
EndChar

StartChar: uniE14A
Encoding: 164 57674 163
GlifName: uniE_14A_
Width: 0
VWidth: 0
GlyphClass: 2
LayerCount: 2
Fore
SplineSet
106 558 m 258
 100 558 98 561 98 564 c 256
 98 566 99 569 102 570 c 258
 144 582 l 258
 146 582 147 583 148 583 c 256
 151 583 155 581 157 571 c 256
 157 563 151 558 146 558 c 256
 139 558 106 558 106 558 c 258
EndSplineSet
EndChar

StartChar: uniE14B
Encoding: 165 57675 164
GlifName: uniE_14B_
Width: 0
VWidth: 0
GlyphClass: 2
LayerCount: 2
Fore
SplineSet
138 518 m 257
 138 541 151 544 158 544 c 256
 161 544 162 544 162 544 c 258
 168 544 173 537 173 531 c 256
 173 524 168 518 158 518 c 258
 138 518 l 257
EndSplineSet
EndChar

StartChar: uniE14C
Encoding: 166 57676 165
GlifName: uniE_14C_
Width: 0
VWidth: 0
GlyphClass: 2
LayerCount: 2
Fore
SplineSet
107 541 m 258
 118 534 l 258
 121 533 131 527 131 496 c 256
 131 493 130 492 128 492 c 257
 115 497 103 503 92 509 c 256
 87 511 84 516 84 522 c 256
 84 524 85 525 85 527 c 256
 87 534 93 542 101 542 c 256
 103 542 105 542 107 541 c 258
EndSplineSet
EndChar

StartChar: uniE14D
Encoding: 167 57677 166
GlifName: uniE_14D_
Width: 0
VWidth: 0
GlyphClass: 2
LayerCount: 2
Fore
SplineSet
159 506 m 257
 159 484 l 258
 159 471 153 465 146 465 c 256
 141 465 135 470 135 484 c 258
 135 506 l 257
 135 507 136 509 138 509 c 258
 156 509 l 257
 157 509 159 507 159 506 c 257
EndSplineSet
EndChar

StartChar: uniE14E
Encoding: 168 57678 167
GlifName: uniE_14E_
Width: 0
VWidth: 0
GlyphClass: 2
LayerCount: 2
Fore
SplineSet
167 507 m 258
 183 507 l 258
 190 507 198 502 198 491 c 256
 198 487 197 483 194 481 c 257
 193 478 189 476 183 476 c 258
 167 476 l 258
 165 476 164 477 164 479 c 258
 164 504 l 258
 164 506 165 507 167 507 c 258
EndSplineSet
EndChar

StartChar: uniE14F
Encoding: 169 57679 168
GlifName: uniE_14F_
Width: 0
VWidth: 0
GlyphClass: 2
LayerCount: 2
Fore
SplineSet
12 405 m 258
 12 423 l 258
 12 432 21 440 38 443 c 256
 40 443 41 441 41 440 c 257
 41 412 l 258
 41 402 31 395 22 395 c 256
 16 395 12 399 12 405 c 258
EndSplineSet
EndChar

StartChar: uniE150
Encoding: 170 57680 169
GlifName: uniE_150
Width: 0
VWidth: 0
GlyphClass: 2
LayerCount: 2
Fore
SplineSet
14 371 m 258
 14 382 22 387 29 387 c 256
 34 387 39 384 39 378 c 258
 39 345 l 258
 39 333 31 327 24 327 c 256
 19 327 14 330 14 336 c 258
 14 371 l 258
EndSplineSet
EndChar

StartChar: uniE151
Encoding: 171 57681 170
GlifName: uniE_151
Width: 0
VWidth: 0
GlyphClass: 2
LayerCount: 2
Fore
SplineSet
93 347 m 256
 70 347 51 365 51 389 c 256
 51 412 70 431 93 431 c 256
 117 431 135 412 135 389 c 256
 135 365 117 347 93 347 c 256
EndSplineSet
EndChar

StartChar: uniE152
Encoding: 172 57682 171
GlifName: uniE_152
Width: 0
VWidth: 0
GlyphClass: 2
LayerCount: 2
Fore
SplineSet
134 318 m 256
 124 318 118 327 118 336 c 256
 118 344 124 353 134 353 c 256
 147 353 166 343 166 336 c 256
 166 329 149 318 134 318 c 256
EndSplineSet
EndChar

StartChar: uniE153
Encoding: 173 57683 172
GlifName: uniE_153
Width: 0
VWidth: 0
GlyphClass: 2
LayerCount: 2
Fore
SplineSet
93 324 m 256
 117 324 135 305 135 282 c 256
 135 258 117 240 93 240 c 256
 70 240 51 258 51 282 c 256
 51 305 70 324 93 324 c 256
EndSplineSet
EndChar

StartChar: uniE154
Encoding: 174 57684 173
GlifName: uniE_154
Width: 0
VWidth: 0
GlyphClass: 2
LayerCount: 2
Fore
SplineSet
85 224 m 258
 89 224 91 221 91 218 c 256
 91 215 89 212 88 210 c 256
 84 204 75 202 66 202 c 256
 59 202 52 203 47 206 c 256
 42 208 40 213 40 217 c 256
 40 221 42 224 46 224 c 258
 85 224 l 258
EndSplineSet
EndChar

StartChar: uniE155
Encoding: 175 57685 174
GlifName: uniE_155
Width: 0
VWidth: 0
GlyphClass: 2
LayerCount: 2
Fore
SplineSet
93 187 m 256
 117 187 135 168 135 145 c 256
 135 121 117 103 93 103 c 256
 70 103 51 121 51 145 c 256
 51 168 70 187 93 187 c 256
EndSplineSet
EndChar

StartChar: uniE156
Encoding: 176 57686 175
GlifName: uniE_156
Width: 0
VWidth: 0
GlyphClass: 2
LayerCount: 2
Fore
SplineSet
150 117 m 258
 150 174 l 258
 150 180 155 186 161 186 c 256
 167 186 172 180 172 174 c 258
 172 117 l 258
 172 111 167 106 161 106 c 256
 155 106 150 111 150 117 c 258
EndSplineSet
EndChar

StartChar: uniE157
Encoding: 177 57687 176
GlifName: uniE_157
Width: 0
VWidth: 0
GlyphClass: 2
LayerCount: 2
Fore
SplineSet
56 88 m 258
 69 86 l 258
 73 86 77 85 81 85 c 256
 84 85 86 85 88 84 c 257
 92 84 94 80 94 76 c 256
 94 71 91 68 86 67 c 256
 81 67 76 66 71 65 c 256
 63 64 59 63 55 60 c 256
 50 55 42 51 33 51 c 256
 30 51 27 52 25 53 c 256
 17 55 12 62 12 71 c 256
 12 81 18 88 26 90 c 257
 30 90 31 91 32 91 c 256
 37 91 43 90 48 89 c 256
 51 88 53 88 56 88 c 258
EndSplineSet
EndChar

StartChar: uniE158
Encoding: 178 57688 177
GlifName: uniE_158
Width: 0
VWidth: 0
GlyphClass: 2
LayerCount: 2
Fore
SplineSet
78 59 m 256
 84 59 88 58 91 55 c 256
 93 53 94 50 94 46 c 256
 94 39 89 32 80 32 c 256
 71 34 59 36 59 36 c 258
 58 37 54 42 54 45 c 256
 54 46 57 54 61 56 c 258
 61 56 73 57 78 59 c 256
EndSplineSet
EndChar

StartChar: uniE159
Encoding: 179 57689 178
GlifName: uniE_159
Width: 0
VWidth: 0
GlyphClass: 2
LayerCount: 2
Fore
SplineSet
69 5 m 258
 56 3 l 258
 53 3 51 3 48 2 c 256
 43 1 37 0 32 0 c 256
 31 0 30 1 29 1 c 256
 18 1 12 10 12 18 c 256
 12 29 17 36 25 38 c 256
 27 39 30 40 33 40 c 256
 42 40 50 37 55 31 c 257
 59 28 63 27 69 26 c 256
 76 25 81 24 86 24 c 256
 91 23 94 20 94 16 c 256
 94 12 92 7 88 7 c 257
 86 6 84 6 83 6 c 256
 77 6 73 5 69 5 c 258
EndSplineSet
EndChar

StartChar: uniE15A
Encoding: 180 57690 179
GlifName: uniE_15A_
Width: 0
VWidth: 0
GlyphClass: 2
LayerCount: 2
Fore
SplineSet
93 923 m 256
 117 923 135 904 135 880 c 256
 135 857 116 839 93 839 c 256
 70 839 51 857 51 880 c 256
 51 904 70 923 93 923 c 256
93 908 m 256
 78 908 66 895 66 880 c 256
 66 866 78 853 93 853 c 256
 108 853 120 866 120 880 c 256
 120 895 108 908 93 908 c 256
EndSplineSet
EndChar

StartChar: uniE15B
Encoding: 181 57691 180
GlifName: uniE_15B_
Width: 0
VWidth: 0
GlyphClass: 2
LayerCount: 2
Fore
SplineSet
93 779 m 256
 117 779 135 760 135 737 c 256
 135 714 117 695 93 695 c 256
 70 695 51 714 51 737 c 256
 51 760 70 779 93 779 c 256
93 764 m 256
 78 764 66 752 66 737 c 256
 66 722 78 710 93 710 c 256
 108 710 120 722 120 737 c 256
 120 752 108 764 93 764 c 256
EndSplineSet
EndChar

StartChar: uniE15C
Encoding: 182 57692 181
GlifName: uniE_15C_
Width: 0
VWidth: 0
GlyphClass: 2
LayerCount: 2
Fore
SplineSet
93 654 m 256
 78 654 66 642 66 627 c 256
 66 612 78 600 93 600 c 256
 108 600 120 612 120 627 c 256
 120 642 108 654 93 654 c 256
93 669 m 256
 117 669 135 650 135 627 c 256
 135 604 117 585 93 585 c 256
 70 585 51 604 51 627 c 256
 51 650 70 669 93 669 c 256
EndSplineSet
EndChar

StartChar: uniE15D
Encoding: 183 57693 182
GlifName: uniE_15D_
Width: 0
VWidth: 0
GlyphClass: 2
LayerCount: 2
Fore
SplineSet
93 416 m 256
 78 416 66 404 66 389 c 256
 66 374 78 362 93 362 c 256
 108 362 120 374 120 389 c 256
 120 404 108 416 93 416 c 256
93 431 m 256
 117 431 135 412 135 389 c 256
 135 366 117 347 93 347 c 256
 70 347 51 366 51 389 c 256
 51 412 70 431 93 431 c 256
EndSplineSet
EndChar

StartChar: uniE15E
Encoding: 184 57694 183
GlifName: uniE_15E_
Width: 0
VWidth: 0
GlyphClass: 2
LayerCount: 2
Fore
SplineSet
93 309 m 256
 78 309 66 297 66 282 c 256
 66 267 78 255 93 255 c 256
 108 255 120 267 120 282 c 256
 120 297 108 309 93 309 c 256
93 324 m 256
 117 324 135 305 135 282 c 256
 135 259 117 240 93 240 c 256
 70 240 51 259 51 282 c 256
 51 305 70 324 93 324 c 256
EndSplineSet
EndChar

StartChar: uniE15F
Encoding: 185 57695 184
GlifName: uniE_15F_
Width: 0
VWidth: 0
GlyphClass: 2
LayerCount: 2
Fore
SplineSet
93 187 m 256
 117 187 135 168 135 145 c 256
 135 122 117 103 93 103 c 256
 70 103 51 122 51 145 c 256
 51 168 70 187 93 187 c 256
93 172 m 256
 78 172 66 160 66 145 c 256
 66 130 78 118 93 118 c 256
 108 118 120 130 120 145 c 256
 120 160 108 172 93 172 c 256
EndSplineSet
EndChar

StartChar: uniE160
Encoding: 186 57696 185
GlifName: uniE_160
Width: 0
VWidth: 0
GlyphClass: 2
LayerCount: 2
Fore
SplineSet
113 823 m 256
 113 812 104 803 93 803 c 256
 81 803 73 812 73 823 c 256
 73 834 81 843 93 843 c 256
 104 843 113 834 113 823 c 256
EndSplineSet
EndChar

StartChar: uniE161
Encoding: 187 57697 186
GlifName: uniE_161
Width: 0
VWidth: 0
GlyphClass: 2
LayerCount: 2
Fore
SplineSet
93 695 m 257
 70 695 51 714 51 737 c 256
 51 760 70 779 93 779 c 257
 93 695 l 257
EndSplineSet
EndChar

StartChar: uniE162
Encoding: 188 57698 187
GlifName: uniE_162
Width: 0
VWidth: 0
GlyphClass: 2
LayerCount: 2
Fore
SplineSet
93 585 m 257
 70 585 51 603 51 627 c 256
 51 650 70 669 93 669 c 257
 93 585 l 257
EndSplineSet
EndChar

StartChar: uniE163
Encoding: 189 57699 188
GlifName: uniE_163
Width: 0
VWidth: 0
GlyphClass: 2
LayerCount: 2
Fore
SplineSet
93 347 m 257
 70 347 51 365 51 389 c 256
 51 412 70 431 93 431 c 257
 93 347 l 257
EndSplineSet
EndChar

StartChar: uniE164
Encoding: 190 57700 189
GlifName: uniE_164
Width: 0
VWidth: 0
GlyphClass: 2
LayerCount: 2
Fore
SplineSet
93 240 m 257
 70 240 51 258 51 282 c 256
 51 305 70 324 93 324 c 257
 93 240 l 257
EndSplineSet
EndChar

StartChar: uniE165
Encoding: 191 57701 190
GlifName: uniE_165
Width: 0
VWidth: 0
GlyphClass: 2
LayerCount: 2
Fore
SplineSet
93 103 m 257
 70 103 51 121 51 145 c 256
 51 168 70 187 93 187 c 257
 93 103 l 257
EndSplineSet
EndChar

StartChar: uniE166
Encoding: 192 57702 191
GlifName: uniE_166
Width: 0
VWidth: 0
GlyphClass: 2
LayerCount: 2
Fore
SplineSet
93 695 m 257
 93 779 l 257
 117 779 135 760 135 737 c 256
 135 714 117 695 93 695 c 257
EndSplineSet
EndChar

StartChar: uniE167
Encoding: 193 57703 192
GlifName: uniE_167
Width: 0
VWidth: 0
GlyphClass: 2
LayerCount: 2
Fore
SplineSet
93 585 m 257
 93 669 l 257
 117 669 135 650 135 627 c 256
 135 603 117 585 93 585 c 257
EndSplineSet
EndChar

StartChar: uniE168
Encoding: 194 57704 193
GlifName: uniE_168
Width: 0
VWidth: 0
GlyphClass: 2
LayerCount: 2
Fore
SplineSet
93 347 m 257
 93 431 l 257
 117 431 135 412 135 389 c 256
 135 365 117 347 93 347 c 257
EndSplineSet
EndChar

StartChar: uniE169
Encoding: 195 57705 194
GlifName: uniE_169
Width: 0
VWidth: 0
GlyphClass: 2
LayerCount: 2
Fore
SplineSet
93 240 m 257
 93 324 l 257
 117 324 135 305 135 282 c 256
 135 258 117 240 93 240 c 257
EndSplineSet
EndChar

StartChar: uniE16A
Encoding: 196 57706 195
GlifName: uniE_16A_
Width: 0
VWidth: 0
GlyphClass: 2
LayerCount: 2
Fore
SplineSet
93 103 m 257
 93 187 l 257
 117 187 135 168 135 145 c 256
 135 121 117 103 93 103 c 257
EndSplineSet
EndChar

StartChar: uniE16B
Encoding: 197 57707 196
GlifName: uniE_16B_
Width: 0
VWidth: 0
GlyphClass: 2
LayerCount: 2
Fore
SplineSet
74 700 m 257
 60 707 51 721 51 737 c 256
 51 753 60 767 74 774 c 257
 74 700 l 257
EndSplineSet
EndChar

StartChar: uniE16C
Encoding: 198 57708 197
GlifName: uniE_16C_
Width: 0
VWidth: 0
GlyphClass: 2
LayerCount: 2
Fore
SplineSet
74 589 m 257
 60 596 51 610 51 627 c 256
 51 643 60 657 74 664 c 257
 74 589 l 257
EndSplineSet
EndChar

StartChar: uniE16D
Encoding: 199 57709 198
GlifName: uniE_16D_
Width: 0
VWidth: 0
GlyphClass: 2
LayerCount: 2
Fore
SplineSet
74 351 m 257
 60 358 51 372 51 389 c 256
 51 405 60 419 74 426 c 257
 74 351 l 257
EndSplineSet
EndChar

StartChar: uniE16E
Encoding: 200 57710 199
GlifName: uniE_16E_
Width: 0
VWidth: 0
GlyphClass: 2
LayerCount: 2
Fore
SplineSet
74 244 m 257
 60 251 51 265 51 282 c 256
 51 298 60 312 74 319 c 257
 74 244 l 257
EndSplineSet
EndChar

StartChar: uniE16F
Encoding: 201 57711 200
GlifName: uniE_16F_
Width: 0
VWidth: 0
GlyphClass: 2
LayerCount: 2
Fore
SplineSet
74 107 m 257
 60 114 51 128 51 145 c 256
 51 161 60 175 74 182 c 257
 74 107 l 257
EndSplineSet
EndChar

StartChar: uniE170
Encoding: 202 57712 201
GlifName: uniE_170
Width: 0
VWidth: 0
GlyphClass: 2
LayerCount: 2
Fore
SplineSet
113 700 m 257
 113 774 l 257
 126 767 135 753 135 737 c 256
 135 721 126 707 113 700 c 257
EndSplineSet
EndChar

StartChar: uniE171
Encoding: 203 57713 202
GlifName: uniE_171
Width: 0
VWidth: 0
GlyphClass: 2
LayerCount: 2
Fore
SplineSet
113 590 m 257
 113 664 l 257
 126 657 135 643 135 627 c 256
 135 610 126 597 113 590 c 257
EndSplineSet
EndChar

StartChar: uniE172
Encoding: 204 57714 203
GlifName: uniE_172
Width: 0
VWidth: 0
GlyphClass: 2
LayerCount: 2
Fore
SplineSet
113 352 m 257
 113 426 l 257
 126 419 135 405 135 389 c 256
 135 372 126 359 113 352 c 257
EndSplineSet
EndChar

StartChar: uniE173
Encoding: 205 57715 204
GlifName: uniE_173
Width: 0
VWidth: 0
GlyphClass: 2
LayerCount: 2
Fore
SplineSet
113 245 m 257
 113 319 l 257
 126 312 135 298 135 282 c 256
 135 265 126 252 113 245 c 257
EndSplineSet
EndChar

StartChar: uniE174
Encoding: 206 57716 205
GlifName: uniE_174
Width: 0
VWidth: 0
GlyphClass: 2
LayerCount: 2
Fore
SplineSet
113 108 m 257
 113 182 l 257
 126 175 135 161 135 145 c 256
 135 128 126 115 113 108 c 257
EndSplineSet
EndChar

StartChar: uniE175
Encoding: 207 57717 206
GlifName: uniE_175
Width: 0
VWidth: 0
GlyphClass: 2
LayerCount: 2
Fore
SplineSet
-5 919 m 258
 -5 919 -6 919 -7 920 c 256
 -8 921 -8 923 -7 924 c 258
 41 972 l 258
 42 973 44 973 45 972 c 256
 47 971 47 969 45 968 c 258
 -3 920 l 258
 -3 919 -4 919 -5 919 c 258
EndSplineSet
EndChar

StartChar: uniE176
Encoding: 208 57718 207
GlifName: uniE_176
Width: 0
VWidth: 0
GlyphClass: 2
LayerCount: 2
Fore
SplineSet
-3 844 m 258
 -4 844 -5 844 -6 845 c 256
 -7 846 -7 848 -6 849 c 258
 42 896 l 258
 43 898 45 898 46 896 c 256
 47 895 47 893 46 892 c 258
 -1 845 l 258
 -2 844 -3 844 -3 844 c 258
EndSplineSet
EndChar

StartChar: uniE177
Encoding: 209 57719 208
GlifName: uniE_177
Width: 0
VWidth: 0
GlyphClass: 2
LayerCount: 2
Fore
SplineSet
71 800 m 256
 70 800 69 801 69 801 c 258
 68 802 68 804 69 805 c 258
 112 843 l 258
 113 844 115 844 116 843 c 256
 117 842 117 840 116 839 c 258
 73 801 l 258
 73 800 72 800 71 800 c 256
51 836 m 258
 51 836 50 837 49 837 c 256
 48 838 48 840 49 841 c 258
 134 926 l 258
 135 927 137 927 138 926 c 256
 139 925 139 923 138 922 c 258
 53 837 l 257
 53 837 52 836 51 836 c 258
EndSplineSet
EndChar

StartChar: uniE178
Encoding: 210 57720 209
GlifName: uniE_178
Width: 0
VWidth: 0
GlyphClass: 2
LayerCount: 2
Fore
SplineSet
137 880 m 258
 136 880 135 880 134 881 c 256
 133 882 133 884 134 885 c 258
 184 935 l 258
 186 936 188 936 189 935 c 256
 190 934 190 932 189 931 c 258
 139 881 l 258
 138 880 137 880 137 880 c 258
EndSplineSet
EndChar

StartChar: uniE179
Encoding: 211 57721 210
GlifName: uniE_179
Width: 0
VWidth: 0
GlyphClass: 2
LayerCount: 2
Fore
SplineSet
67 777 m 258
 66 777 65 777 64 778 c 258
 21 821 l 258
 20 822 20 824 21 825 c 256
 23 826 25 826 26 825 c 258
 69 782 l 258
 70 781 70 779 69 778 c 256
 68 777 67 777 67 777 c 258
EndSplineSet
EndChar

StartChar: uniE17A
Encoding: 212 57722 211
GlifName: uniE_17A_
Width: 0
VWidth: 0
GlyphClass: 2
LayerCount: 2
Fore
SplineSet
160 767 m 256
 159 767 158 767 158 768 c 258
 118 808 l 258
 117 809 117 811 118 812 c 256
 119 813 121 813 122 812 c 258
 162 772 l 258
 163 771 163 769 162 768 c 256
 161 767 161 767 160 767 c 256
EndSplineSet
EndChar

StartChar: uniE17B
Encoding: 213 57723 212
GlifName: uniE_17B_
Width: 0
VWidth: 0
GlyphClass: 2
LayerCount: 2
Fore
SplineSet
54 693 m 258
 53 693 52 693 51 694 c 256
 50 695 50 697 51 698 c 258
 129 776 l 258
 131 777 133 777 134 776 c 256
 135 775 135 773 134 772 c 258
 56 694 l 258
 55 693 54 693 54 693 c 258
EndSplineSet
EndChar

StartChar: uniE17C
Encoding: 214 57724 213
GlifName: uniE_17C_
Width: 0
VWidth: 0
GlyphClass: 2
LayerCount: 2
Fore
SplineSet
160 657 m 256
 159 657 158 657 158 658 c 258
 118 698 l 258
 117 699 117 701 118 702 c 256
 119 703 121 703 122 702 c 258
 162 662 l 258
 163 661 163 659 162 658 c 256
 161 657 161 657 160 657 c 256
EndSplineSet
EndChar

StartChar: uniE17D
Encoding: 215 57725 214
GlifName: uniE_17D_
Width: 0
VWidth: 0
GlyphClass: 2
LayerCount: 2
Fore
SplineSet
54 583 m 258
 53 583 52 583 51 584 c 256
 50 585 50 587 51 588 c 258
 129 666 l 258
 131 667 133 667 134 666 c 256
 135 665 135 663 134 662 c 258
 56 584 l 258
 55 583 54 583 54 583 c 258
EndSplineSet
EndChar

StartChar: uniE17E
Encoding: 216 57726 215
GlifName: uniE_17E_
Width: 0
VWidth: 0
GlyphClass: 2
LayerCount: 2
Fore
SplineSet
149 548 m 256
 148 548 147 548 147 549 c 258
 112 584 l 258
 111 585 111 587 112 588 c 256
 113 589 115 589 116 588 c 258
 151 553 l 258
 152 552 152 550 151 549 c 256
 150 548 150 548 149 548 c 256
EndSplineSet
EndChar

StartChar: uniE17F
Encoding: 217 57727 216
GlifName: uniE_17F_
Width: 0
VWidth: 0
GlyphClass: 2
LayerCount: 2
Fore
SplineSet
137 509 m 258
 136 509 135 509 134 510 c 256
 133 511 133 513 134 514 c 258
 174 554 l 258
 175 555 177 555 178 554 c 256
 180 553 180 551 178 550 c 258
 139 510 l 258
 138 509 137 509 137 509 c 258
EndSplineSet
EndChar

StartChar: uniE180
Encoding: 218 57728 217
GlifName: uniE_180
Width: 0
VWidth: 0
GlyphClass: 2
LayerCount: 2
Fore
SplineSet
88 498 m 256
 87 498 86 498 86 499 c 256
 85 500 85 502 86 503 c 258
 123 540 l 258
 124 542 126 542 127 540 c 256
 129 539 129 537 127 536 c 258
 90 499 l 258
 89 498 89 498 88 498 c 256
EndSplineSet
EndChar

StartChar: uniE181
Encoding: 219 57729 218
GlifName: uniE_181
Width: 0
VWidth: 0
GlyphClass: 2
LayerCount: 2
Fore
SplineSet
127 468 m 258
 127 468 126 468 125 469 c 256
 124 470 124 472 125 473 c 258
 163 511 l 258
 164 512 166 512 167 511 c 256
 168 510 168 508 167 507 c 258
 129 469 l 258
 129 468 128 468 127 468 c 258
EndSplineSet
EndChar

StartChar: uniE182
Encoding: 220 57730 219
GlifName: uniE_182
Width: 0
VWidth: 0
GlyphClass: 2
LayerCount: 2
Fore
SplineSet
160 467 m 256
 159 467 158 468 158 468 c 258
 157 469 157 471 158 472 c 258
 196 510 l 258
 197 512 199 512 200 510 c 256
 201 509 201 507 200 506 c 258
 162 468 l 258
 161 468 161 467 160 467 c 256
EndSplineSet
EndChar

StartChar: uniE183
Encoding: 221 57731 220
GlifName: uniE_183
Width: 0
VWidth: 0
GlyphClass: 2
LayerCount: 2
Fore
SplineSet
6 394 m 257
 6 394 5 394 4 394 c 256
 3 396 3 397 4 399 c 257
 43 437 l 257
 44 438 46 438 47 437 c 256
 48 436 48 434 47 433 c 257
 9 394 l 257
 8 394 7 394 6 394 c 257
 6 394 l 257
EndSplineSet
EndChar

StartChar: uniE184
Encoding: 222 57732 221
GlifName: uniE_184
Width: 0
VWidth: 0
GlyphClass: 2
LayerCount: 2
Fore
SplineSet
8 337 m 256
 7 337 6 337 6 338 c 256
 5 339 5 341 6 342 c 258
 43 379 l 258
 44 380 46 380 47 379 c 256
 48 378 48 376 47 375 c 258
 10 338 l 258
 9 337 9 337 8 337 c 256
EndSplineSet
EndChar

StartChar: uniE185
Encoding: 223 57733 222
GlifName: uniE_185
Width: 0
VWidth: 0
GlyphClass: 2
LayerCount: 2
Fore
SplineSet
54 347 m 258
 53 347 52 347 51 348 c 256
 50 349 50 351 51 352 c 258
 129 430 l 258
 131 431 133 431 134 430 c 256
 135 429 135 427 134 426 c 258
 56 348 l 258
 55 347 54 347 54 347 c 258
EndSplineSet
EndChar

StartChar: uniE186
Encoding: 224 57734 223
GlifName: uniE_186
Width: 0
VWidth: 0
GlyphClass: 2
LayerCount: 2
Fore
SplineSet
160 312 m 256
 159 312 158 312 158 313 c 258
 118 352 l 258
 117 353 117 355 118 356 c 256
 119 358 121 358 122 356 c 258
 162 317 l 258
 163 316 163 314 162 313 c 256
 161 312 161 312 160 312 c 256
EndSplineSet
EndChar

StartChar: uniE187
Encoding: 225 57735 224
GlifName: uniE_187
Width: 0
VWidth: 0
GlyphClass: 2
LayerCount: 2
Fore
SplineSet
54 235 m 258
 53 235 52 235 51 236 c 256
 50 237 50 239 51 240 c 258
 129 318 l 258
 131 319 133 319 134 318 c 256
 135 317 135 315 134 314 c 258
 56 236 l 258
 55 235 54 235 54 235 c 258
EndSplineSet
EndChar

StartChar: uniE188
Encoding: 226 57736 225
GlifName: uniE_188
Width: 0
VWidth: 0
GlyphClass: 2
LayerCount: 2
Fore
SplineSet
44 190 m 257
 44 190 43 190 42 190 c 256
 41 192 41 193 42 195 c 257
 83 235 l 257
 84 236 86 236 87 235 c 256
 88 234 88 232 87 231 c 257
 47 190 l 257
 46 190 45 190 44 190 c 257
 44 190 l 257
EndSplineSet
EndChar

StartChar: uniE189
Encoding: 227 57737 226
GlifName: uniE_189
Width: 0
VWidth: 0
GlyphClass: 2
LayerCount: 2
Fore
SplineSet
54 102 m 258
 53 102 52 102 51 103 c 256
 50 104 50 106 51 107 c 258
 129 185 l 258
 131 186 133 186 134 185 c 256
 135 184 135 182 134 181 c 258
 56 103 l 258
 55 102 54 102 54 102 c 258
EndSplineSet
EndChar

StartChar: uniE18A
Encoding: 228 57738 227
GlifName: uniE_18A_
Width: 0
VWidth: 0
GlyphClass: 2
LayerCount: 2
Fore
SplineSet
138 124 m 257
 138 124 137 124 136 124 c 256
 135 126 135 127 136 129 c 257
 177 170 l 257
 178 171 180 171 182 170 c 256
 183 168 183 167 182 165 c 257
 141 124 l 257
 140 124 139 124 138 124 c 257
 138 124 l 257
EndSplineSet
EndChar

StartChar: uniE18B
Encoding: 229 57739 228
GlifName: uniE_18B_
Width: 0
VWidth: 0
GlyphClass: 2
LayerCount: 2
Fore
SplineSet
15 43 m 256
 14 43 13 43 13 44 c 256
 12 45 12 47 13 48 c 258
 59 94 l 258
 60 95 62 95 63 94 c 256
 64 93 64 91 63 90 c 258
 17 44 l 258
 16 43 16 43 15 43 c 256
EndSplineSet
EndChar

StartChar: uniE18C
Encoding: 230 57740 229
GlifName: uniE_18C_
Width: 0
VWidth: 0
GlyphClass: 2
LayerCount: 2
Fore
SplineSet
58 26 m 257
 58 26 57 26 56 26 c 256
 55 28 55 29 56 31 c 257
 93 67 l 257
 94 68 96 68 97 67 c 256
 98 66 98 64 97 63 c 257
 61 26 l 257
 60 26 59 26 58 26 c 257
 58 26 l 257
EndSplineSet
EndChar

StartChar: uniE18D
Encoding: 231 57741 230
GlifName: uniE_18D_
Width: 0
VWidth: 0
GlyphClass: 2
LayerCount: 2
Fore
SplineSet
11 -1 m 256
 10 -1 9 -1 9 0 c 256
 8 1 8 3 9 4 c 258
 50 45 l 258
 51 46 53 46 54 45 c 256
 55 44 55 42 54 41 c 258
 13 0 l 258
 12 -1 12 -1 11 -1 c 256
EndSplineSet
EndChar

StartChar: uniE1E0
Encoding: 232 57824 231
GlifName: uniE_1E_0
Width: 0
VWidth: 0
GlyphClass: 2
LayerCount: 2
Fore
SplineSet
567 598 m 256
 562 598 552 600 547 611 c 257
 492 594 l 257
 492 576 501 563 519 563 c 256
 536 563 552 571 565 578 c 256
 566 578 568 579 569 579 c 256
 577 583 585 586 592 591 c 257
 585 603 l 257
 581 603 572 598 567 598 c 256
486 595 m 256
 486 596 487 598 488 598 c 258
 548 618 l 258
 549 618 551 617 551 616 c 256
 555 606 563 604 567 604 c 256
 569 604 570 605 572 605 c 256
 580 608 585 610 585 610 c 258
 586 610 595 598 598 592 c 257
 598 582 576 577 571 574 c 256
 556 567 539 557 519 557 c 256
 496 557 486 575 486 595 c 256
478 633 m 256
 478 627 481 620 484 614 c 256
 484 613 485 612 485 611 c 258
 540 628 l 257
 540 632 l 258
 540 645 547 651 556 653 c 257
 560 655 564 656 566 656 c 257
 565 671 l 257
 556 670 547 669 540 667 c 256
 538 667 537 666 535 666 c 256
 515 663 478 656 478 633 c 256
472 633 m 256
 472 661 508 665 530 671 c 256
 531 671 533 672 534 672 c 256
 536 672 537 673 539 673 c 256
 548 675 558 677 568 677 c 256
 569 677 570 675 571 674 c 258
 573 654 l 258
 573 650 567 650 557 648 c 256
 548 645 546 638 546 632 c 258
 546 627 l 258
 546 625 545 624 544 623 c 258
 484 604 l 258
 482 604 481 605 481 606 c 256
 477 614 472 622 472 633 c 256
462 832 m 257
 466 835 472 838 472 845 c 256
 472 847 466 855 461 855 c 256
 457 855 416 845 391 839 c 256
 389 838 388 837 388 835 c 256
 388 834 389 832 391 832 c 256
 399 832 418 832 430 831 c 256
 431 830 433 830 435 830 c 256
 439 829 443 829 446 829 c 256
 452 829 457 830 462 832 c 257
382 834 m 257
 382 840 385 843 390 845 c 257
 396 846 455 861 461 861 c 256
 470 861 477 856 478 848 c 257
 478 832 463 823 446 823 c 256
 442 823 438 823 434 824 c 256
 432 824 431 824 429 825 c 256
 418 826 399 826 391 826 c 256
 387 826 383 830 382 834 c 257
433 755 m 256
 447 755 458 766 458 780 c 256
 458 794 447 806 433 806 c 256
 419 806 407 794 407 780 c 256
 407 766 419 755 433 755 c 256
433 749 m 256
 415 749 401 763 401 780 c 256
 401 798 415 812 433 812 c 256
 450 812 464 798 464 780 c 256
 464 763 450 749 433 749 c 256
433 928 m 256
 419 928 407 916 407 902 c 256
 407 888 419 877 433 877 c 256
 447 877 458 888 458 902 c 256
 458 916 447 928 433 928 c 256
433 934 m 256
 450 934 464 919 464 902 c 256
 464 885 450 871 433 871 c 256
 415 871 401 885 401 902 c 256
 401 919 415 934 433 934 c 256
376 964 m 258
 400 964 l 258
 405 964 409 962 414 959 c 256
 421 956 428 952 438 952 c 256
 447 952 464 959 464 971 c 256
 464 980 459 981 454 982 c 257
 454 982 454 982 377 982 c 256
 369 982 366 977 366 973 c 256
 366 969 369 964 376 964 c 258
438 946 m 256
 422 946 413 958 400 958 c 258
 376 958 l 258
 365 958 360 966 360 973 c 256
 360 980 366 988 377 988 c 258
 453 988 l 257
 464 985 470 982 470 971 c 256
 470 957 453 946 438 946 c 256
451 686 m 256
 451 700 440 711 426 711 c 256
 412 711 401 700 401 686 c 256
 401 672 412 661 426 661 c 256
 440 661 451 672 451 686 c 256
457 686 m 256
 457 669 443 655 426 655 c 256
 409 655 395 669 395 686 c 256
 395 703 409 717 426 717 c 256
 443 717 457 703 457 686 c 256
348 699 m 257
 348 677 l 257
 384 677 l 258
 386 677 387 676 387 674 c 256
 392 658 408 646 425 646 c 256
 447 646 465 664 465 686 c 256
 465 708 447 726 425 726 c 256
 409 726 394 716 388 701 c 256
 388 699 386 699 385 699 c 258
 348 699 l 257
382 671 m 257
 345 671 l 258
 343 671 342 672 342 674 c 258
 342 702 l 258
 342 703 343 705 345 705 c 258
 383 705 l 257
 390 721 407 732 425 732 c 256
 451 732 471 712 471 686 c 256
 471 661 451 640 425 640 c 256
 406 640 389 652 382 671 c 257
181 768 m 256
 183 757 192 749 206 749 c 256
 216 749 228 752 237 755 c 256
 240 755 243 756 245 756 c 256
 259 759 288 763 288 779 c 258
 288 983 l 257
 274 983 l 257
 275 960 275 817 275 807 c 256
 275 797 272 794 268 792 c 257
 257 792 243 789 232 789 c 258
 215 789 l 258
 200 789 181 784 181 768 c 256
247 750 m 256
 244 750 241 749 238 749 c 256
 228 746 218 743 206 743 c 256
 190 743 177 753 175 767 c 257
 175 776 177 781 181 784 c 256
 189 793 207 795 215 795 c 258
 232 795 l 258
 250 795 261 796 263 796 c 256
 268 798 269 803 269 807 c 256
 269 818 268 984 268 986 c 256
 268 987 270 989 271 989 c 258
 291 989 l 258
 293 989 294 988 294 986 c 258
 294 779 l 258
 294 757 265 753 247 750 c 256
198 727 m 256
 193 727 180 724 180 714 c 256
 182 704 191 699 201 695 c 258
 213 689 l 258
 217 686 220 682 220 669 c 256
 220 658 219 595 219 580 c 257
 233 580 l 257
 233 691 l 257
 231 710 217 727 198 727 c 256
239 691 m 258
 239 577 l 258
 239 575 237 574 236 574 c 258
 216 574 l 258
 214 574 213 576 213 577 c 256
 213 578 214 656 214 669 c 256
 214 680 211 682 210 684 c 256
 209 684 202 688 199 690 c 256
 187 694 176 701 174 714 c 256
 174 727 187 733 197 733 c 256
 219 733 239 712 239 691 c 258
152 660 m 256
 152 650 163 641 176 641 c 256
 189 641 200 650 200 660 c 256
 200 671 189 680 176 680 c 256
 163 680 152 671 152 660 c 256
146 660 m 256
 146 674 160 686 176 686 c 256
 192 686 206 674 206 660 c 256
 206 647 192 635 176 635 c 256
 160 635 146 647 146 660 c 256
241 844 m 258
 241 983 l 257
 228 983 l 257
 228 868 l 258
 228 855 225 851 222 849 c 258
 210 842 l 257
 200 838 192 833 189 823 c 256
 189 814 197 810 206 810 c 256
 222 810 241 828 241 844 c 258
206 804 m 256
 197 804 183 808 183 821 c 256
 184 830 188 837 194 841 c 256
 198 842 213 853 218 853 c 257
 218 854 222 863 222 868 c 258
 222 986 l 258
 222 988 224 989 225 989 c 258
 244 989 l 258
 246 989 247 988 247 986 c 258
 247 847 l 258
 247 823 228 804 206 804 c 256
184 856 m 256
 199 856 202 869 202 883 c 258
 202 983 l 257
 190 983 l 257
 190 909 l 258
 190 897 186 887 179 880 c 256
 176 877 174 871 174 866 c 256
 174 858 178 856 184 856 c 256
184 850 m 256
 174 850 169 855 168 862 c 256
 168 864 167 865 167 867 c 256
 167 874 171 881 175 884 c 256
 181 890 184 899 184 909 c 258
 184 986 l 258
 184 988 186 989 187 989 c 258
 205 989 l 258
 206 989 208 988 208 986 c 258
 208 883 l 258
 208 865 203 850 184 850 c 256
89 983 m 257
 89 895 l 258
 89 880 94 873 101 866 c 256
 102 865 112 856 115 850 c 256
 122 837 134 817 141 817 c 256
 146 817 150 822 152 828 c 257
 152 832 l 258
 152 850 139 857 128 865 c 256
 125 866 123 868 121 869 c 256
 117 871 112 873 108 877 c 256
 102 882 101 894 101 899 c 258
 101 983 l 257
 89 983 l 257
141 811 m 256
 130 811 110 844 110 847 c 256
 99 863 83 867 83 895 c 258
 83 986 l 258
 83 988 84 989 86 989 c 258
 104 989 l 258
 106 989 107 988 107 986 c 258
 107 899 l 258
 107 892 109 884 112 881 c 257
 131 870 l 257
 143 862 158 854 158 833 c 256
 158 822 152 811 141 811 c 256
77 822 m 256
 77 821 78 820 78 819 c 256
 81 815 84 810 88 808 c 256
 88 807 91 807 91 807 c 257
 98 807 102 816 102 824 c 256
 102 842 72 866 70 868 c 256
 67 871 64 879 64 886 c 258
 64 983 l 257
 51 983 l 257
 51 882 l 258
 51 861 65 837 77 822 c 256
91 801 m 256
 88 801 86 802 85 802 c 256
 77 806 72 817 68 824 c 256
 58 842 45 861 45 882 c 258
 45 986 l 258
 45 988 47 989 48 989 c 258
 67 989 l 258
 69 989 70 988 70 986 c 258
 70 886 l 258
 70 879 73 873 74 873 c 256
 76 871 90 857 102 842 c 256
 106 838 108 830 108 823 c 256
 108 812 101 801 91 801 c 256
48 674 m 256
 48 685 51 691 51 699 c 257
 56 717 l 258
 60 727 64 738 64 748 c 256
 64 758 58 767 46 769 c 257
 36 769 29 757 26 736 c 256
 26 733 25 730 25 727 c 256
 25 698 39 649 49 632 c 257
 50 628 52 627 52 627 c 257
 53 628 53 630 53 632 c 256
 53 633 48 662 48 674 c 256
59 636 m 257
 59 632 l 258
 59 626 58 621 52 621 c 256
 49 621 46 624 43 629 c 256
 33 647 19 697 19 727 c 256
 19 731 20 734 20 737 c 256
 23 761 33 775 46 775 c 258
 51 775 l 257
 63 771 70 760 70 747 c 256
 70 745 69 742 69 740 c 258
 62 715 l 258
 60 708 57 701 57 698 c 256
 57 696 56 694 56 692 c 256
 55 687 54 682 54 674 c 256
 54 662 59 636 59 636 c 257
11 821 m 256
 11 805 22 793 34 793 c 256
 44 793 48 803 48 812 c 256
 48 827 36 840 25 840 c 256
 15 840 11 830 11 821 c 256
34 787 m 256
 19 787 5 803 5 822 c 256
 5 835 12 846 25 846 c 256
 39 846 54 830 54 811 c 256
 54 798 48 787 34 787 c 256
165 445 m 256
 165 461 145 471 136 473 c 257
 130 476 122 477 113 477 c 256
 40 477 8 413 8 355 c 258
 8 306 l 257
 25 306 l 257
 25 335 l 258
 25 357 27 380 40 403 c 256
 55 428 79 444 102 444 c 256
 110 444 118 442 126 438 c 256
 134 434 143 428 151 428 c 256
 152 428 153 429 154 429 c 256
 162 431 165 437 165 445 c 256
113 483 m 256
 123 483 132 482 139 479 c 256
 149 475 171 464 171 444 c 256
 171 432 165 425 155 423 c 256
 154 423 152 422 151 422 c 256
 142 422 134 427 127 430 c 257
 121 435 111 438 102 438 c 256
 81 438 59 423 45 400 c 256
 32 377 31 355 31 335 c 258
 31 303 l 258
 31 302 30 300 28 300 c 258
 5 300 l 258
 3 300 2 302 2 303 c 258
 2 355 l 258
 2 415 35 483 113 483 c 256
205 353 m 257
 205 374 l 257
 162 374 l 258
 161 374 160 375 160 376 c 256
 153 400 132 416 107 416 c 256
 78 416 53 392 53 362 c 256
 53 332 78 308 107 308 c 256
 132 308 154 326 160 350 c 256
 160 352 162 353 163 353 c 258
 205 353 l 257
208 347 m 258
 165 347 l 257
 158 321 134 302 107 302 c 256
 74 302 47 329 47 362 c 256
 47 395 74 422 107 422 c 256
 134 422 157 405 165 380 c 257
 208 380 l 258
 210 380 211 379 211 377 c 258
 211 350 l 258
 211 348 210 347 208 347 c 258
46 210 m 257
 62 210 l 257
 73 230 113 244 129 244 c 258
 137 244 l 258
 140 244 145 243 150 243 c 256
 172 243 181 250 181 266 c 256
 181 276 164 283 140 283 c 258
 131 283 l 257
 97 281 64 259 53 233 c 256
 49 225 48 217 46 210 c 257
136 238 m 258
 130 238 l 258
 108 238 77 224 67 205 c 256
 66 204 65 204 64 204 c 258
 43 204 l 258
 41 204 40 206 40 207 c 256
 41 216 43 226 47 236 c 256
 63 269 100 286 131 289 c 257
 140 289 l 258
 163 289 187 282 187 266 c 256
 187 237 159 237 150 237 c 256
 145 237 140 238 136 238 c 258
175 184 m 257
 184 184 l 258
 203 184 211 190 211 206 c 256
 211 218 194 223 177 223 c 258
 169 223 l 257
 133 219 105 203 95 179 c 256
 92 172 91 160 89 151 c 257
 91 150 92 150 94 150 c 256
 96 150 98 150 100 151 c 257
 104 151 l 257
 113 171 124 185 168 185 c 256
 170 185 172 185 175 184 c 257
168 229 m 257
 177 229 l 258
 201 229 217 220 217 206 c 256
 217 178 192 178 184 178 c 258
 175 178 l 257
 172 179 170 179 168 179 c 256
 126 179 117 166 108 146 c 256
 108 145 107 144 106 144 c 256
 104 144 102 145 100 145 c 256
 98 145 96 144 94 144 c 256
 91 144 88 145 86 145 c 256
 85 145 83 147 83 148 c 256
 83 150 84 154 84 157 c 256
 85 166 86 175 89 182 c 256
 102 209 131 225 168 229 c 257
368 83 m 257
 393 83 421 56 421 46 c 258
 421 11 l 257
 434 11 l 257
 434 21 433 56 432 63 c 256
 432 69 429 71 417 78 c 256
 405 85 386 101 384 114 c 257
 340 136 l 257
 339 135 328 119 328 108 c 256
 328 90 351 86 368 83 c 257
322 107 m 256
 322 111 322 115 324 120 c 256
 331 138 338 141 339 142 c 256
 340 142 341 142 388 119 c 256
 389 119 398 101 401 99 c 256
 409 91 418 85 420 83 c 257
 429 83 438 71 438 63 c 256
 439 55 440 13 440 8 c 256
 440 6 439 5 437 5 c 258
 437 5 437 5 418 5 c 256
 417 5 415 6 415 8 c 258
 415 46 l 258
 415 50 399 70 378 75 c 258
 367 78 l 258
 366 78 365 79 364 79 c 256
 346 82 322 86 322 107 c 256
439 495 m 256
 439 492 439 489 438 486 c 256
 438 485 440 466 448 463 c 256
 450 462 453 461 457 461 c 256
 459 461 461 462 463 462 c 256
 470 463 482 469 482 482 c 256
 482 505 458 519 432 519 c 256
 410 519 387 500 382 489 c 256
 382 488 384 485 385 485 c 256
 388 485 391 486 393 488 c 256
 394 488 395 489 395 490 c 256
 404 496 416 507 428 507 c 257
 437 505 439 503 439 495 c 256
375 486 m 256
 375 487 376 489 377 491 c 256
 383 505 408 525 432 525 c 256
 458 525 488 510 488 481 c 256
 488 464 474 459 464 456 c 256
 462 456 459 455 457 455 c 256
 441 455 432 466 432 480 c 256
 432 484 432 485 433 486 c 257
 433 493 l 258
 433 495 433 498 432 499 c 257
 432 501 429 501 428 501 c 256
 419 501 407 491 399 485 c 257
 399 481 387 479 385 479 c 256
 379 479 375 481 375 486 c 256
352 154 m 257
 389 136 l 257
 407 167 l 257
 395 173 386 177 378 177 c 256
 362 177 359 164 352 154 c 257
414 167 m 257
 390 129 l 257
 375 134 361 143 347 150 c 257
 347 150 345 153 345 154 c 256
 352 168 359 183 378 183 c 256
 387 183 399 179 413 171 c 256
 413 170 414 169 414 167 c 257
490 79 m 258
 490 97 l 257
 488 120 467 132 451 143 c 256
 444 149 436 153 427 157 c 257
 410 128 l 257
 422 124 459 110 470 96 c 256
 476 88 479 62 479 10 c 257
 489 10 l 257
 489 68 l 258
 489 72 490 75 490 79 c 258
403 128 m 258
 423 163 l 258
 424 163 425 164 426 164 c 256
 437 164 448 152 455 148 c 256
 472 137 494 122 496 97 c 257
 496 79 l 258
 496 75 495 72 495 68 c 258
 495 7 l 258
 495 6 494 4 492 4 c 258
 476 4 l 258
 474 4 473 6 473 7 c 256
 473 58 470 86 466 92 c 256
 454 107 405 123 405 123 c 258
 404 124 403 127 403 128 c 258
432 207 m 256
 432 201 435 193 449 185 c 256
 457 181 465 179 473 179 c 256
 476 179 487 180 492 181 c 256
 495 181 497 182 500 182 c 256
 518 185 548 185 559 185 c 256
 564 185 566 188 566 191 c 256
 566 193 563 199 560 200 c 256
 520 210 458 226 451 226 c 256
 438 226 432 215 432 207 c 256
451 232 m 256
 461 232 551 208 561 205 c 256
 570 202 572 197 572 192 c 256
 571 184 566 179 559 179 c 256
 548 179 519 179 501 176 c 256
 498 176 496 175 493 175 c 256
 487 174 480 173 473 173 c 256
 462 173 454 176 446 180 c 256
 430 189 426 199 426 207 c 256
 426 218 434 232 451 232 c 256
464 265 m 256
 464 264 465 263 465 261 c 256
 467 252 485 244 497 244 c 256
 499 244 508 245 512 246 c 256
 514 246 516 246 518 247 c 256
 532 249 556 249 566 249 c 256
 569 249 571 251 571 253 c 256
 571 255 569 257 566 258 c 256
 534 267 484 279 478 279 c 256
 473 279 464 273 464 265 c 256
458 264 m 256
 458 268 460 272 460 273 c 256
 465 281 471 285 478 285 c 256
 487 285 559 266 567 264 c 256
 575 262 577 256 577 252 c 256
 576 247 571 243 566 243 c 256
 557 243 533 243 519 241 c 256
 517 241 515 240 513 240 c 256
 507 239 502 238 497 238 c 256
 479 238 458 250 458 264 c 256
498 342 m 256
 498 328 509 317 523 317 c 256
 537 317 549 328 549 342 c 256
 549 356 537 368 523 368 c 256
 509 368 498 356 498 342 c 256
492 342 m 256
 492 360 506 374 523 374 c 256
 540 374 555 360 555 342 c 256
 555 325 540 311 523 311 c 256
 506 311 492 325 492 342 c 256
601 330 m 257
 601 352 l 257
 565 352 l 258
 563 352 562 353 562 354 c 256
 557 371 541 382 524 382 c 256
 502 382 484 364 484 342 c 256
 484 320 502 302 524 302 c 256
 540 302 555 312 561 328 c 256
 562 329 563 330 564 330 c 258
 601 330 l 257
567 358 m 257
 604 358 l 258
 606 358 607 356 607 355 c 258
 607 327 l 258
 607 325 606 324 604 324 c 258
 566 324 l 257
 559 307 542 296 524 296 c 256
 499 296 478 317 478 342 c 256
 478 367 499 388 524 388 c 256
 543 388 560 376 567 358 c 257
528 461 m 256
 514 461 503 449 503 435 c 256
 503 421 514 410 528 410 c 256
 542 410 554 421 554 435 c 256
 554 449 542 461 528 461 c 256
528 467 m 256
 546 467 560 453 560 435 c 256
 560 418 546 404 528 404 c 256
 511 404 497 418 497 435 c 256
 497 453 511 467 528 467 c 256
EndSplineSet
EndChar

StartChar: uniE1E1
Encoding: 233 57825 232
GlifName: uniE_1E_1
Width: 0
VWidth: 0
GlyphClass: 2
LayerCount: 2
Fore
SplineSet
310 547 m 257
 629 547 l 257
 630 547 632 546 632 544 c 256
 632 543 630 541 629 541 c 257
 310 541 l 257
 310 1 l 258
 310 -1 308 -2 307 -2 c 256
 305 -2 304 -1 304 1 c 258
 304 541 l 257
 0 541 l 258
 -2 541 -3 543 -3 544 c 256
 -3 546 -2 547 0 547 c 258
 304 547 l 257
 304 1003 l 257
 304 1004 305 1006 307 1006 c 256
 308 1006 310 1004 310 1003 c 257
 310 547 l 257
EndSplineSet
EndChar

StartChar: uniE1E2
Encoding: 234 57826 233
GlifName: uniE_1E_2
Width: 0
VWidth: 0
GlyphClass: 2
LayerCount: 2
Fore
SplineSet
454 984 m 257
 457 984 468 984 468 970 c 256
 468 956 449 949 438 949 c 256
 420 949 410 961 400 961 c 258
 400 961 386 961 377 961 c 256
 368 961 363 966 363 972 c 256
 363 978 368 984 377 984 c 258
 454 984 l 257
EndSplineSet
EndChar

StartChar: uniE1E3
Encoding: 235 57827 234
GlifName: uniE_1E_3
Width: 0
VWidth: 0
GlyphClass: 2
LayerCount: 2
Fore
SplineSet
433 934 m 256
 450 934 464 919 464 902 c 256
 464 885 450 871 433 871 c 256
 415 871 401 885 401 902 c 256
 401 919 415 934 433 934 c 256
EndSplineSet
EndChar

StartChar: uniE1E4
Encoding: 236 57828 235
GlifName: uniE_1E_4
Width: 0
VWidth: 0
GlyphClass: 2
LayerCount: 2
Fore
SplineSet
382 834 m 257
 382 840 385 843 390 845 c 257
 396 846 455 861 461 861 c 256
 470 861 477 856 478 848 c 257
 478 832 463 823 446 823 c 256
 442 823 438 823 434 824 c 256
 432 824 431 824 429 825 c 256
 418 826 399 826 391 826 c 256
 387 826 383 830 382 834 c 257
EndSplineSet
EndChar

StartChar: uniE1E5
Encoding: 237 57829 236
GlifName: uniE_1E_5
Width: 0
VWidth: 0
GlyphClass: 2
LayerCount: 2
Fore
SplineSet
433 749 m 256
 415 749 401 763 401 780 c 256
 401 798 415 812 433 812 c 256
 450 812 464 798 464 780 c 256
 464 763 450 749 433 749 c 256
EndSplineSet
EndChar

StartChar: uniE1E6
Encoding: 238 57830 237
GlifName: uniE_1E_6
Width: 0
VWidth: 0
GlyphClass: 2
LayerCount: 2
Fore
SplineSet
455 687 m 257
 455 702 442 715 426 715 c 256
 411 715 398 702 398 687 c 256
 398 671 411 659 426 659 c 256
 442 659 455 671 455 687 c 257
385 674 m 257
 346 674 l 257
 346 702 l 257
 386 702 l 257
 392 718 408 730 426 730 c 256
 449 730 468 711 468 687 c 256
 468 663 449 644 426 644 c 256
 407 644 390 657 385 674 c 257
EndSplineSet
EndChar

StartChar: uniE1E7
Encoding: 239 57831 238
GlifName: uniE_1E_7
Width: 0
VWidth: 0
GlyphClass: 2
LayerCount: 2
Fore
SplineSet
457 686 m 256
 457 669 443 655 426 655 c 256
 409 655 395 669 395 686 c 256
 395 703 409 717 426 717 c 256
 443 717 457 703 457 686 c 256
EndSplineSet
EndChar

StartChar: uniE1E8
Encoding: 240 57832 239
GlifName: uniE_1E_8
Width: 0
VWidth: 0
GlyphClass: 2
LayerCount: 2
Fore
SplineSet
472 633 m 256
 472 661 508 665 530 671 c 256
 531 671 533 672 534 672 c 256
 536 672 537 673 539 673 c 256
 548 675 558 677 568 677 c 256
 569 677 570 675 571 674 c 258
 573 654 l 258
 573 650 567 650 557 648 c 256
 548 645 546 638 546 632 c 258
 546 627 l 258
 546 625 545 624 544 623 c 258
 484 604 l 258
 482 604 481 605 481 606 c 256
 477 614 472 622 472 633 c 256
EndSplineSet
EndChar

StartChar: uniE1E9
Encoding: 241 57833 240
GlifName: uniE_1E_9
Width: 0
VWidth: 0
GlyphClass: 2
LayerCount: 2
Fore
SplineSet
486 595 m 256
 486 596 487 598 488 598 c 258
 548 618 l 258
 549 618 551 617 551 616 c 256
 555 606 563 604 567 604 c 256
 569 604 570 605 572 605 c 256
 580 608 585 610 585 610 c 258
 586 610 595 598 598 592 c 257
 598 582 576 577 571 574 c 256
 556 567 539 557 519 557 c 256
 496 557 486 575 486 595 c 256
EndSplineSet
EndChar

StartChar: uniE1EA
Encoding: 242 57834 241
GlifName: uniE_1E_A_
Width: 0
VWidth: 0
GlyphClass: 2
LayerCount: 2
Fore
SplineSet
447 461 m 257
 440 464 436 470 436 478 c 257
 436 483 l 257
 436 486 437 491 437 495 c 256
 437 500 436 503 428 504 c 257
 417 504 404 493 396 486 c 256
 393 484 388 483 385 483 c 256
 381 483 379 484 379 487 c 256
 379 488 379 489 380 490 c 256
 385 501 398 510 408 516 c 256
 416 520 424 522 432 522 c 256
 436 522 440 522 444 521 c 256
 456 519 469 514 477 504 c 256
 481 499 485 490 485 482 c 256
 485 479 485 476 484 474 c 256
 481 466 472 462 464 460 c 256
 462 460 459 459 457 459 c 256
 454 459 450 460 447 461 c 257
EndSplineSet
EndChar

StartChar: uniE1EB
Encoding: 243 57835 242
GlifName: uniE_1E_B_
Width: 0
VWidth: 0
GlyphClass: 2
LayerCount: 2
Fore
SplineSet
528 467 m 256
 546 467 560 453 560 435 c 256
 560 418 546 404 528 404 c 256
 511 404 497 418 497 435 c 256
 497 453 511 467 528 467 c 256
EndSplineSet
EndChar

StartChar: uniE1EC
Encoding: 244 57836 243
GlifName: uniE_1E_C_
Width: 0
VWidth: 0
GlyphClass: 2
LayerCount: 2
Fore
SplineSet
565 355 m 257
 604 355 l 257
 604 327 l 257
 564 327 l 257
 558 311 542 300 524 300 c 256
 500 300 481 319 481 342 c 256
 481 366 500 385 524 385 c 256
 543 385 559 372 565 355 c 257
495 342 m 256
 495 327 508 314 523 314 c 256
 539 314 552 327 552 342 c 256
 552 358 539 371 523 371 c 256
 508 371 495 358 495 342 c 256
EndSplineSet
EndChar

StartChar: uniE1ED
Encoding: 245 57837 244
GlifName: uniE_1E_D_
Width: 0
VWidth: 0
GlyphClass: 2
LayerCount: 2
Fore
SplineSet
492 342 m 256
 492 360 506 374 523 374 c 256
 540 374 555 360 555 342 c 256
 555 325 540 311 523 311 c 256
 506 311 492 325 492 342 c 256
EndSplineSet
EndChar

StartChar: uniE1EE
Encoding: 246 57838 245
GlifName: uniE_1E_E_
Width: 0
VWidth: 0
GlyphClass: 2
LayerCount: 2
Fore
SplineSet
567 261 m 257
 572 260 574 257 574 254 c 256
 574 250 571 246 565 246 c 256
 556 246 533 246 518 243 c 256
 511 242 505 241 498 241 c 256
 491 241 484 242 476 246 c 256
 465 252 462 260 462 265 c 256
 462 268 462 269 463 271 c 256
 466 276 471 281 479 281 c 256
 487 281 567 261 567 261 c 257
EndSplineSet
EndChar

StartChar: uniE1EF
Encoding: 247 57839 246
GlifName: uniE_1E_F_
Width: 0
VWidth: 0
GlyphClass: 2
LayerCount: 2
Fore
SplineSet
560 202 m 257
 566 200 569 196 569 192 c 256
 569 187 565 182 559 182 c 256
 548 182 518 182 500 179 c 256
 498 179 497 178 495 178 c 256
 488 177 482 176 475 176 c 256
 467 176 458 177 448 183 c 256
 433 191 429 200 429 207 c 256
 429 210 430 213 431 215 c 256
 434 221 441 229 451 229 c 256
 461 229 560 202 560 202 c 257
EndSplineSet
EndChar

StartChar: uniE1F0
Encoding: 248 57840 247
GlifName: uniE_1F_0
Width: 0
VWidth: 0
GlyphClass: 2
LayerCount: 2
Fore
SplineSet
414 167 m 257
 390 129 l 257
 375 134 361 143 347 150 c 257
 347 150 345 153 345 154 c 256
 352 168 359 183 378 183 c 256
 387 183 399 179 413 171 c 256
 413 170 414 169 414 167 c 257
EndSplineSet
EndChar

StartChar: uniE1F1
Encoding: 249 57841 248
GlifName: uniE_1F_1
Width: 0
VWidth: 0
GlyphClass: 2
LayerCount: 2
Fore
SplineSet
476 8 m 257
 476 26 476 84 468 94 c 256
 456 110 406 126 406 126 c 257
 426 161 l 257
 434 158 441 154 448 149 c 256
 459 142 470 135 479 125 c 256
 487 117 493 109 493 97 c 257
 493 8 l 257
 476 8 l 257
EndSplineSet
EndChar

StartChar: uniE1F2
Encoding: 250 57842 249
GlifName: uniE_1F_2
Width: 0
VWidth: 0
GlyphClass: 2
LayerCount: 2
Fore
SplineSet
322 107 m 256
 322 111 322 115 324 120 c 256
 331 138 338 141 339 142 c 256
 340 142 341 142 388 119 c 256
 389 119 398 101 401 99 c 256
 409 91 418 85 420 83 c 257
 429 83 438 71 438 63 c 256
 439 55 440 13 440 8 c 256
 440 6 439 5 437 5 c 258
 437 5 437 5 418 5 c 256
 417 5 415 6 415 8 c 258
 415 46 l 258
 415 50 399 70 378 75 c 258
 367 78 l 258
 366 78 365 79 364 79 c 256
 346 82 322 86 322 107 c 256
EndSplineSet
EndChar

StartChar: uniE1F3
Encoding: 251 57843 250
GlifName: uniE_1F_3
Width: 0
VWidth: 0
GlyphClass: 2
LayerCount: 2
Fore
SplineSet
188 985 m 257
 205 985 l 257
 205 985 205 895 205 887 c 257
 205 876 l 257
 205 872 205 868 204 865 c 256
 202 860 194 853 185 853 c 256
 183 853 181 853 179 854 c 256
 173 856 171 862 171 867 c 256
 171 873 174 879 177 882 c 256
 184 888 188 898 188 909 c 258
 188 985 l 257
EndSplineSet
EndChar

StartChar: uniE1F4
Encoding: 252 57844 251
GlifName: uniE_1F_4
Width: 0
VWidth: 0
GlyphClass: 2
LayerCount: 2
Fore
SplineSet
206 804 m 256
 197 804 183 808 183 821 c 256
 184 830 188 837 194 841 c 256
 198 842 213 853 218 853 c 257
 218 854 222 863 222 868 c 258
 222 986 l 258
 222 988 224 989 225 989 c 258
 244 989 l 258
 246 989 247 988 247 986 c 258
 247 847 l 258
 247 823 228 804 206 804 c 256
EndSplineSet
EndChar

StartChar: uniE1F5
Encoding: 253 57845 252
GlifName: uniE_1F_5
Width: 0
VWidth: 0
GlyphClass: 2
LayerCount: 2
Fore
SplineSet
247 750 m 256
 244 750 241 749 238 749 c 256
 228 746 218 743 206 743 c 256
 190 743 177 753 175 767 c 257
 175 776 177 781 181 784 c 256
 189 793 207 795 215 795 c 258
 232 795 l 258
 250 795 261 796 263 796 c 256
 268 798 269 803 269 807 c 256
 269 818 268 984 268 986 c 256
 268 987 270 989 271 989 c 258
 291 989 l 258
 293 989 294 988 294 986 c 258
 294 779 l 258
 294 757 265 753 247 750 c 256
EndSplineSet
EndChar

StartChar: uniE1F6
Encoding: 254 57846 253
GlifName: uniE_1F_6
Width: 0
VWidth: 0
GlyphClass: 2
LayerCount: 2
Fore
SplineSet
217 577 m 257
 217 577 217 656 217 669 c 256
 217 683 214 684 212 686 c 256
 210 688 192 696 188 699 c 256
 183 702 178 709 178 716 c 256
 178 719 179 721 181 723 c 256
 185 728 193 730 199 730 c 256
 219 729 236 709 236 690 c 258
 236 577 l 257
 217 577 l 257
EndSplineSet
EndChar

StartChar: uniE1F7
Encoding: 255 57847 254
GlifName: uniE_1F_7
Width: 0
VWidth: 0
GlyphClass: 2
LayerCount: 2
Fore
SplineSet
146 660 m 256
 146 674 160 686 176 686 c 256
 192 686 206 674 206 660 c 256
 206 647 192 635 176 635 c 256
 160 635 146 647 146 660 c 256
EndSplineSet
EndChar

StartChar: uniE1F8
Encoding: 256 57848 255
GlifName: uniE_1F_8
Width: 0
VWidth: 0
GlyphClass: 2
LayerCount: 2
Fore
SplineSet
139 814 m 257
 138 814 137 815 136 815 c 256
 131 818 115 844 112 849 c 256
 101 867 86 868 86 895 c 258
 86 985 l 257
 104 985 l 257
 104 985 104 906 104 898 c 256
 104 893 105 883 110 879 c 256
 116 874 123 871 129 867 c 256
 136 863 144 858 149 851 c 256
 153 847 155 839 155 833 c 256
 155 831 155 829 154 827 c 256
 153 820 148 814 139 814 c 257
EndSplineSet
EndChar

StartChar: uniE1F9
Encoding: 257 57849 256
GlifName: uniE_1F_9
Width: 0
VWidth: 0
GlyphClass: 2
LayerCount: 2
Fore
SplineSet
89 804 m 257
 88 804 87 805 86 805 c 256
 81 808 78 814 75 819 c 258
 75 819 73 821 73 822 c 256
 62 840 49 861 49 882 c 258
 49 985 l 257
 67 985 l 257
 67 985 67 893 67 886 c 256
 67 879 70 872 72 870 c 256
 74 868 88 855 99 841 c 256
 103 836 105 829 105 823 c 256
 105 821 105 819 104 817 c 256
 103 810 97 804 89 804 c 257
EndSplineSet
EndChar

StartChar: uniE1FA
Encoding: 258 57850 257
GlifName: uniE_1F_A_
Width: 0
VWidth: 0
GlyphClass: 2
LayerCount: 2
Fore
SplineSet
34 787 m 256
 19 787 5 803 5 822 c 256
 5 835 12 846 25 846 c 256
 39 846 54 830 54 811 c 256
 54 798 48 787 34 787 c 256
EndSplineSet
EndChar

StartChar: uniE1FB
Encoding: 259 57851 258
GlifName: uniE_1F_B_
Width: 0
VWidth: 0
GlyphClass: 2
LayerCount: 2
Fore
SplineSet
59 636 m 257
 59 632 l 258
 59 626 58 621 52 621 c 256
 49 621 46 624 43 629 c 256
 33 647 19 697 19 727 c 256
 19 731 20 734 20 737 c 256
 23 761 33 775 46 775 c 258
 51 775 l 257
 63 771 70 760 70 747 c 256
 70 745 69 742 69 740 c 258
 62 715 l 258
 60 708 57 701 57 698 c 256
 57 696 56 694 56 692 c 256
 55 687 54 682 54 674 c 256
 54 662 59 636 59 636 c 257
EndSplineSet
EndChar

StartChar: uniE1FC
Encoding: 260 57852 259
GlifName: uniE_1F_C_
Width: 0
VWidth: 0
GlyphClass: 2
LayerCount: 2
Fore
SplineSet
113 483 m 256
 123 483 132 482 139 479 c 256
 149 475 171 464 171 444 c 256
 171 432 165 425 155 423 c 256
 154 423 152 422 151 422 c 256
 142 422 134 427 127 430 c 257
 121 435 111 438 102 438 c 256
 81 438 59 423 45 400 c 256
 32 377 31 355 31 335 c 258
 31 303 l 258
 31 302 30 300 28 300 c 258
 5 300 l 258
 3 300 2 302 2 303 c 258
 2 355 l 258
 2 415 35 483 113 483 c 256
EndSplineSet
EndChar

StartChar: uniE1FD
Encoding: 261 57853 260
GlifName: uniE_1F_D_
Width: 0
VWidth: 0
GlyphClass: 2
LayerCount: 2
Fore
SplineSet
208 347 m 258
 165 347 l 257
 158 321 134 302 107 302 c 256
 74 302 47 329 47 362 c 256
 47 395 74 422 107 422 c 256
 134 422 157 405 165 380 c 257
 208 380 l 258
 210 380 211 379 211 377 c 258
 211 350 l 258
 211 348 210 347 208 347 c 258
EndSplineSet
EndChar

StartChar: uniE1FE
Encoding: 262 57854 261
GlifName: uniE_1F_E_
Width: 0
VWidth: 0
GlyphClass: 2
LayerCount: 2
Fore
SplineSet
50 207 m 257
 43 207 l 257
 45 216 46 225 50 234 c 256
 64 264 99 283 131 285 c 256
 135 285 138 286 142 286 c 256
 164 286 184 278 184 265 c 256
 184 244 166 241 150 241 c 257
 130 241 l 257
 114 241 74 227 64 207 c 257
 50 207 l 257
EndSplineSet
EndChar

StartChar: uniE1FF
Encoding: 263 57855 262
GlifName: uniE_1F_F_
Width: 0
VWidth: 0
GlyphClass: 2
LayerCount: 2
Fore
SplineSet
92 148 m 257
 86 148 l 257
 87 157 88 172 92 180 c 256
 105 210 138 223 168 225 c 256
 172 225 176 226 179 226 c 256
 198 226 213 219 213 206 c 256
 213 185 198 181 184 181 c 256
 178 181 172 182 167 182 c 256
 123 182 115 167 105 148 c 257
 92 148 l 257
EndSplineSet
EndChar

StartChar: uniE200
Encoding: 264 57856 263
GlifName: uniE_200
Width: 0
VWidth: 0
GlyphClass: 2
LayerCount: 2
Fore
SplineSet
464 902 m 257
 401 902 l 257
 401 919 415 934 433 934 c 256
 450 934 464 919 464 902 c 257
EndSplineSet
EndChar

StartChar: uniE201
Encoding: 265 57857 264
GlifName: uniE_201
Width: 0
VWidth: 0
GlyphClass: 2
LayerCount: 2
Fore
SplineSet
464 780 m 257
 401 780 l 257
 401 798 415 812 433 812 c 256
 450 812 464 798 464 780 c 257
EndSplineSet
EndChar

StartChar: uniE202
Encoding: 266 57858 265
GlifName: uniE_202
Width: 0
VWidth: 0
GlyphClass: 2
LayerCount: 2
Fore
SplineSet
457 686 m 257
 395 686 l 257
 395 703 409 717 426 717 c 256
 443 717 457 703 457 686 c 257
EndSplineSet
EndChar

StartChar: uniE203
Encoding: 267 57859 266
GlifName: uniE_203
Width: 0
VWidth: 0
GlyphClass: 2
LayerCount: 2
Fore
SplineSet
560 435 m 257
 497 435 l 257
 497 453 511 467 528 467 c 256
 546 467 560 453 560 435 c 257
EndSplineSet
EndChar

StartChar: uniE204
Encoding: 268 57860 267
GlifName: uniE_204
Width: 0
VWidth: 0
GlyphClass: 2
LayerCount: 2
Fore
SplineSet
555 342 m 257
 492 342 l 257
 492 360 506 374 523 374 c 256
 540 374 555 360 555 342 c 257
EndSplineSet
EndChar

StartChar: uniE205
Encoding: 269 57861 268
GlifName: uniE_205
Width: 0
VWidth: 0
GlyphClass: 2
LayerCount: 2
Fore
SplineSet
460 917 m 257
 405 917 l 257
 410 927 421 934 433 934 c 256
 445 934 455 927 460 917 c 257
EndSplineSet
EndChar

StartChar: uniE206
Encoding: 270 57862 269
GlifName: uniE_206
Width: 0
VWidth: 0
GlyphClass: 2
LayerCount: 2
Fore
SplineSet
461 794 m 257
 404 794 l 257
 409 805 420 812 433 812 c 256
 445 812 456 805 461 794 c 257
EndSplineSet
EndChar

StartChar: uniE207
Encoding: 271 57863 270
GlifName: uniE_207
Width: 0
VWidth: 0
GlyphClass: 2
LayerCount: 2
Fore
SplineSet
454 700 m 257
 398 700 l 257
 404 710 414 717 426 717 c 256
 438 717 448 710 454 700 c 257
EndSplineSet
EndChar

StartChar: uniE208
Encoding: 272 57864 271
GlifName: uniE_208
Width: 0
VWidth: 0
GlyphClass: 2
LayerCount: 2
Fore
SplineSet
556 450 m 257
 501 450 l 257
 506 460 516 467 528 467 c 256
 541 467 551 460 556 450 c 257
EndSplineSet
EndChar

StartChar: uniE209
Encoding: 273 57865 272
GlifName: uniE_209
Width: 0
VWidth: 0
GlyphClass: 2
LayerCount: 2
Fore
SplineSet
552 356 m 257
 495 356 l 257
 500 367 511 374 523 374 c 256
 535 374 546 367 552 356 c 257
EndSplineSet
EndChar

StartChar: uniE20A
Encoding: 274 57866 273
GlifName: uniE_20A_
Width: 0
VWidth: 0
GlyphClass: 2
LayerCount: 2
Fore
SplineSet
433 934 m 256
 450 934 464 919 464 902 c 256
 464 897 463 893 461 889 c 257
 404 889 l 257
 402 893 401 897 401 902 c 256
 401 919 415 934 433 934 c 256
EndSplineSet
EndChar

StartChar: uniE20B
Encoding: 275 57867 274
GlifName: uniE_20B_
Width: 0
VWidth: 0
GlyphClass: 2
LayerCount: 2
Fore
SplineSet
461 766 m 257
 404 766 l 257
 402 770 401 775 401 780 c 256
 401 798 415 812 433 812 c 256
 450 812 464 798 464 780 c 256
 464 775 463 770 461 766 c 257
EndSplineSet
EndChar

StartChar: uniE20C
Encoding: 276 57868 275
GlifName: uniE_20C_
Width: 0
VWidth: 0
GlyphClass: 2
LayerCount: 2
Fore
SplineSet
457 686 m 256
 457 681 456 676 454 672 c 257
 398 672 l 257
 396 676 395 681 395 686 c 256
 395 703 409 717 426 717 c 256
 443 717 457 703 457 686 c 256
EndSplineSet
EndChar

StartChar: uniE20D
Encoding: 277 57869 276
GlifName: uniE_20D_
Width: 0
VWidth: 0
GlyphClass: 2
LayerCount: 2
Fore
SplineSet
528 467 m 256
 546 467 560 453 560 435 c 256
 560 430 559 426 557 422 c 257
 500 422 l 257
 498 426 497 430 497 435 c 256
 497 453 511 467 528 467 c 256
EndSplineSet
EndChar

StartChar: uniE20E
Encoding: 278 57870 277
GlifName: uniE_20E_
Width: 0
VWidth: 0
GlyphClass: 2
LayerCount: 2
Fore
SplineSet
495 328 m 257
 493 332 492 337 492 342 c 256
 492 360 506 374 523 374 c 256
 540 374 555 360 555 342 c 256
 555 337 554 332 551 328 c 257
 495 328 l 257
EndSplineSet
EndChar

StartChar: uniE20F
Encoding: 279 57871 278
GlifName: uniE_20F_
Width: 0
VWidth: 0
GlyphClass: 2
LayerCount: 2
Fore
SplineSet
398 940 m 256
 397 940 395 941 394 942 c 256
 393 943 392 944 392 945 c 256
 392 946 393 948 394 949 c 258
 444 999 l 258
 445 1000 446 1000 448 1000 c 256
 449 1000 451 1000 452 999 c 256
 453 998 453 996 453 995 c 256
 453 994 453 993 452 992 c 258
 401 942 l 258
 400 941 399 940 398 940 c 256
EndSplineSet
EndChar

StartChar: uniE210
Encoding: 280 57872 279
GlifName: uniE_210
Width: 0
VWidth: 0
GlyphClass: 2
LayerCount: 2
Fore
SplineSet
393 856 m 257
 392 856 390 856 389 857 c 256
 388 858 387 859 387 861 c 256
 387 862 388 864 389 865 c 257
 468 943 l 257
 469 944 470 944 471 944 c 256
 472 944 474 944 475 943 c 256
 476 942 476 940 476 939 c 256
 476 938 476 937 475 936 c 257
 397 857 l 257
 396 856 394 856 393 856 c 257
EndSplineSet
EndChar

StartChar: uniE211
Encoding: 281 57873 280
GlifName: uniE_211
Width: 0
VWidth: 0
GlyphClass: 2
LayerCount: 2
Fore
SplineSet
415 816 m 256
 414 816 413 817 412 818 c 256
 411 819 410 820 410 821 c 256
 410 822 411 824 412 825 c 258
 453 867 l 258
 454 868 455 868 457 868 c 256
 458 868 460 868 461 867 c 256
 462 866 462 864 462 863 c 256
 462 861 462 860 461 859 c 258
 419 818 l 258
 418 817 416 816 415 816 c 256
EndSplineSet
EndChar

StartChar: uniE212
Encoding: 282 57874 281
GlifName: uniE_212
Width: 0
VWidth: 0
GlyphClass: 2
LayerCount: 2
Fore
SplineSet
393 734 m 257
 392 734 390 734 389 735 c 256
 388 736 387 737 387 739 c 256
 387 740 388 742 389 743 c 257
 468 821 l 257
 469 822 470 822 471 822 c 256
 472 822 474 822 475 821 c 256
 476 820 476 818 476 817 c 256
 476 816 476 815 475 814 c 257
 397 735 l 257
 396 734 394 734 393 734 c 257
EndSplineSet
EndChar

StartChar: uniE213
Encoding: 283 57875 282
GlifName: uniE_213
Width: 0
VWidth: 0
GlyphClass: 2
LayerCount: 2
Fore
SplineSet
381 635 m 256
 380 635 378 636 377 637 c 256
 376 638 375 639 375 640 c 256
 375 641 376 643 377 644 c 258
 465 732 l 258
 466 733 467 733 468 733 c 256
 469 733 471 733 472 732 c 256
 473 731 473 729 473 728 c 256
 473 726 473 725 472 724 c 258
 385 637 l 258
 384 636 382 635 381 635 c 256
EndSplineSet
EndChar

StartChar: uniE214
Encoding: 284 57876 283
GlifName: uniE_214
Width: 0
VWidth: 0
GlyphClass: 2
LayerCount: 2
Fore
SplineSet
471 592 m 256
 470 592 468 592 467 593 c 256
 466 594 465 595 465 597 c 256
 465 598 466 600 467 601 c 258
 555 688 l 258
 556 689 557 689 558 689 c 256
 559 689 561 689 562 688 c 256
 563 687 563 685 563 684 c 256
 563 683 563 682 562 681 c 258
 475 593 l 258
 474 592 472 592 471 592 c 256
EndSplineSet
EndChar

StartChar: uniE215
Encoding: 285 57877 284
GlifName: uniE_215
Width: 0
VWidth: 0
GlyphClass: 2
LayerCount: 2
Fore
SplineSet
493 545 m 256
 492 545 490 545 489 546 c 256
 489 547 488 549 488 550 c 256
 488 552 489 553 490 554 c 258
 576 624 l 258
 577 625 578 625 579 625 c 256
 580 625 582 625 583 624 c 256
 584 623 584 621 584 620 c 256
 584 618 584 617 583 616 c 258
 497 546 l 258
 496 545 495 545 493 545 c 256
EndSplineSet
EndChar

StartChar: uniE216
Encoding: 286 57878 285
GlifName: uniE_216
Width: 0
VWidth: 0
GlyphClass: 2
LayerCount: 2
Fore
SplineSet
410 446 m 257
 408 446 407 446 406 447 c 256
 405 448 404 449 404 451 c 256
 404 452 405 454 406 455 c 257
 484 533 l 257
 485 534 486 534 488 534 c 256
 489 534 491 534 492 533 c 256
 493 532 493 530 493 529 c 256
 493 528 493 527 492 526 c 257
 413 447 l 257
 412 446 411 446 410 446 c 257
EndSplineSet
EndChar

StartChar: uniE217
Encoding: 287 57879 286
GlifName: uniE_217
Width: 0
VWidth: 0
GlyphClass: 2
LayerCount: 2
Fore
SplineSet
488 391 m 257
 487 391 485 391 484 392 c 256
 483 393 482 394 482 396 c 256
 482 397 483 399 484 400 c 257
 563 478 l 257
 564 479 565 479 566 479 c 256
 567 479 569 479 570 478 c 256
 571 477 571 475 571 474 c 256
 571 473 571 472 570 471 c 257
 492 392 l 257
 491 391 489 391 488 391 c 257
EndSplineSet
EndChar

StartChar: uniE218
Encoding: 288 57880 287
GlifName: uniE_218
Width: 0
VWidth: 0
GlyphClass: 2
LayerCount: 2
Fore
SplineSet
481 296 m 256
 480 296 479 297 478 298 c 256
 477 299 476 300 476 301 c 256
 476 302 477 304 478 305 c 258
 565 392 l 258
 566 393 567 393 568 393 c 256
 569 393 571 393 572 392 c 256
 573 391 573 389 573 388 c 256
 573 387 573 386 572 385 c 258
 485 298 l 258
 484 297 482 296 481 296 c 256
EndSplineSet
EndChar

StartChar: uniE219
Encoding: 289 57881 288
GlifName: uniE_219
Width: 0
VWidth: 0
GlyphClass: 2
LayerCount: 2
Fore
SplineSet
498 228 m 256
 497 228 496 228 495 229 c 256
 494 230 493 231 493 233 c 256
 493 234 494 236 495 237 c 258
 541 283 l 258
 542 284 543 284 544 284 c 256
 545 284 547 284 548 283 c 256
 549 282 549 280 549 279 c 256
 549 278 549 277 548 276 c 258
 502 229 l 258
 501 228 500 228 498 228 c 256
EndSplineSet
EndChar

StartChar: uniE21A
Encoding: 290 57882 289
GlifName: uniE_21A_
Width: 0
VWidth: 0
GlyphClass: 2
LayerCount: 2
Fore
SplineSet
461 158 m 256
 459 158 458 159 457 160 c 256
 456 161 455 162 455 163 c 256
 455 164 456 166 457 167 c 258
 518 228 l 258
 519 229 520 229 521 229 c 256
 522 229 524 229 525 228 c 256
 526 227 526 225 526 224 c 256
 526 222 526 221 525 220 c 258
 464 160 l 258
 463 159 462 158 461 158 c 256
EndSplineSet
EndChar

StartChar: uniE21B
Encoding: 291 57883 290
GlifName: uniE_21B_
Width: 0
VWidth: 0
GlyphClass: 2
LayerCount: 2
Fore
SplineSet
359 135 m 256
 358 135 357 136 356 137 c 256
 355 138 354 139 354 140 c 256
 354 141 355 143 356 144 c 258
 402 190 l 258
 403 191 404 191 405 191 c 256
 406 191 408 191 409 190 c 256
 410 189 410 187 410 186 c 256
 410 185 410 184 409 183 c 258
 363 137 l 258
 362 136 361 135 359 135 c 256
EndSplineSet
EndChar

StartChar: uniE21C
Encoding: 292 57884 291
GlifName: uniE_21C_
Width: 0
VWidth: 0
GlyphClass: 2
LayerCount: 2
Fore
SplineSet
448 87 m 256
 447 87 446 88 445 89 c 256
 444 90 443 91 443 92 c 256
 443 93 444 95 445 96 c 258
 491 142 l 258
 492 143 493 143 494 143 c 256
 495 143 497 143 498 142 c 256
 499 141 499 139 499 138 c 256
 499 137 499 136 498 135 c 258
 452 89 l 258
 451 88 449 87 448 87 c 256
EndSplineSet
EndChar

StartChar: uniE21D
Encoding: 293 57885 292
GlifName: uniE_21D_
Width: 0
VWidth: 0
GlyphClass: 2
LayerCount: 2
Fore
SplineSet
380 54 m 256
 379 54 377 55 376 56 c 256
 375 57 374 58 374 59 c 256
 374 60 375 62 376 63 c 258
 422 109 l 258
 423 110 424 110 426 110 c 256
 427 110 429 110 430 109 c 256
 431 108 431 106 431 105 c 256
 431 104 431 103 430 102 c 258
 384 56 l 258
 383 55 381 54 380 54 c 256
EndSplineSet
EndChar

StartChar: uniE21E
Encoding: 294 57886 293
GlifName: uniE_21E_
Width: 0
VWidth: 0
GlyphClass: 2
LayerCount: 2
Fore
SplineSet
209 853 m 257
 207 853 206 853 205 854 c 257
 169 891 l 257
 168 892 167 893 167 894 c 256
 167 895 168 897 169 898 c 256
 170 899 171 899 172 899 c 256
 173 899 175 899 176 898 c 257
 212 862 l 257
 213 861 213 859 213 858 c 256
 213 856 213 855 212 854 c 256
 211 853 210 853 209 853 c 257
EndSplineSet
EndChar

StartChar: uniE21F
Encoding: 295 57887 294
GlifName: uniE_21F_
Width: 0
VWidth: 0
GlyphClass: 2
LayerCount: 2
Fore
SplineSet
236 801 m 257
 235 801 234 801 233 802 c 257
 193 842 l 257
 192 843 191 844 191 846 c 256
 191 847 192 849 193 850 c 256
 194 851 195 851 196 851 c 256
 197 851 199 851 200 850 c 257
 240 810 l 257
 241 809 241 807 241 806 c 256
 241 804 241 803 240 802 c 256
 239 801 237 801 236 801 c 257
EndSplineSet
EndChar

StartChar: uniE220
Encoding: 296 57888 295
GlifName: uniE_220
Width: 0
VWidth: 0
GlyphClass: 2
LayerCount: 2
Fore
SplineSet
250 735 m 256
 249 735 248 735 247 736 c 258
 186 795 l 258
 185 796 184 797 184 799 c 256
 184 800 185 802 186 803 c 256
 187 804 188 804 190 804 c 256
 191 804 193 804 194 803 c 258
 254 744 l 258
 255 743 255 741 255 740 c 256
 255 738 255 737 254 736 c 256
 253 735 251 735 250 735 c 256
EndSplineSet
EndChar

StartChar: uniE221
Encoding: 297 57889 296
GlifName: uniE_221
Width: 0
VWidth: 0
GlyphClass: 2
LayerCount: 2
Fore
SplineSet
199 679 m 257
 198 679 197 679 196 680 c 256
 195 681 194 683 194 685 c 256
 194 686 195 687 195 688 c 257
 234 727 l 257
 235 728 237 729 239 729 c 256
 240 729 241 729 242 728 c 256
 243 727 243 725 243 724 c 256
 243 722 243 721 242 720 c 257
 203 680 l 257
 202 679 200 679 199 679 c 257
EndSplineSet
EndChar

StartChar: uniE222
Encoding: 298 57890 297
GlifName: uniE_222
Width: 0
VWidth: 0
GlyphClass: 2
LayerCount: 2
Fore
SplineSet
202 630 m 256
 200 630 199 630 198 631 c 258
 147 681 l 258
 146 682 145 683 145 684 c 256
 145 685 146 687 147 688 c 256
 148 689 149 689 151 689 c 256
 152 689 154 689 155 688 c 258
 205 639 l 258
 206 638 206 636 206 635 c 256
 206 633 206 632 205 631 c 256
 204 630 203 630 202 630 c 256
EndSplineSet
EndChar

StartChar: uniE223
Encoding: 299 57891 298
GlifName: uniE_223
Width: 0
VWidth: 0
GlyphClass: 2
LayerCount: 2
Fore
SplineSet
118 814 m 256
 116 814 115 815 114 816 c 256
 113 817 112 818 112 819 c 256
 112 820 113 822 114 823 c 258
 154 863 l 258
 155 864 156 864 157 864 c 256
 158 864 160 864 161 863 c 256
 162 862 162 860 162 859 c 256
 162 857 162 856 161 855 c 258
 121 816 l 258
 120 815 119 814 118 814 c 256
EndSplineSet
EndChar

StartChar: uniE224
Encoding: 300 57892 299
GlifName: uniE_224
Width: 0
VWidth: 0
GlyphClass: 2
LayerCount: 2
Fore
SplineSet
64 801 m 257
 63 801 62 801 61 802 c 256
 60 803 59 804 59 806 c 256
 59 807 60 809 61 810 c 257
 101 850 l 257
 102 851 103 851 104 851 c 256
 105 851 107 851 108 850 c 256
 109 849 109 847 109 846 c 256
 109 844 109 843 108 842 c 257
 68 802 l 257
 67 801 66 801 64 801 c 257
EndSplineSet
EndChar

StartChar: uniE225
Encoding: 301 57893 300
GlifName: uniE_225
Width: 0
VWidth: 0
GlyphClass: 2
LayerCount: 2
Fore
SplineSet
5 783 m 257
 4 783 2 784 1 785 c 256
 0 786 0 787 0 788 c 256
 0 789 0 791 2 792 c 257
 53 842 l 257
 54 843 55 843 57 843 c 256
 58 843 60 843 61 842 c 256
 62 841 62 840 62 839 c 256
 62 837 61 836 60 835 c 257
 9 785 l 257
 8 784 6 783 5 783 c 257
EndSplineSet
EndChar

StartChar: uniE226
Encoding: 302 57894 301
GlifName: uniE_226
Width: 0
VWidth: 0
GlyphClass: 2
LayerCount: 2
Fore
SplineSet
16 696 m 256
 15 696 14 696 13 697 c 256
 12 698 11 700 11 702 c 256
 11 703 11 704 12 705 c 258
 74 768 l 258
 75 769 76 769 77 769 c 256
 78 769 80 769 81 768 c 256
 82 767 82 765 82 764 c 256
 82 762 82 761 81 760 c 258
 20 697 l 258
 19 696 17 696 16 696 c 256
EndSplineSet
EndChar

StartChar: uniE227
Encoding: 303 57895 302
GlifName: uniE_227
Width: 0
VWidth: 0
GlyphClass: 2
LayerCount: 2
Fore
SplineSet
104 425 m 256
 103 425 101 426 100 427 c 258
 48 479 l 258
 47 480 46 481 46 482 c 256
 46 483 47 485 48 486 c 256
 49 487 50 487 52 487 c 256
 53 487 55 487 56 486 c 258
 108 434 l 258
 109 433 109 431 109 430 c 256
 109 429 109 428 108 427 c 256
 107 426 105 425 104 425 c 256
EndSplineSet
EndChar

StartChar: uniE228
Encoding: 304 57896 303
GlifName: uniE_228
Width: 0
VWidth: 0
GlyphClass: 2
LayerCount: 2
Fore
SplineSet
52 296 m 256
 51 296 50 297 49 298 c 256
 48 299 47 300 47 301 c 256
 47 302 48 304 49 305 c 258
 167 423 l 258
 168 424 169 424 170 424 c 256
 171 424 173 424 174 423 c 256
 175 422 175 420 175 419 c 256
 175 418 175 417 174 416 c 258
 56 298 l 258
 55 297 54 296 52 296 c 256
EndSplineSet
EndChar

StartChar: uniE229
Encoding: 305 57897 304
GlifName: uniE_229
Width: 0
VWidth: 0
GlyphClass: 2
LayerCount: 2
Fore
SplineSet
103 215 m 256
 102 215 101 215 100 216 c 256
 99 217 98 218 98 220 c 256
 98 221 99 223 100 224 c 258
 178 302 l 258
 179 303 180 303 182 303 c 256
 183 303 185 303 186 302 c 256
 187 301 187 299 187 298 c 256
 187 297 187 296 186 295 c 258
 107 216 l 258
 106 215 105 215 103 215 c 256
EndSplineSet
EndChar

StartChar: uniE22A
Encoding: 306 57898 305
GlifName: uniE_22A_
Width: 0
VWidth: 0
GlyphClass: 2
LayerCount: 2
Fore
SplineSet
129 156 m 256
 128 156 127 156 126 157 c 256
 125 158 124 159 124 161 c 256
 124 162 125 164 126 165 c 258
 204 243 l 258
 205 244 206 244 207 244 c 256
 208 244 210 244 211 243 c 256
 212 242 212 240 212 239 c 256
 212 238 212 237 211 236 c 258
 133 157 l 258
 132 156 130 156 129 156 c 256
EndSplineSet
EndChar

StartChar: uniE280
Encoding: 307 57984 306
GlifName: uniE_280
Width: 0
VWidth: 0
GlyphClass: 2
LayerCount: 2
Fore
SplineSet
182 874 m 258
 182 899 l 258
 182 908 189 915 197 915 c 256
 206 915 213 908 213 899 c 258
 213 874 l 258
 213 866 206 859 197 859 c 256
 189 859 182 866 182 874 c 258
205 874 m 258
 205 899 l 258
 205 903 201 907 197 907 c 256
 193 907 190 903 190 899 c 258
 190 874 l 258
 190 870 193 867 197 867 c 256
 201 867 205 870 205 874 c 258
156 415 m 257
 156 459 l 257
 189 459 l 257
 189 415 l 257
 156 415 l 257
164 451 m 257
 164 423 l 257
 181 423 l 257
 181 451 l 257
 164 451 l 257
119 407 m 258
 119 411 l 257
 188 411 l 257
 188 407 l 258
 188 388 173 373 154 373 c 256
 135 373 119 388 119 407 c 258
180 403 m 257
 128 403 l 257
 129 391 140 381 154 381 c 256
 167 381 178 391 180 403 c 257
56 358 m 258
 153 358 l 258
 156 358 157 356 157 354 c 256
 157 352 156 350 153 350 c 258
 56 350 l 258
 54 350 52 352 52 354 c 256
 52 356 54 358 56 358 c 258
104 331 m 256
 127 331 145 313 145 290 c 256
 145 267 127 249 104 249 c 256
 82 249 63 267 63 290 c 256
 63 313 82 331 104 331 c 256
104 257 m 256
 123 257 137 272 137 290 c 256
 137 308 123 323 104 323 c 256
 86 323 71 308 71 290 c 256
 71 272 86 257 104 257 c 256
104 229 m 256
 127 229 145 211 145 188 c 256
 145 165 127 147 104 147 c 256
 82 147 63 165 63 188 c 256
 63 211 82 229 104 229 c 256
104 155 m 256
 123 155 137 170 137 188 c 256
 137 206 123 221 104 221 c 256
 86 221 71 206 71 188 c 256
 71 170 86 155 104 155 c 256
104 127 m 256
 127 127 145 109 145 86 c 256
 145 63 127 45 104 45 c 256
 82 45 63 63 63 86 c 256
 63 109 82 127 104 127 c 256
104 53 m 256
 123 53 137 68 137 86 c 256
 137 104 123 119 104 119 c 256
 86 119 71 104 71 86 c 256
 71 68 86 53 104 53 c 256
21 57 m 257
 24 59 l 258
 29 64 36 66 43 66 c 256
 51 66 59 63 65 57 c 256
 69 52 72 45 72 39 c 256
 72 28 68 21 62 16 c 258
 59 13 l 257
 21 57 l 257
32 56 m 258
 60 24 l 257
 62 28 64 32 64 36 c 256
 64 44 62 48 59 51 c 256
 55 56 49 58 43 58 c 256
 39 58 36 57 32 56 c 258
15 51 m 258
 18 54 l 257
 57 11 l 257
 54 8 l 258
 48 3 42 1 34 1 c 256
 26 1 18 4 13 10 c 256
 8 16 5 24 5 31 c 256
 6 39 9 46 15 51 c 258
45 12 m 258
 18 43 l 257
 15 39 14 35 13 31 c 256
 13 25 15 20 19 16 c 256
 23 11 28 9 34 9 c 256
 38 9 42 10 45 12 c 258
31 236 m 258
 31 211 l 258
 31 203 24 196 15 196 c 256
 7 196 0 203 0 211 c 258
 0 236 l 258
 0 245 7 252 15 252 c 256
 24 252 31 245 31 236 c 258
8 236 m 258
 8 211 l 258
 8 207 11 204 15 204 c 256
 20 204 23 207 23 211 c 258
 23 236 l 258
 23 241 20 244 15 244 c 256
 11 244 8 241 8 236 c 258
31 295 m 258
 31 270 l 258
 31 261 24 255 15 255 c 256
 7 255 0 261 0 270 c 258
 0 295 l 258
 0 304 7 311 15 311 c 256
 24 311 31 304 31 295 c 258
8 295 m 258
 8 270 l 258
 8 266 11 263 15 263 c 256
 20 263 23 266 23 270 c 258
 23 295 l 258
 23 299 20 303 15 303 c 256
 11 303 8 299 8 295 c 258
31 354 m 258
 31 329 l 258
 31 320 24 313 15 313 c 256
 7 313 0 320 0 329 c 258
 0 354 l 258
 0 362 7 369 15 369 c 256
 24 369 31 362 31 354 c 258
8 354 m 258
 8 329 l 258
 8 324 11 321 15 321 c 256
 20 321 23 324 23 329 c 258
 23 354 l 258
 23 358 20 361 15 361 c 256
 11 361 8 358 8 354 c 258
37 120 m 258
 37 153 l 258
 37 159 42 163 48 163 c 256
 52 163 57 161 59 154 c 256
 63 145 64 145 68 145 c 256
 69 144 71 144 72 144 c 256
 82 143 88 142 88 137 c 256
 88 131 82 130 72 129 c 256
 71 129 69 129 68 128 c 256
 64 128 63 128 59 119 c 256
 57 113 52 110 48 110 c 256
 42 110 37 115 37 120 c 258
45 153 m 258
 45 120 l 258
 45 118 47 118 48 118 c 256
 49 118 51 120 52 122 c 256
 56 132 58 135 66 136 c 257
 65 136 57 137 52 151 c 256
 51 153 49 155 48 155 c 256
 47 155 45 155 45 153 c 258
36 208 m 258
 36 269 l 258
 36 275 41 281 48 281 c 256
 54 281 59 275 59 269 c 258
 59 208 l 258
 59 201 54 196 48 196 c 256
 41 196 36 201 36 208 c 258
51 208 m 258
 51 269 l 258
 51 271 50 273 48 273 c 256
 46 273 44 271 44 269 c 258
 44 208 l 258
 44 206 46 204 48 204 c 256
 50 204 51 206 51 208 c 258
35 905 m 256
 23 906 14 917 14 928 c 256
 14 941 16 956 21 971 c 256
 28 994 33 994 35 994 c 256
 37 994 42 994 49 971 c 256
 54 956 56 941 56 928 c 256
 56 917 48 905 35 905 c 256
35 985 m 257
 31 978 22 952 22 928 c 256
 22 921 27 914 35 913 c 256
 43 913 48 921 48 928 c 256
 48 952 39 978 35 985 c 257
104 512 m 256
 82 512 63 530 63 553 c 256
 63 575 82 594 104 594 c 256
 127 594 145 575 145 553 c 256
 145 530 127 512 104 512 c 256
104 586 m 256
 86 586 71 571 71 553 c 256
 71 534 86 520 104 520 c 256
 123 520 137 534 137 553 c 256
 137 571 123 586 104 586 c 256
104 614 m 256
 82 614 63 632 63 655 c 256
 63 677 82 696 104 696 c 256
 127 696 145 677 145 655 c 256
 145 632 127 614 104 614 c 256
104 688 m 256
 86 688 71 673 71 655 c 256
 71 636 86 622 104 622 c 256
 123 622 137 636 137 655 c 256
 137 673 123 688 104 688 c 256
104 763 m 256
 82 763 63 781 63 804 c 256
 63 826 82 845 104 845 c 256
 127 845 145 826 145 804 c 256
 145 781 127 763 104 763 c 256
104 837 m 256
 86 837 71 822 71 804 c 256
 71 785 86 771 104 771 c 256
 123 771 137 785 137 804 c 256
 137 822 123 837 104 837 c 256
106 866 m 256
 90 866 77 878 77 894 c 256
 77 910 90 923 106 923 c 256
 122 923 134 910 134 894 c 256
 134 878 122 866 106 866 c 256
106 915 m 256
 95 915 85 905 85 894 c 256
 85 883 95 874 106 874 c 256
 117 874 126 883 126 894 c 256
 126 905 117 915 106 915 c 256
143 756 m 256
 157 756 168 744 168 730 c 256
 168 716 157 705 143 705 c 256
 129 705 117 716 117 730 c 256
 117 744 129 756 143 756 c 256
143 713 m 256
 152 713 160 720 160 730 c 256
 160 740 152 748 143 748 c 256
 133 748 125 740 125 730 c 256
 125 720 133 713 143 713 c 256
119 415 m 257
 119 459 l 257
 152 459 l 257
 152 415 l 257
 119 415 l 257
127 451 m 257
 127 423 l 257
 144 423 l 257
 144 451 l 257
 127 451 l 257
188 467 m 258
 188 463 l 257
 119 463 l 257
 119 467 l 258
 119 486 135 501 154 501 c 256
 173 501 188 486 188 467 c 258
128 471 m 257
 180 471 l 257
 178 483 167 493 154 493 c 256
 140 493 129 483 128 471 c 257
179 873 m 258
 179 848 l 258
 179 839 172 832 163 832 c 256
 155 832 148 839 148 848 c 258
 148 873 l 258
 148 881 155 888 163 888 c 256
 172 888 179 881 179 873 c 258
156 873 m 258
 156 848 l 258
 156 843 159 840 163 840 c 256
 168 840 171 843 171 848 c 258
 171 873 l 258
 171 877 168 880 163 880 c 256
 159 880 156 877 156 873 c 258
191 956 m 258
 191 931 l 258
 191 922 184 915 176 915 c 256
 167 915 160 922 160 931 c 258
 160 956 l 258
 160 964 167 971 176 971 c 256
 184 971 191 964 191 956 c 258
168 956 m 258
 168 931 l 258
 168 926 172 923 176 923 c 256
 180 923 183 926 183 931 c 258
 183 956 l 258
 183 960 180 963 176 963 c 256
 172 963 168 960 168 956 c 258
EndSplineSet
EndChar

StartChar: uniE281
Encoding: 308 57985 307
GlifName: uniE_281
Width: 0
VWidth: 0
GlyphClass: 2
LayerCount: 2
Fore
SplineSet
16 851 m 257
 12 851 7 853 4 857 c 256
 1 860 0 865 0 870 c 256
 0 871 4 896 13 896 c 256
 15 896 19 894 21 893 c 257
 50 883 l 257
 55 880 57 876 57 872 c 256
 57 868 55 851 44 851 c 257
 16 851 l 257
13 888 m 257
 12 887 10 884 8 869 c 256
 8 865 9 863 10 862 c 256
 12 860 14 859 16 859 c 258
 16 859 16 859 44 859 c 257
 45 859 46 861 47 864 c 256
 49 867 49 871 49 872 c 256
 49 873 48 875 47 875 c 257
 19 886 l 257
 16 886 14 887 13 888 c 257
 13 888 l 257
EndSplineSet
EndChar

StartChar: uniE282
Encoding: 309 57986 308
GlifName: uniE_282
Width: 0
VWidth: 0
GlyphClass: 2
LayerCount: 2
Fore
SplineSet
35 909 m 256
 25 910 18 919 18 928 c 256
 18 956 30 990 35 990 c 256
 40 990 52 956 52 928 c 256
 52 919 45 909 35 909 c 256
EndSplineSet
EndChar

StartChar: uniE283
Encoding: 310 57987 309
GlifName: uniE_283
Width: 0
VWidth: 0
GlyphClass: 2
LayerCount: 2
Fore
SplineSet
106 866 m 256
 90 866 77 878 77 894 c 256
 77 910 90 923 106 923 c 256
 122 923 134 910 134 894 c 256
 134 878 122 866 106 866 c 256
EndSplineSet
EndChar

StartChar: uniE284
Encoding: 311 57988 310
GlifName: uniE_284
Width: 0
VWidth: 0
GlyphClass: 2
LayerCount: 2
Fore
SplineSet
104 763 m 256
 82 763 63 781 63 804 c 256
 63 826 82 845 104 845 c 256
 127 845 145 826 145 804 c 256
 145 781 127 763 104 763 c 256
EndSplineSet
EndChar

StartChar: uniE285
Encoding: 312 57989 311
GlifName: uniE_285
Width: 0
VWidth: 0
GlyphClass: 2
LayerCount: 2
Fore
SplineSet
143 756 m 256
 157 756 168 744 168 730 c 256
 168 716 157 705 143 705 c 256
 129 705 117 716 117 730 c 256
 117 744 129 756 143 756 c 256
EndSplineSet
EndChar

StartChar: uniE286
Encoding: 313 57990 312
GlifName: uniE_286
Width: 0
VWidth: 0
GlyphClass: 2
LayerCount: 2
Fore
SplineSet
104 614 m 256
 82 614 63 632 63 655 c 256
 63 677 82 696 104 696 c 256
 127 696 145 677 145 655 c 256
 145 632 127 614 104 614 c 256
EndSplineSet
EndChar

StartChar: uniE287
Encoding: 314 57991 313
GlifName: uniE_287
Width: 0
VWidth: 0
GlyphClass: 2
LayerCount: 2
Fore
SplineSet
104 512 m 256
 82 512 63 530 63 553 c 256
 63 575 82 594 104 594 c 256
 127 594 145 575 145 553 c 256
 145 530 127 512 104 512 c 256
EndSplineSet
EndChar

StartChar: uniE288
Encoding: 315 57992 314
GlifName: uniE_288
Width: 0
VWidth: 0
GlyphClass: 2
LayerCount: 2
Fore
SplineSet
191 956 m 258
 191 931 l 258
 191 922 184 915 176 915 c 256
 167 915 160 922 160 931 c 258
 160 956 l 258
 160 964 167 971 176 971 c 256
 184 971 191 964 191 956 c 258
EndSplineSet
EndChar

StartChar: uniE289
Encoding: 316 57993 315
GlifName: uniE_289
Width: 0
VWidth: 0
GlyphClass: 2
LayerCount: 2
Fore
SplineSet
182 874 m 258
 182 899 l 258
 182 908 189 915 197 915 c 256
 206 915 213 908 213 899 c 258
 213 874 l 258
 213 866 206 859 197 859 c 256
 189 859 182 866 182 874 c 258
EndSplineSet
EndChar

StartChar: uniE28A
Encoding: 317 57994 316
GlifName: uniE_28A_
Width: 0
VWidth: 0
GlyphClass: 2
LayerCount: 2
Fore
SplineSet
179 873 m 258
 179 848 l 258
 179 839 172 832 163 832 c 256
 155 832 148 839 148 848 c 258
 148 873 l 258
 148 881 155 888 163 888 c 256
 172 888 179 881 179 873 c 258
EndSplineSet
EndChar

StartChar: uniE28B
Encoding: 318 57995 317
GlifName: uniE_28B_
Width: 0
VWidth: 0
GlyphClass: 2
LayerCount: 2
Fore
SplineSet
188 467 m 258
 188 463 l 257
 119 463 l 257
 119 467 l 258
 119 486 135 501 154 501 c 256
 173 501 188 486 188 467 c 258
EndSplineSet
EndChar

StartChar: uniE28C
Encoding: 319 57996 318
GlifName: uniE_28C_
Width: 0
VWidth: 0
GlyphClass: 2
LayerCount: 2
Fore
SplineSet
156 415 m 257
 156 459 l 257
 189 459 l 257
 189 415 l 257
 156 415 l 257
EndSplineSet
EndChar

StartChar: uniE28D
Encoding: 320 57997 319
GlifName: uniE_28D_
Width: 0
VWidth: 0
GlyphClass: 2
LayerCount: 2
Fore
SplineSet
119 415 m 257
 119 459 l 257
 152 459 l 257
 152 415 l 257
 119 415 l 257
EndSplineSet
EndChar

StartChar: uniE28E
Encoding: 321 57998 320
GlifName: uniE_28E_
Width: 0
VWidth: 0
GlyphClass: 2
LayerCount: 2
Fore
SplineSet
119 407 m 258
 119 411 l 257
 188 411 l 257
 188 407 l 258
 188 388 173 373 154 373 c 256
 135 373 119 388 119 407 c 258
EndSplineSet
EndChar

StartChar: uniE28F
Encoding: 322 57999 321
GlifName: uniE_28F_
Width: 0
VWidth: 0
GlyphClass: 2
LayerCount: 2
Fore
SplineSet
31 354 m 258
 31 329 l 258
 31 320 24 313 15 313 c 256
 7 313 0 320 0 329 c 258
 0 354 l 258
 0 362 7 369 15 369 c 256
 24 369 31 362 31 354 c 258
EndSplineSet
EndChar

StartChar: uniE290
Encoding: 323 58000 322
GlifName: uniE_290
Width: 0
VWidth: 0
GlyphClass: 2
LayerCount: 2
Fore
SplineSet
31 295 m 258
 31 270 l 258
 31 261 24 255 15 255 c 256
 7 255 0 261 0 270 c 258
 0 295 l 258
 0 304 7 311 15 311 c 256
 24 311 31 304 31 295 c 258
EndSplineSet
EndChar

StartChar: uniE291
Encoding: 324 58001 323
GlifName: uniE_291
Width: 0
VWidth: 0
GlyphClass: 2
LayerCount: 2
Fore
SplineSet
31 236 m 258
 31 211 l 258
 31 203 24 196 15 196 c 256
 7 196 0 203 0 211 c 258
 0 236 l 258
 0 245 7 252 15 252 c 256
 24 252 31 245 31 236 c 258
EndSplineSet
EndChar

StartChar: uniE292
Encoding: 325 58002 324
GlifName: uniE_292
Width: 0
VWidth: 0
GlyphClass: 2
LayerCount: 2
Fore
SplineSet
36 208 m 258
 36 269 l 258
 36 275 41 281 48 281 c 256
 54 281 59 275 59 269 c 258
 59 208 l 258
 59 201 54 196 48 196 c 256
 41 196 36 201 36 208 c 258
EndSplineSet
EndChar

StartChar: uniE293
Encoding: 326 58003 325
GlifName: uniE_293
Width: 0
VWidth: 0
GlyphClass: 2
LayerCount: 2
Fore
SplineSet
104 331 m 256
 127 331 145 313 145 290 c 256
 145 267 127 249 104 249 c 256
 82 249 63 267 63 290 c 256
 63 313 82 331 104 331 c 256
EndSplineSet
EndChar

StartChar: uniE294
Encoding: 327 58004 326
GlifName: uniE_294
Width: 0
VWidth: 0
GlyphClass: 2
LayerCount: 2
Fore
SplineSet
104 229 m 256
 127 229 145 211 145 188 c 256
 145 165 127 147 104 147 c 256
 82 147 63 165 63 188 c 256
 63 211 82 229 104 229 c 256
EndSplineSet
EndChar

StartChar: uniE295
Encoding: 328 58005 327
GlifName: uniE_295
Width: 0
VWidth: 0
GlyphClass: 2
LayerCount: 2
Fore
SplineSet
37 120 m 258
 37 153 l 258
 37 159 42 163 48 163 c 256
 52 163 57 161 59 154 c 256
 63 145 64 145 68 145 c 257
 69 144 71 144 72 144 c 257
 82 143 88 142 88 137 c 256
 88 131 82 130 72 129 c 256
 71 129 69 129 68 128 c 257
 64 128 63 128 59 119 c 256
 57 113 52 110 48 110 c 256
 42 110 37 115 37 120 c 258
EndSplineSet
EndChar

StartChar: uniE296
Encoding: 329 58006 328
GlifName: uniE_296
Width: 0
VWidth: 0
GlyphClass: 2
LayerCount: 2
Fore
SplineSet
104 127 m 256
 127 127 145 109 145 86 c 256
 145 63 127 45 104 45 c 256
 82 45 63 63 63 86 c 256
 63 109 82 127 104 127 c 256
EndSplineSet
EndChar

StartChar: uniE297
Encoding: 330 58007 329
GlifName: uniE_297
Width: 0
VWidth: 0
GlyphClass: 2
LayerCount: 2
Fore
SplineSet
21 57 m 257
 24 59 l 258
 29 64 36 66 43 66 c 256
 51 66 59 63 65 57 c 256
 69 52 72 45 72 39 c 256
 72 28 68 21 62 16 c 258
 59 13 l 257
 21 57 l 257
EndSplineSet
EndChar

StartChar: uniE298
Encoding: 331 58008 330
GlifName: uniE_298
Width: 0
VWidth: 0
GlyphClass: 2
LayerCount: 2
Fore
SplineSet
15 51 m 258
 18 54 l 257
 57 11 l 257
 54 8 l 258
 48 3 42 1 34 1 c 256
 26 1 18 4 13 10 c 256
 8 16 5 24 5 31 c 256
 6 39 9 46 15 51 c 258
EndSplineSet
EndChar

StartChar: uniE299
Encoding: 332 58009 331
GlifName: uniE_299
Width: 0
VWidth: 0
GlyphClass: 2
LayerCount: 2
Fore
SplineSet
49 879 m 257
 51 878 53 874 53 872 c 256
 53 869 51 855 44 855 c 256
 38 855 17 855 17 855 c 258
 11 855 4 859 4 867 c 256
 4 869 7 891 13 891 c 258
 13 891 14 891 49 879 c 257
 49 879 l 257
EndSplineSet
EndChar

StartChar: uniE29A
Encoding: 333 58010 332
GlifName: uniE_29A_
Width: 0
VWidth: 0
GlyphClass: 2
LayerCount: 2
Fore
SplineSet
145 804 m 257
 63 804 l 257
 63 826 82 845 104 845 c 256
 127 845 145 826 145 804 c 257
EndSplineSet
EndChar

StartChar: uniE29B
Encoding: 334 58011 333
GlifName: uniE_29B_
Width: 0
VWidth: 0
GlyphClass: 2
LayerCount: 2
Fore
SplineSet
145 655 m 257
 63 655 l 257
 63 677 82 696 104 696 c 256
 127 696 145 677 145 655 c 257
EndSplineSet
EndChar

StartChar: uniE29C
Encoding: 335 58012 334
GlifName: uniE_29C_
Width: 0
VWidth: 0
GlyphClass: 2
LayerCount: 2
Fore
SplineSet
145 553 m 257
 63 553 l 257
 63 575 82 594 104 594 c 256
 127 594 145 575 145 553 c 257
EndSplineSet
EndChar

StartChar: uniE29D
Encoding: 336 58013 335
GlifName: uniE_29D_
Width: 0
VWidth: 0
GlyphClass: 2
LayerCount: 2
Fore
SplineSet
145 290 m 257
 63 290 l 257
 63 313 82 331 104 331 c 256
 127 331 145 313 145 290 c 257
EndSplineSet
EndChar

StartChar: uniE29E
Encoding: 337 58014 336
GlifName: uniE_29E_
Width: 0
VWidth: 0
GlyphClass: 2
LayerCount: 2
Fore
SplineSet
145 188 m 257
 63 188 l 257
 63 211 82 229 104 229 c 256
 127 229 145 211 145 188 c 257
EndSplineSet
EndChar

StartChar: uniE29F
Encoding: 338 58015 337
GlifName: uniE_29F_
Width: 0
VWidth: 0
GlyphClass: 2
LayerCount: 2
Fore
SplineSet
145 86 m 257
 63 86 l 257
 63 109 82 127 104 127 c 256
 127 127 145 109 145 86 c 257
EndSplineSet
EndChar

StartChar: uniE2A0
Encoding: 339 58016 338
GlifName: uniE_2A_0
Width: 0
VWidth: 0
GlyphClass: 2
LayerCount: 2
Fore
SplineSet
30 909 m 257
 26 909 l 257
 26 983 l 257
 30 983 l 257
 30 909 l 257
44 909 m 257
 40 909 l 257
 40 983 l 257
 44 983 l 257
 44 909 l 257
EndSplineSet
EndChar

StartChar: uniE2A1
Encoding: 340 58017 339
GlifName: uniE_2A_1
Width: 0
VWidth: 0
GlyphClass: 2
LayerCount: 2
Fore
SplineSet
93 875 m 257
 89 875 l 257
 89 916 l 257
 93 916 l 257
 93 875 l 257
108 870 m 257
 104 870 l 257
 104 919 l 257
 108 919 l 257
 108 870 l 257
122 874 m 257
 118 874 l 257
 118 914 l 257
 122 914 l 257
 122 874 l 257
EndSplineSet
EndChar

StartChar: uniE2A2
Encoding: 341 58018 340
GlifName: uniE_2A_2
Width: 0
VWidth: 0
GlyphClass: 2
LayerCount: 2
Fore
SplineSet
84 773 m 257
 80 773 l 257
 80 833 l 257
 84 833 l 257
 84 773 l 257
99 766 m 257
 95 766 l 257
 95 840 l 257
 99 840 l 257
 99 766 l 257
114 767 m 257
 110 767 l 257
 110 840 l 257
 114 840 l 257
 114 767 l 257
129 774 m 257
 125 774 l 257
 125 833 l 257
 129 833 l 257
 129 774 l 257
EndSplineSet
EndChar

StartChar: uniE2A3
Encoding: 342 58019 341
GlifName: uniE_2A_3
Width: 0
VWidth: 0
GlyphClass: 2
LayerCount: 2
Fore
SplineSet
138 709 m 257
 134 709 l 257
 134 750 l 257
 138 750 l 257
 138 709 l 257
152 709 m 257
 148 709 l 257
 148 750 l 257
 152 750 l 257
 152 709 l 257
EndSplineSet
EndChar

StartChar: uniE2A4
Encoding: 343 58020 342
GlifName: uniE_2A_4
Width: 0
VWidth: 0
GlyphClass: 2
LayerCount: 2
Fore
SplineSet
84 624 m 257
 80 624 l 257
 80 684 l 257
 84 684 l 257
 84 624 l 257
99 617 m 257
 95 617 l 257
 95 691 l 257
 99 691 l 257
 99 617 l 257
114 618 m 257
 110 618 l 257
 110 691 l 257
 114 691 l 257
 114 618 l 257
129 625 m 257
 125 625 l 257
 125 684 l 257
 129 684 l 257
 129 625 l 257
EndSplineSet
EndChar

StartChar: uniE2A5
Encoding: 344 58021 343
GlifName: uniE_2A_5
Width: 0
VWidth: 0
GlyphClass: 2
LayerCount: 2
Fore
SplineSet
84 523 m 257
 80 523 l 257
 80 582 l 257
 84 582 l 257
 84 523 l 257
99 516 m 257
 95 516 l 257
 95 589 l 257
 99 589 l 257
 99 516 l 257
114 517 m 257
 110 517 l 257
 110 589 l 257
 114 589 l 257
 114 517 l 257
129 524 m 257
 125 524 l 257
 125 582 l 257
 129 582 l 257
 129 524 l 257
EndSplineSet
EndChar

StartChar: uniE2A6
Encoding: 345 58022 344
GlifName: uniE_2A_6
Width: 0
VWidth: 0
GlyphClass: 2
LayerCount: 2
Fore
SplineSet
178 919 m 257
 174 919 l 257
 174 967 l 257
 178 967 l 257
 178 919 l 257
EndSplineSet
EndChar

StartChar: uniE2A7
Encoding: 346 58023 345
GlifName: uniE_2A_7
Width: 0
VWidth: 0
GlyphClass: 2
LayerCount: 2
Fore
SplineSet
200 863 m 257
 196 863 l 257
 196 911 l 257
 200 911 l 257
 200 863 l 257
EndSplineSet
EndChar

StartChar: uniE2A8
Encoding: 347 58024 346
GlifName: uniE_2A_8
Width: 0
VWidth: 0
GlyphClass: 2
LayerCount: 2
Fore
SplineSet
166 835 m 257
 162 835 l 257
 162 884 l 257
 166 884 l 257
 166 835 l 257
EndSplineSet
EndChar

StartChar: uniE2A9
Encoding: 348 58025 347
GlifName: uniE_2A_9
Width: 0
VWidth: 0
GlyphClass: 2
LayerCount: 2
Fore
SplineSet
141 467 m 257
 137 467 l 257
 137 496 l 257
 141 496 l 257
 141 467 l 257
156 467 m 257
 152 467 l 257
 152 497 l 257
 156 497 l 257
 156 467 l 257
170 467 m 257
 166 467 l 257
 166 496 l 257
 170 496 l 257
 170 467 l 257
EndSplineSet
EndChar

StartChar: uniE2AA
Encoding: 349 58026 348
GlifName: uniE_2A_A_
Width: 0
VWidth: 0
GlyphClass: 2
LayerCount: 2
Fore
SplineSet
175 419 m 257
 171 419 l 257
 171 456 l 257
 175 456 l 257
 175 419 l 257
EndSplineSet
EndChar

StartChar: uniE2AB
Encoding: 350 58027 349
GlifName: uniE_2A_B_
Width: 0
VWidth: 0
GlyphClass: 2
LayerCount: 2
Fore
SplineSet
138 419 m 257
 134 419 l 257
 134 456 l 257
 138 456 l 257
 138 419 l 257
EndSplineSet
EndChar

StartChar: uniE2AC
Encoding: 351 58028 350
GlifName: uniE_2A_C_
Width: 0
VWidth: 0
GlyphClass: 2
LayerCount: 2
Fore
SplineSet
170 379 m 257
 166 379 l 257
 166 408 l 257
 170 408 l 257
 170 379 l 257
156 378 m 257
 152 378 l 257
 152 408 l 257
 156 408 l 257
 156 378 l 257
141 379 m 257
 137 379 l 257
 137 408 l 257
 141 408 l 257
 141 379 l 257
EndSplineSet
EndChar

StartChar: uniE2AD
Encoding: 352 58029 351
GlifName: uniE_2A_D_
Width: 0
VWidth: 0
GlyphClass: 2
LayerCount: 2
Fore
SplineSet
18 316 m 257
 14 316 l 257
 14 365 l 257
 18 365 l 257
 18 316 l 257
EndSplineSet
EndChar

StartChar: uniE2AE
Encoding: 353 58030 352
GlifName: uniE_2A_E_
Width: 0
VWidth: 0
GlyphClass: 2
LayerCount: 2
Fore
SplineSet
18 257 m 257
 14 257 l 257
 14 306 l 257
 18 306 l 257
 18 257 l 257
EndSplineSet
EndChar

StartChar: uniE2AF
Encoding: 354 58031 353
GlifName: uniE_2A_F_
Width: 0
VWidth: 0
GlyphClass: 2
LayerCount: 2
Fore
SplineSet
18 199 m 257
 14 199 l 257
 14 248 l 257
 18 248 l 257
 18 199 l 257
EndSplineSet
EndChar

StartChar: uniE2B0
Encoding: 355 58032 354
GlifName: uniE_2B_0
Width: 0
VWidth: 0
GlyphClass: 2
LayerCount: 2
Fore
SplineSet
50 201 m 257
 46 201 l 257
 46 277 l 257
 50 277 l 257
 50 201 l 257
EndSplineSet
EndChar

StartChar: uniE2B1
Encoding: 356 58033 355
GlifName: uniE_2B_1
Width: 0
VWidth: 0
GlyphClass: 2
LayerCount: 2
Fore
SplineSet
84 260 m 257
 80 260 l 257
 80 319 l 257
 84 319 l 257
 84 260 l 257
99 253 m 257
 95 253 l 257
 95 326 l 257
 99 326 l 257
 99 253 l 257
114 254 m 257
 110 254 l 257
 110 326 l 257
 114 326 l 257
 114 254 l 257
129 261 m 257
 125 261 l 257
 125 319 l 257
 129 319 l 257
 129 261 l 257
EndSplineSet
EndChar

StartChar: uniE2B2
Encoding: 357 58034 356
GlifName: uniE_2B_2
Width: 0
VWidth: 0
GlyphClass: 2
LayerCount: 2
Fore
SplineSet
84 158 m 257
 80 158 l 257
 80 217 l 257
 84 217 l 257
 84 158 l 257
99 151 m 257
 95 151 l 257
 95 224 l 257
 99 224 l 257
 99 151 l 257
114 152 m 257
 110 152 l 257
 110 224 l 257
 114 224 l 257
 114 152 l 257
129 159 m 257
 125 159 l 257
 125 217 l 257
 129 217 l 257
 129 159 l 257
EndSplineSet
EndChar

StartChar: uniE2B3
Encoding: 358 58035 357
GlifName: uniE_2B_3
Width: 0
VWidth: 0
GlyphClass: 2
LayerCount: 2
Fore
SplineSet
55 115 m 257
 51 115 l 257
 51 157 l 257
 55 157 l 257
 55 115 l 257
EndSplineSet
EndChar

StartChar: uniE2B4
Encoding: 359 58036 358
GlifName: uniE_2B_4
Width: 0
VWidth: 0
GlyphClass: 2
LayerCount: 2
Fore
SplineSet
84 56 m 257
 80 56 l 257
 80 115 l 257
 84 115 l 257
 84 56 l 257
99 49 m 257
 95 49 l 257
 95 122 l 257
 99 122 l 257
 99 49 l 257
114 50 m 257
 110 50 l 257
 110 122 l 257
 114 122 l 257
 114 50 l 257
129 57 m 257
 125 57 l 257
 125 115 l 257
 129 115 l 257
 129 57 l 257
EndSplineSet
EndChar

StartChar: uniE2B5
Encoding: 360 58037 359
GlifName: uniE_2B_5
Width: 0
VWidth: 0
GlyphClass: 2
LayerCount: 2
Fore
SplineSet
43 37 m 257
 39 37 l 257
 39 61 l 257
 43 61 l 257
 43 37 l 257
58 24 m 257
 54 24 l 257
 54 61 l 257
 58 61 l 257
 58 24 l 257
EndSplineSet
EndChar

StartChar: uniE2B6
Encoding: 361 58038 360
GlifName: uniE_2B_6
Width: 0
VWidth: 0
GlyphClass: 2
LayerCount: 2
Fore
SplineSet
21 7 m 257
 17 7 l 257
 17 45 l 257
 21 45 l 257
 21 7 l 257
36 7 m 257
 32 7 l 257
 32 30 l 257
 36 30 l 257
 36 7 l 257
EndSplineSet
EndChar

StartChar: uniE2B7
Encoding: 362 58039 361
GlifName: uniE_2B_7
Width: 0
VWidth: 0
GlyphClass: 2
LayerCount: 2
Fore
SplineSet
16 854 m 257
 12 854 l 257
 12 891 l 257
 16 891 l 257
 16 854 l 257
31 854 m 257
 27 854 l 257
 27 886 l 257
 31 886 l 257
 31 854 l 257
46 854 m 257
 42 854 l 257
 42 882 l 257
 46 882 l 257
 46 854 l 257
EndSplineSet
EndChar

StartChar: uniE320
Encoding: 363 58144 362
GlifName: uniE_320
Width: 0
VWidth: 0
GlyphClass: 2
LayerCount: 2
Fore
SplineSet
206 452 m 256
 175 452 151 476 151 507 c 256
 151 537 175 562 206 562 c 256
 237 562 262 537 262 507 c 256
 262 476 237 452 206 452 c 256
206 553 m 256
 180 553 159 533 159 507 c 256
 159 481 180 460 206 460 c 256
 232 460 253 481 253 507 c 256
 253 533 232 553 206 553 c 256
206 888 m 256
 175 888 151 913 151 944 c 256
 151 975 175 998 206 998 c 256
 237 998 262 975 262 944 c 256
 262 913 237 888 206 888 c 256
206 990 m 256
 180 990 159 970 159 944 c 256
 159 918 180 897 206 897 c 256
 232 897 253 918 253 944 c 256
 253 970 232 990 206 990 c 256
55 888 m 256
 24 888 0 913 0 944 c 256
 0 975 24 998 55 998 c 256
 85 998 110 975 110 944 c 256
 110 913 85 888 55 888 c 256
55 990 m 256
 29 990 8 970 8 944 c 256
 8 918 29 897 55 897 c 256
 81 897 101 918 101 944 c 256
 101 970 81 990 55 990 c 256
206 754 m 256
 175 754 151 777 151 808 c 256
 151 839 175 864 206 864 c 256
 237 864 262 839 262 808 c 256
 262 777 237 754 206 754 c 256
206 855 m 256
 180 855 159 834 159 808 c 256
 159 782 180 762 206 762 c 256
 232 762 253 782 253 808 c 256
 253 834 232 855 206 855 c 256
206 619 m 256
 175 619 151 644 151 675 c 256
 151 705 175 729 206 729 c 256
 237 729 262 705 262 675 c 256
 262 644 237 619 206 619 c 256
206 721 m 256
 180 721 159 701 159 675 c 256
 159 649 180 628 206 628 c 256
 232 628 253 649 253 675 c 256
 253 701 232 721 206 721 c 256
206 318 m 256
 175 318 151 342 151 373 c 256
 151 403 175 427 206 427 c 256
 237 427 262 403 262 373 c 256
 262 342 237 318 206 318 c 256
206 419 m 256
 180 419 159 399 159 373 c 256
 159 347 180 326 206 326 c 256
 232 326 253 347 253 373 c 256
 253 399 232 419 206 419 c 256
159 206 m 256
 138 206 120 224 120 246 c 256
 120 267 138 284 159 284 c 256
 180 284 199 267 199 246 c 256
 199 224 180 206 159 206 c 256
159 276 m 256
 142 276 128 262 128 246 c 256
 128 229 142 214 159 214 c 256
 176 214 191 229 191 246 c 256
 191 262 176 276 159 276 c 256
254 206 m 256
 233 206 215 224 215 246 c 256
 215 267 233 284 254 284 c 256
 275 284 294 267 294 246 c 256
 294 224 275 206 254 206 c 256
254 276 m 256
 238 276 224 262 224 246 c 256
 224 229 238 214 254 214 c 256
 271 214 285 229 285 246 c 256
 285 262 271 276 254 276 c 256
159 103 m 256
 138 103 120 121 120 143 c 256
 120 164 138 181 159 181 c 256
 180 181 199 164 199 143 c 256
 199 121 180 103 159 103 c 256
159 173 m 256
 142 173 128 159 128 143 c 256
 128 126 142 111 159 111 c 256
 176 111 191 126 191 143 c 256
 191 159 176 173 159 173 c 256
254 103 m 256
 233 103 215 121 215 143 c 256
 215 164 233 181 254 181 c 256
 275 181 294 164 294 143 c 256
 294 121 275 103 254 103 c 256
254 173 m 256
 238 173 224 159 224 143 c 256
 224 126 238 111 254 111 c 256
 271 111 285 126 285 143 c 256
 285 159 271 173 254 173 c 256
317 586 m 258
 92 586 l 258
 90 586 88 589 88 591 c 256
 88 593 90 595 92 595 c 258
 317 595 l 258
 319 595 321 593 321 591 c 256
 321 589 319 586 317 586 c 258
EndSplineSet
EndChar

StartChar: uniE321
Encoding: 364 58145 363
GlifName: uniE_321
Width: 0
VWidth: 0
GlyphClass: 2
LayerCount: 2
Fore
SplineSet
106 944 m 256
 106 916 83 893 55 893 c 256
 27 893 4 916 4 944 c 256
 4 972 27 994 55 994 c 256
 83 994 106 972 106 944 c 256
EndSplineSet
EndChar

StartChar: uniE322
Encoding: 365 58146 364
GlifName: uniE_322
Width: 0
VWidth: 0
GlyphClass: 2
LayerCount: 2
Fore
SplineSet
257 944 m 256
 257 916 234 893 206 893 c 256
 178 893 155 916 155 944 c 256
 155 972 178 994 206 994 c 256
 234 994 257 972 257 944 c 256
EndSplineSet
EndChar

StartChar: uniE323
Encoding: 366 58147 365
GlifName: uniE_323
Width: 0
VWidth: 0
GlyphClass: 2
LayerCount: 2
Fore
SplineSet
257 808 m 256
 257 780 234 758 206 758 c 256
 178 758 155 780 155 808 c 256
 155 836 178 860 206 860 c 256
 234 860 257 836 257 808 c 256
EndSplineSet
EndChar

StartChar: uniE324
Encoding: 367 58148 366
GlifName: uniE_324
Width: 0
VWidth: 0
GlyphClass: 2
LayerCount: 2
Fore
SplineSet
257 675 m 256
 257 647 234 624 206 624 c 256
 178 624 155 647 155 675 c 256
 155 703 178 725 206 725 c 256
 234 725 257 703 257 675 c 256
EndSplineSet
EndChar

StartChar: uniE325
Encoding: 368 58149 367
GlifName: uniE_325
Width: 0
VWidth: 0
GlyphClass: 2
LayerCount: 2
Fore
SplineSet
257 507 m 256
 257 479 234 456 206 456 c 256
 178 456 155 479 155 507 c 256
 155 535 178 558 206 558 c 256
 234 558 257 535 257 507 c 256
EndSplineSet
EndChar

StartChar: uniE326
Encoding: 369 58150 368
GlifName: uniE_326
Width: 0
VWidth: 0
GlyphClass: 2
LayerCount: 2
Fore
SplineSet
257 373 m 256
 257 345 234 322 206 322 c 256
 178 322 155 345 155 373 c 256
 155 401 178 423 206 423 c 256
 234 423 257 401 257 373 c 256
EndSplineSet
EndChar

StartChar: uniE327
Encoding: 370 58151 369
GlifName: uniE_327
Width: 0
VWidth: 0
GlyphClass: 2
LayerCount: 2
Fore
SplineSet
195 245 m 256
 195 225 178 209 159 209 c 256
 139 209 124 225 124 245 c 256
 124 264 139 280 159 280 c 256
 178 280 195 264 195 245 c 256
EndSplineSet
EndChar

StartChar: uniE328
Encoding: 371 58152 370
GlifName: uniE_328
Width: 0
VWidth: 0
GlyphClass: 2
LayerCount: 2
Fore
SplineSet
290 245 m 256
 290 225 274 209 254 209 c 256
 235 209 219 225 219 245 c 256
 219 264 235 280 254 280 c 256
 274 280 290 264 290 245 c 256
EndSplineSet
EndChar

StartChar: uniE329
Encoding: 372 58153 371
GlifName: uniE_329
Width: 0
VWidth: 0
GlyphClass: 2
LayerCount: 2
Fore
SplineSet
195 143 m 256
 195 123 178 107 159 107 c 256
 139 107 124 123 124 143 c 256
 124 162 139 177 159 177 c 256
 178 177 195 162 195 143 c 256
EndSplineSet
EndChar

StartChar: uniE32A
Encoding: 373 58154 372
GlifName: uniE_32A_
Width: 0
VWidth: 0
GlyphClass: 2
LayerCount: 2
Fore
SplineSet
290 143 m 256
 290 123 274 107 254 107 c 256
 235 107 219 123 219 143 c 256
 219 162 235 177 254 177 c 256
 274 177 290 162 290 143 c 256
EndSplineSet
EndChar

StartChar: uniE32B
Encoding: 374 58155 373
GlifName: uniE_32B_
Width: 0
VWidth: 0
GlyphClass: 2
LayerCount: 2
Fore
SplineSet
266 49 m 256
 266 24 234 6 206 6 c 256
 178 6 147 24 147 49 c 256
 147 74 178 92 206 92 c 256
 234 92 266 74 266 49 c 256
EndSplineSet
EndChar

StartChar: uniE32C
Encoding: 375 58156 374
GlifName: uniE_32C_
Width: 0
VWidth: 0
GlyphClass: 2
LayerCount: 2
Fore
SplineSet
55 994 m 257
 55 893 l 257
 27 893 4 916 4 944 c 256
 4 972 27 994 55 994 c 257
EndSplineSet
EndChar

StartChar: uniE32D
Encoding: 376 58157 375
GlifName: uniE_32D_
Width: 0
VWidth: 0
GlyphClass: 2
LayerCount: 2
Fore
SplineSet
206 994 m 257
 206 893 l 257
 178 893 155 916 155 944 c 256
 155 972 178 994 206 994 c 257
EndSplineSet
EndChar

StartChar: uniE32E
Encoding: 377 58158 376
GlifName: uniE_32E_
Width: 0
VWidth: 0
GlyphClass: 2
LayerCount: 2
Fore
SplineSet
206 859 m 257
 206 757 l 257
 178 757 155 780 155 808 c 256
 155 836 178 859 206 859 c 257
EndSplineSet
EndChar

StartChar: uniE32F
Encoding: 378 58159 377
GlifName: uniE_32F_
Width: 0
VWidth: 0
GlyphClass: 2
LayerCount: 2
Fore
SplineSet
206 725 m 257
 206 624 l 257
 178 624 155 647 155 675 c 256
 155 703 178 725 206 725 c 257
EndSplineSet
EndChar

StartChar: uniE330
Encoding: 379 58160 378
GlifName: uniE_330
Width: 0
VWidth: 0
GlyphClass: 2
LayerCount: 2
Fore
SplineSet
206 558 m 257
 206 456 l 257
 178 456 155 479 155 507 c 256
 155 535 178 558 206 558 c 257
EndSplineSet
EndChar

StartChar: uniE331
Encoding: 380 58161 379
GlifName: uniE_331
Width: 0
VWidth: 0
GlyphClass: 2
LayerCount: 2
Fore
SplineSet
206 423 m 257
 206 322 l 257
 178 322 155 345 155 373 c 256
 155 401 178 423 206 423 c 257
EndSplineSet
EndChar

StartChar: uniE332
Encoding: 381 58162 380
GlifName: uniE_332
Width: 0
VWidth: 0
GlyphClass: 2
LayerCount: 2
Fore
SplineSet
159 280 m 257
 159 210 l 257
 139 210 124 226 124 246 c 256
 124 265 139 280 159 280 c 257
EndSplineSet
EndChar

StartChar: uniE333
Encoding: 382 58163 381
GlifName: uniE_333
Width: 0
VWidth: 0
GlyphClass: 2
LayerCount: 2
Fore
SplineSet
255 280 m 257
 255 210 l 257
 235 210 219 226 219 246 c 256
 219 265 235 280 255 280 c 257
EndSplineSet
EndChar

StartChar: uniE334
Encoding: 383 58164 382
GlifName: uniE_334
Width: 0
VWidth: 0
GlyphClass: 2
LayerCount: 2
Fore
SplineSet
159 178 m 257
 159 107 l 257
 139 107 124 124 124 143 c 256
 124 163 139 178 159 178 c 257
EndSplineSet
EndChar

StartChar: uniE335
Encoding: 384 58165 383
GlifName: uniE_335
Width: 0
VWidth: 0
GlyphClass: 2
LayerCount: 2
Fore
SplineSet
255 177 m 257
 255 107 l 257
 235 107 219 123 219 143 c 256
 219 162 235 177 255 177 c 257
EndSplineSet
EndChar

StartChar: uniE336
Encoding: 385 58166 384
GlifName: uniE_336
Width: 0
VWidth: 0
GlyphClass: 2
LayerCount: 2
Fore
SplineSet
106 944 m 256
 106 916 83 893 55 893 c 257
 55 994 l 257
 83 994 106 972 106 944 c 256
EndSplineSet
EndChar

StartChar: uniE337
Encoding: 386 58167 385
GlifName: uniE_337
Width: 0
VWidth: 0
GlyphClass: 2
LayerCount: 2
Fore
SplineSet
257 944 m 256
 257 916 234 893 206 893 c 257
 206 994 l 257
 234 994 257 972 257 944 c 256
EndSplineSet
EndChar

StartChar: uniE338
Encoding: 387 58168 386
GlifName: uniE_338
Width: 0
VWidth: 0
GlyphClass: 2
LayerCount: 2
Fore
SplineSet
257 808 m 256
 257 780 234 757 206 757 c 257
 206 859 l 257
 234 859 257 836 257 808 c 256
EndSplineSet
EndChar

StartChar: uniE339
Encoding: 388 58169 387
GlifName: uniE_339
Width: 0
VWidth: 0
GlyphClass: 2
LayerCount: 2
Fore
SplineSet
257 675 m 256
 257 647 234 624 206 624 c 257
 206 725 l 257
 234 725 257 703 257 675 c 256
EndSplineSet
EndChar

StartChar: uniE33A
Encoding: 389 58170 388
GlifName: uniE_33A_
Width: 0
VWidth: 0
GlyphClass: 2
LayerCount: 2
Fore
SplineSet
257 507 m 256
 257 479 234 456 206 456 c 257
 206 558 l 257
 234 558 257 535 257 507 c 256
EndSplineSet
EndChar

StartChar: uniE33B
Encoding: 390 58171 389
GlifName: uniE_33B_
Width: 0
VWidth: 0
GlyphClass: 2
LayerCount: 2
Fore
SplineSet
257 373 m 256
 257 345 234 322 206 322 c 257
 206 423 l 257
 234 423 257 401 257 373 c 256
EndSplineSet
EndChar

StartChar: uniE33C
Encoding: 391 58172 390
GlifName: uniE_33C_
Width: 0
VWidth: 0
GlyphClass: 2
LayerCount: 2
Fore
SplineSet
195 246 m 256
 195 226 178 210 159 210 c 257
 159 280 l 257
 178 280 195 265 195 246 c 256
EndSplineSet
EndChar

StartChar: uniE33D
Encoding: 392 58173 391
GlifName: uniE_33D_
Width: 0
VWidth: 0
GlyphClass: 2
LayerCount: 2
Fore
SplineSet
290 246 m 256
 290 226 273 210 254 210 c 257
 254 280 l 257
 273 280 290 265 290 246 c 256
EndSplineSet
EndChar

StartChar: uniE33E
Encoding: 393 58174 392
GlifName: uniE_33E_
Width: 0
VWidth: 0
GlyphClass: 2
LayerCount: 2
Fore
SplineSet
195 143 m 256
 195 123 178 107 159 107 c 257
 159 177 l 257
 178 177 195 162 195 143 c 256
EndSplineSet
EndChar

StartChar: uniE33F
Encoding: 394 58175 393
GlifName: uniE_33F_
Width: 0
VWidth: 0
GlyphClass: 2
LayerCount: 2
Fore
SplineSet
290 143 m 256
 290 123 273 107 254 107 c 257
 254 177 l 257
 273 177 290 162 290 143 c 256
EndSplineSet
EndChar

StartChar: uniE340
Encoding: 395 58176 394
GlifName: uniE_340
Width: 0
VWidth: 0
GlyphClass: 2
LayerCount: 2
Fore
SplineSet
29 987 m 257
 29 899 l 257
 13 908 3 925 3 944 c 256
 3 963 13 978 29 987 c 257
EndSplineSet
EndChar

StartChar: uniE341
Encoding: 396 58177 395
GlifName: uniE_341
Width: 0
VWidth: 0
GlyphClass: 2
LayerCount: 2
Fore
SplineSet
181 987 m 257
 181 899 l 257
 166 908 155 925 155 944 c 256
 155 963 166 978 181 987 c 257
EndSplineSet
EndChar

StartChar: uniE342
Encoding: 397 58178 396
GlifName: uniE_342
Width: 0
VWidth: 0
GlyphClass: 2
LayerCount: 2
Fore
SplineSet
181 852 m 257
 181 764 l 257
 166 773 155 789 155 808 c 256
 155 827 166 843 181 852 c 257
EndSplineSet
EndChar

StartChar: uniE343
Encoding: 398 58179 397
GlifName: uniE_343
Width: 0
VWidth: 0
GlyphClass: 2
LayerCount: 2
Fore
SplineSet
181 718 m 257
 181 630 l 257
 166 639 155 656 155 675 c 256
 155 694 166 709 181 718 c 257
EndSplineSet
EndChar

StartChar: uniE344
Encoding: 399 58180 398
GlifName: uniE_344
Width: 0
VWidth: 0
GlyphClass: 2
LayerCount: 2
Fore
SplineSet
181 552 m 257
 181 464 l 257
 166 473 155 489 155 507 c 256
 155 526 166 543 181 552 c 257
EndSplineSet
EndChar

StartChar: uniE345
Encoding: 400 58181 399
GlifName: uniE_345
Width: 0
VWidth: 0
GlyphClass: 2
LayerCount: 2
Fore
SplineSet
181 417 m 257
 181 329 l 257
 166 338 155 355 155 373 c 256
 155 392 166 408 181 417 c 257
EndSplineSet
EndChar

StartChar: uniE346
Encoding: 401 58182 400
GlifName: uniE_346
Width: 0
VWidth: 0
GlyphClass: 2
LayerCount: 2
Fore
SplineSet
142 275 m 257
 142 215 l 257
 131 221 124 233 124 246 c 256
 124 258 131 269 142 275 c 257
EndSplineSet
EndChar

StartChar: uniE347
Encoding: 402 58183 401
GlifName: uniE_347
Width: 0
VWidth: 0
GlyphClass: 2
LayerCount: 2
Fore
SplineSet
237 275 m 257
 237 215 l 257
 226 221 219 233 219 246 c 256
 219 258 226 269 237 275 c 257
EndSplineSet
EndChar

StartChar: uniE348
Encoding: 403 58184 402
GlifName: uniE_348
Width: 0
VWidth: 0
GlyphClass: 2
LayerCount: 2
Fore
SplineSet
142 172 m 257
 142 111 l 257
 131 118 124 129 124 142 c 256
 124 155 131 166 142 172 c 257
EndSplineSet
EndChar

StartChar: uniE349
Encoding: 404 58185 403
GlifName: uniE_349
Width: 0
VWidth: 0
GlyphClass: 2
LayerCount: 2
Fore
SplineSet
237 173 m 257
 237 112 l 257
 226 119 219 130 219 143 c 256
 219 156 226 167 237 173 c 257
EndSplineSet
EndChar

StartChar: uniE34A
Encoding: 405 58186 404
GlifName: uniE_34A_
Width: 0
VWidth: 0
GlyphClass: 2
LayerCount: 2
Fore
SplineSet
80 899 m 257
 80 987 l 257
 96 978 106 963 106 944 c 256
 106 925 96 908 80 899 c 257
EndSplineSet
EndChar

StartChar: uniE34B
Encoding: 406 58187 405
GlifName: uniE_34B_
Width: 0
VWidth: 0
GlyphClass: 2
LayerCount: 2
Fore
SplineSet
232 899 m 257
 232 987 l 257
 247 978 257 963 257 944 c 256
 257 925 247 908 232 899 c 257
EndSplineSet
EndChar

StartChar: uniE34C
Encoding: 407 58188 406
GlifName: uniE_34C_
Width: 0
VWidth: 0
GlyphClass: 2
LayerCount: 2
Fore
SplineSet
232 765 m 257
 232 853 l 257
 247 844 257 827 257 808 c 256
 257 790 247 774 232 765 c 257
EndSplineSet
EndChar

StartChar: uniE34D
Encoding: 408 58189 407
GlifName: uniE_34D_
Width: 0
VWidth: 0
GlyphClass: 2
LayerCount: 2
Fore
SplineSet
232 630 m 257
 232 718 l 257
 247 709 257 694 257 675 c 256
 257 656 247 639 232 630 c 257
EndSplineSet
EndChar

StartChar: uniE34E
Encoding: 409 58190 408
GlifName: uniE_34E_
Width: 0
VWidth: 0
GlyphClass: 2
LayerCount: 2
Fore
SplineSet
232 463 m 257
 232 551 l 257
 247 542 257 526 257 507 c 256
 257 488 247 472 232 463 c 257
EndSplineSet
EndChar

StartChar: uniE34F
Encoding: 410 58191 409
GlifName: uniE_34F_
Width: 0
VWidth: 0
GlyphClass: 2
LayerCount: 2
Fore
SplineSet
232 328 m 257
 232 416 l 257
 247 407 257 392 257 373 c 256
 257 354 247 337 232 328 c 257
EndSplineSet
EndChar

StartChar: uniE350
Encoding: 411 58192 410
GlifName: uniE_350
Width: 0
VWidth: 0
GlyphClass: 2
LayerCount: 2
Fore
SplineSet
177 215 m 257
 177 276 l 257
 188 269 195 259 195 246 c 256
 195 233 188 221 177 215 c 257
EndSplineSet
EndChar

StartChar: uniE351
Encoding: 412 58193 411
GlifName: uniE_351
Width: 0
VWidth: 0
GlyphClass: 2
LayerCount: 2
Fore
SplineSet
272 215 m 257
 272 276 l 257
 282 269 290 259 290 246 c 256
 290 233 282 221 272 215 c 257
EndSplineSet
EndChar

StartChar: uniE352
Encoding: 413 58194 412
GlifName: uniE_352
Width: 0
VWidth: 0
GlyphClass: 2
LayerCount: 2
Fore
SplineSet
177 112 m 257
 177 172 l 257
 188 166 195 155 195 143 c 256
 195 130 188 118 177 112 c 257
EndSplineSet
EndChar

StartChar: uniE353
Encoding: 414 58195 413
GlifName: uniE_353
Width: 0
VWidth: 0
GlyphClass: 2
LayerCount: 2
Fore
SplineSet
272 112 m 257
 272 172 l 257
 282 166 290 155 290 143 c 256
 290 130 282 118 272 112 c 257
EndSplineSet
EndChar

StartChar: uniE354
Encoding: 415 58196 414
GlifName: uniE_354
Width: 0
VWidth: 0
GlyphClass: 2
LayerCount: 2
Fore
SplineSet
3 887 m 256
 2 887 2 887 1 888 c 256
 0 889 -1 890 -1 891 c 256
 -1 892 0 893 1 894 c 258
 106 999 l 258
 107 1000 107 1000 108 1000 c 256
 109 1000 110 1000 111 999 c 256
 112 998 112 997 112 996 c 256
 112 995 112 994 111 993 c 258
 7 888 l 258
 6 887 4 887 3 887 c 256
EndSplineSet
EndChar

StartChar: uniE355
Encoding: 416 58197 415
GlifName: uniE_355
Width: 0
VWidth: 0
GlyphClass: 2
LayerCount: 2
Fore
SplineSet
154 887 m 256
 152 887 152 887 151 888 c 256
 150 889 149 890 149 891 c 256
 149 892 150 893 151 894 c 258
 257 999 l 258
 257 1000 258 1000 259 1000 c 256
 260 1000 261 1000 262 999 c 256
 263 998 263 997 263 996 c 256
 263 995 263 994 262 993 c 258
 157 888 l 258
 156 887 155 887 154 887 c 256
EndSplineSet
EndChar

StartChar: uniE356
Encoding: 417 58198 416
GlifName: uniE_356
Width: 0
VWidth: 0
GlyphClass: 2
LayerCount: 2
Fore
SplineSet
154 752 m 256
 152 752 152 753 151 754 c 256
 150 755 149 755 149 756 c 256
 149 757 150 759 151 760 c 258
 257 864 l 258
 257 865 258 865 259 865 c 256
 260 865 261 865 262 864 c 256
 263 863 263 862 263 861 c 256
 263 860 263 860 262 859 c 258
 157 754 l 258
 156 753 155 752 154 752 c 256
EndSplineSet
EndChar

StartChar: uniE357
Encoding: 418 58199 417
GlifName: uniE_357
Width: 0
VWidth: 0
GlyphClass: 2
LayerCount: 2
Fore
SplineSet
154 619 m 256
 152 619 152 618 151 619 c 256
 150 620 149 622 149 623 c 256
 149 624 150 624 151 625 c 258
 257 731 l 258
 257 732 258 732 259 732 c 256
 260 732 261 732 262 731 c 256
 263 730 263 729 263 728 c 256
 263 727 263 726 262 725 c 258
 157 619 l 258
 156 618 155 619 154 619 c 256
EndSplineSet
EndChar

StartChar: uniE358
Encoding: 419 58200 418
GlifName: uniE_358
Width: 0
VWidth: 0
GlyphClass: 2
LayerCount: 2
Fore
SplineSet
154 451 m 256
 152 451 152 451 151 452 c 256
 150 453 149 454 149 455 c 256
 149 456 150 457 151 458 c 258
 257 563 l 258
 257 564 258 564 259 564 c 256
 260 564 261 564 262 563 c 256
 263 562 263 561 263 560 c 256
 263 559 263 559 262 558 c 258
 157 452 l 258
 156 451 155 451 154 451 c 256
EndSplineSet
EndChar

StartChar: uniE359
Encoding: 420 58201 419
GlifName: uniE_359
Width: 0
VWidth: 0
GlyphClass: 2
LayerCount: 2
Fore
SplineSet
154 317 m 256
 152 317 152 317 151 318 c 256
 150 319 149 320 149 321 c 256
 149 322 150 322 151 323 c 258
 257 429 l 258
 257 430 258 430 259 430 c 256
 260 430 261 430 262 429 c 256
 263 428 263 427 263 426 c 256
 263 425 263 424 262 423 c 258
 157 318 l 258
 156 317 155 317 154 317 c 256
EndSplineSet
EndChar

StartChar: uniE35A
Encoding: 421 58202 420
GlifName: uniE_35A_
Width: 0
VWidth: 0
GlyphClass: 2
LayerCount: 2
Fore
SplineSet
119 201 m 256
 117 201 117 202 116 203 c 256
 115 204 114 204 114 205 c 256
 114 206 115 208 116 209 c 258
 195 288 l 258
 196 289 196 289 197 289 c 256
 198 289 199 289 200 288 c 256
 201 287 201 285 201 284 c 256
 201 283 201 283 200 282 c 258
 121 203 l 258
 120 202 120 201 119 201 c 256
EndSplineSet
EndChar

StartChar: uniE35B
Encoding: 422 58203 421
GlifName: uniE_35B_
Width: 0
VWidth: 0
GlyphClass: 2
LayerCount: 2
Fore
SplineSet
215 201 m 256
 213 201 213 202 212 203 c 256
 211 204 210 204 210 205 c 256
 210 206 211 208 212 209 c 258
 291 288 l 258
 292 289 293 289 294 289 c 256
 295 289 296 289 297 288 c 256
 298 287 298 285 298 284 c 256
 298 283 298 283 297 282 c 258
 218 203 l 258
 217 202 216 201 215 201 c 256
EndSplineSet
EndChar

StartChar: uniE35C
Encoding: 423 58204 422
GlifName: uniE_35C_
Width: 0
VWidth: 0
GlyphClass: 2
LayerCount: 2
Fore
SplineSet
119 101 m 256
 117 101 117 101 116 102 c 256
 115 103 114 104 114 105 c 256
 114 106 115 107 116 108 c 258
 195 187 l 258
 196 188 196 188 197 188 c 256
 198 188 199 188 200 187 c 256
 201 186 201 186 201 185 c 256
 201 184 201 182 200 181 c 258
 121 102 l 258
 120 101 120 101 119 101 c 256
EndSplineSet
EndChar

StartChar: uniE35D
Encoding: 424 58205 423
GlifName: uniE_35D_
Width: 0
VWidth: 0
GlyphClass: 2
LayerCount: 2
Fore
SplineSet
215 101 m 256
 213 101 213 101 212 102 c 256
 211 103 210 104 210 105 c 256
 210 106 211 107 212 108 c 258
 291 187 l 258
 292 188 293 188 294 188 c 256
 295 188 296 188 297 187 c 256
 298 186 298 186 298 185 c 256
 298 184 298 182 297 181 c 258
 218 102 l 258
 217 101 216 101 215 101 c 256
EndSplineSet
EndChar

StartChar: uniE3C0
Encoding: 425 58304 424
GlifName: uniE_3C_0
Width: 0
VWidth: 0
GlyphClass: 2
LayerCount: 2
Fore
SplineSet
196 524 m 256
 167 524 144 547 144 576 c 256
 144 605 167 628 196 628 c 256
 225 628 248 605 248 576 c 256
 248 547 225 524 196 524 c 256
196 620 m 256
 171 620 152 601 152 576 c 256
 152 551 171 532 196 532 c 256
 221 532 240 551 240 576 c 256
 240 601 221 620 196 620 c 256
196 648 m 256
 167 648 144 671 144 700 c 256
 144 729 167 752 196 752 c 256
 225 752 248 729 248 700 c 256
 248 671 225 648 196 648 c 256
196 744 m 256
 171 744 152 725 152 700 c 256
 152 675 171 656 196 656 c 256
 221 656 240 675 240 700 c 256
 240 725 221 744 196 744 c 256
196 372 m 256
 167 372 144 395 144 424 c 256
 144 453 167 476 196 476 c 256
 225 476 248 453 248 424 c 256
 248 395 225 372 196 372 c 256
196 468 m 256
 171 468 152 449 152 424 c 256
 152 399 171 380 196 380 c 256
 221 380 240 399 240 424 c 256
 240 449 221 468 196 468 c 256
196 248 m 256
 167 248 144 271 144 300 c 256
 144 329 167 352 196 352 c 256
 225 352 248 329 248 300 c 256
 248 271 225 248 196 248 c 256
196 344 m 256
 171 344 152 325 152 300 c 256
 152 275 171 256 196 256 c 256
 221 256 240 275 240 300 c 256
 240 325 221 344 196 344 c 256
301 496 m 258
 87 496 l 258
 85 496 84 499 84 501 c 256
 84 503 85 505 87 505 c 258
 301 505 l 258
 303 505 305 503 305 501 c 256
 305 499 303 496 301 496 c 258
EndSplineSet
EndChar

StartChar: uniE3C1
Encoding: 426 58305 425
GlifName: uniE_3C_1
Width: 0
VWidth: 0
GlyphClass: 2
LayerCount: 2
Fore
SplineSet
196 896 m 256
 167 896 144 919 144 948 c 256
 144 977 167 1000 196 1000 c 256
 225 1000 248 977 248 948 c 256
 248 919 225 896 196 896 c 256
196 992 m 256
 171 992 152 973 152 948 c 256
 152 923 171 904 196 904 c 256
 221 904 240 923 240 948 c 256
 240 973 221 992 196 992 c 256
EndSplineSet
EndChar

StartChar: uniE3C2
Encoding: 427 58306 426
GlifName: uniE_3C_2
Width: 0
VWidth: 0
GlyphClass: 2
LayerCount: 2
Fore
SplineSet
52 834 m 256
 23 834 0 857 0 886 c 256
 0 915 23 938 52 938 c 256
 81 938 104 915 104 886 c 256
 104 857 81 834 52 834 c 256
52 930 m 256
 27 930 8 911 8 886 c 256
 8 861 27 842 52 842 c 256
 77 842 96 861 96 886 c 256
 96 911 77 930 52 930 c 256
EndSplineSet
EndChar

StartChar: uniE3C3
Encoding: 428 58307 427
GlifName: uniE_3C_3
Width: 0
VWidth: 0
GlyphClass: 2
LayerCount: 2
Fore
SplineSet
196 772 m 256
 167 772 144 795 144 824 c 256
 144 853 167 876 196 876 c 256
 225 876 248 853 248 824 c 256
 248 795 225 772 196 772 c 256
196 868 m 256
 171 868 152 849 152 824 c 256
 152 799 171 780 196 780 c 256
 221 780 240 799 240 824 c 256
 240 849 221 868 196 868 c 256
EndSplineSet
EndChar

StartChar: uniE3C4
Encoding: 429 58308 428
GlifName: uniE_3C_4
Width: 0
VWidth: 0
GlyphClass: 2
LayerCount: 2
Fore
SplineSet
52 710 m 256
 23 710 0 733 0 762 c 256
 0 791 23 814 52 814 c 256
 81 814 104 791 104 762 c 256
 104 733 81 710 52 710 c 256
52 806 m 256
 27 806 8 787 8 762 c 256
 8 737 27 718 52 718 c 256
 77 718 96 737 96 762 c 256
 96 787 77 806 52 806 c 256
EndSplineSet
EndChar

StartChar: uniE3C5
Encoding: 430 58309 429
GlifName: uniE_3C_5
Width: 0
VWidth: 0
GlyphClass: 2
LayerCount: 2
Fore
SplineSet
52 310 m 256
 23 310 0 333 0 362 c 256
 0 391 23 414 52 414 c 256
 81 414 104 391 104 362 c 256
 104 333 81 310 52 310 c 256
52 406 m 256
 27 406 8 387 8 362 c 256
 8 337 27 318 52 318 c 256
 77 318 96 337 96 362 c 256
 96 387 77 406 52 406 c 256
EndSplineSet
EndChar

StartChar: uniE3C6
Encoding: 431 58310 430
GlifName: uniE_3C_6
Width: 0
VWidth: 0
GlyphClass: 2
LayerCount: 2
Fore
SplineSet
196 124 m 256
 167 124 144 147 144 176 c 256
 144 205 167 228 196 228 c 256
 225 228 248 205 248 176 c 256
 248 147 225 124 196 124 c 256
196 220 m 256
 171 220 152 201 152 176 c 256
 152 151 171 132 196 132 c 256
 221 132 240 151 240 176 c 256
 240 201 221 220 196 220 c 256
EndSplineSet
EndChar

StartChar: uniE3C7
Encoding: 432 58311 431
GlifName: uniE_3C_7
Width: 0
VWidth: 0
GlyphClass: 2
LayerCount: 2
Fore
SplineSet
196 0 m 256
 167 0 144 23 144 52 c 256
 144 81 167 104 196 104 c 256
 225 104 248 81 248 52 c 256
 248 23 225 0 196 0 c 256
196 96 m 256
 171 96 152 77 152 52 c 256
 152 27 171 8 196 8 c 256
 221 8 240 27 240 52 c 256
 240 77 221 96 196 96 c 256
EndSplineSet
EndChar

StartChar: uniE3CD
Encoding: 433 58317 432
GlifName: uniE_3C_D_
Width: 0
VWidth: 0
GlyphClass: 2
LayerCount: 2
Fore
SplineSet
196 896 m 256
 167 896 144 919 144 948 c 256
 144 977 167 1000 196 1000 c 256
 225 1000 248 977 248 948 c 256
 248 919 225 896 196 896 c 256
EndSplineSet
EndChar

StartChar: uniE3CE
Encoding: 434 58318 433
GlifName: uniE_3C_E_
Width: 0
VWidth: 0
GlyphClass: 2
LayerCount: 2
Fore
SplineSet
52 834 m 256
 23 834 0 857 0 886 c 256
 0 915 23 938 52 938 c 256
 81 938 104 915 104 886 c 256
 104 857 81 834 52 834 c 256
EndSplineSet
EndChar

StartChar: uniE3CF
Encoding: 435 58319 434
GlifName: uniE_3C_F_
Width: 0
VWidth: 0
GlyphClass: 2
LayerCount: 2
Fore
SplineSet
196 772 m 256
 167 772 144 795 144 824 c 256
 144 853 167 876 196 876 c 256
 225 876 248 853 248 824 c 256
 248 795 225 772 196 772 c 256
EndSplineSet
EndChar

StartChar: uniE3D0
Encoding: 436 58320 435
GlifName: uniE_3D_0
Width: 0
VWidth: 0
GlyphClass: 2
LayerCount: 2
Fore
SplineSet
52 710 m 256
 23 710 0 733 0 762 c 256
 0 791 23 814 52 814 c 256
 81 814 104 791 104 762 c 256
 104 733 81 710 52 710 c 256
EndSplineSet
EndChar

StartChar: uniE3D1
Encoding: 437 58321 436
GlifName: uniE_3D_1
Width: 0
VWidth: 0
GlyphClass: 2
LayerCount: 2
Fore
SplineSet
196 648 m 256
 167 648 144 671 144 700 c 256
 144 729 167 752 196 752 c 256
 225 752 248 729 248 700 c 256
 248 671 225 648 196 648 c 256
EndSplineSet
EndChar

StartChar: uniE3D2
Encoding: 438 58322 437
GlifName: uniE_3D_2
Width: 0
VWidth: 0
GlyphClass: 2
LayerCount: 2
Fore
SplineSet
196 524 m 256
 167 524 144 547 144 576 c 256
 144 605 167 628 196 628 c 256
 225 628 248 605 248 576 c 256
 248 547 225 524 196 524 c 256
EndSplineSet
EndChar

StartChar: uniE3D3
Encoding: 439 58323 438
GlifName: uniE_3D_3
Width: 0
VWidth: 0
GlyphClass: 2
LayerCount: 2
Fore
SplineSet
196 372 m 256
 167 372 144 395 144 424 c 256
 144 453 167 476 196 476 c 256
 225 476 248 453 248 424 c 256
 248 395 225 372 196 372 c 256
EndSplineSet
EndChar

StartChar: uniE3D4
Encoding: 440 58324 439
GlifName: uniE_3D_4
Width: 0
VWidth: 0
GlyphClass: 2
LayerCount: 2
Fore
SplineSet
52 310 m 256
 23 310 0 333 0 362 c 256
 0 391 23 414 52 414 c 256
 81 414 104 391 104 362 c 256
 104 333 81 310 52 310 c 256
EndSplineSet
EndChar

StartChar: uniE3D5
Encoding: 441 58325 440
GlifName: uniE_3D_5
Width: 0
VWidth: 0
GlyphClass: 2
LayerCount: 2
Fore
SplineSet
196 248 m 256
 167 248 144 271 144 300 c 256
 144 329 167 352 196 352 c 256
 225 352 248 329 248 300 c 256
 248 271 225 248 196 248 c 256
EndSplineSet
EndChar

StartChar: uniE3D6
Encoding: 442 58326 441
GlifName: uniE_3D_6
Width: 0
VWidth: 0
GlyphClass: 2
LayerCount: 2
Fore
SplineSet
196 124 m 256
 167 124 144 147 144 176 c 256
 144 205 167 228 196 228 c 256
 225 228 248 205 248 176 c 256
 248 147 225 124 196 124 c 256
EndSplineSet
EndChar

StartChar: uniE3D7
Encoding: 443 58327 442
GlifName: uniE_3D_7
Width: 0
VWidth: 0
GlyphClass: 2
LayerCount: 2
Fore
SplineSet
196 0 m 256
 167 0 144 23 144 52 c 256
 144 81 167 104 196 104 c 256
 225 104 248 81 248 52 c 256
 248 23 225 0 196 0 c 256
EndSplineSet
EndChar

StartChar: uniE3DD
Encoding: 444 58333 443
GlifName: uniE_3D_D_
Width: 0
VWidth: 0
GlyphClass: 2
LayerCount: 2
Fore
SplineSet
196 896 m 257
 167 896 144 919 144 948 c 256
 144 977 167 1000 196 1000 c 257
 196 896 l 257
EndSplineSet
EndChar

StartChar: uniE3DE
Encoding: 445 58334 444
GlifName: uniE_3D_E_
Width: 0
VWidth: 0
GlyphClass: 2
LayerCount: 2
Fore
SplineSet
52 834 m 257
 23 834 0 857 0 886 c 256
 0 915 23 938 52 938 c 257
 52 834 l 257
EndSplineSet
EndChar

StartChar: uniE3DF
Encoding: 446 58335 445
GlifName: uniE_3D_F_
Width: 0
VWidth: 0
GlyphClass: 2
LayerCount: 2
Fore
SplineSet
196 772 m 257
 167 772 144 795 144 824 c 256
 144 853 167 876 196 876 c 257
 196 772 l 257
EndSplineSet
EndChar

StartChar: uniE3E0
Encoding: 447 58336 446
GlifName: uniE_3E_0
Width: 0
VWidth: 0
GlyphClass: 2
LayerCount: 2
Fore
SplineSet
52 710 m 257
 23 710 0 733 0 762 c 256
 0 791 23 814 52 814 c 257
 52 710 l 257
EndSplineSet
EndChar

StartChar: uniE3E1
Encoding: 448 58337 447
GlifName: uniE_3E_1
Width: 0
VWidth: 0
GlyphClass: 2
LayerCount: 2
Fore
SplineSet
196 648 m 257
 167 648 144 671 144 700 c 256
 144 729 167 752 196 752 c 257
 196 648 l 257
EndSplineSet
EndChar

StartChar: uniE3E2
Encoding: 449 58338 448
GlifName: uniE_3E_2
Width: 0
VWidth: 0
GlyphClass: 2
LayerCount: 2
Fore
SplineSet
196 523 m 257
 167 523 144 547 144 576 c 256
 144 605 167 627 196 627 c 257
 196 523 l 257
EndSplineSet
EndChar

StartChar: uniE3E3
Encoding: 450 58339 449
GlifName: uniE_3E_3
Width: 0
VWidth: 0
GlyphClass: 2
LayerCount: 2
Fore
SplineSet
196 372 m 257
 167 372 144 395 144 424 c 256
 144 453 167 476 196 476 c 257
 196 372 l 257
EndSplineSet
EndChar

StartChar: uniE3E4
Encoding: 451 58340 450
GlifName: uniE_3E_4
Width: 0
VWidth: 0
GlyphClass: 2
LayerCount: 2
Fore
SplineSet
52 310 m 257
 23 310 0 333 0 362 c 256
 0 391 23 414 52 414 c 257
 52 310 l 257
EndSplineSet
EndChar

StartChar: uniE3E5
Encoding: 452 58341 451
GlifName: uniE_3E_5
Width: 0
VWidth: 0
GlyphClass: 2
LayerCount: 2
Fore
SplineSet
196 248 m 257
 167 248 144 271 144 300 c 256
 144 329 167 352 196 352 c 257
 196 248 l 257
EndSplineSet
EndChar

StartChar: uniE3E6
Encoding: 453 58342 452
GlifName: uniE_3E_6
Width: 0
VWidth: 0
GlyphClass: 2
LayerCount: 2
Fore
SplineSet
196 124 m 257
 167 124 144 147 144 176 c 256
 144 205 167 228 196 228 c 257
 196 124 l 257
EndSplineSet
EndChar

StartChar: uniE3E7
Encoding: 454 58343 453
GlifName: uniE_3E_7
Width: 0
VWidth: 0
GlyphClass: 2
LayerCount: 2
Fore
SplineSet
196 0 m 257
 167 0 144 23 144 52 c 256
 144 81 167 104 196 104 c 257
 196 0 l 257
EndSplineSet
EndChar

StartChar: uniE3ED
Encoding: 455 58349 454
GlifName: uniE_3E_D_
Width: 0
VWidth: 0
GlyphClass: 2
LayerCount: 2
Fore
SplineSet
196 896 m 257
 196 1000 l 257
 225 1000 248 977 248 948 c 256
 248 919 225 896 196 896 c 257
EndSplineSet
EndChar

StartChar: uniE3EE
Encoding: 456 58350 455
GlifName: uniE_3E_E_
Width: 0
VWidth: 0
GlyphClass: 2
LayerCount: 2
Fore
SplineSet
52 834 m 257
 52 938 l 257
 81 938 104 915 104 886 c 256
 104 857 81 834 52 834 c 257
EndSplineSet
EndChar

StartChar: uniE3EF
Encoding: 457 58351 456
GlifName: uniE_3E_F_
Width: 0
VWidth: 0
GlyphClass: 2
LayerCount: 2
Fore
SplineSet
196 772 m 257
 196 876 l 257
 225 876 248 853 248 824 c 256
 248 795 225 772 196 772 c 257
EndSplineSet
EndChar

StartChar: uniE3F0
Encoding: 458 58352 457
GlifName: uniE_3F_0
Width: 0
VWidth: 0
GlyphClass: 2
LayerCount: 2
Fore
SplineSet
52 710 m 257
 52 814 l 257
 81 814 104 791 104 762 c 256
 104 733 81 710 52 710 c 257
EndSplineSet
EndChar

StartChar: uniE3F1
Encoding: 459 58353 458
GlifName: uniE_3F_1
Width: 0
VWidth: 0
GlyphClass: 2
LayerCount: 2
Fore
SplineSet
196 648 m 257
 196 752 l 257
 225 752 248 729 248 700 c 256
 248 671 225 648 196 648 c 257
EndSplineSet
EndChar

StartChar: uniE3F2
Encoding: 460 58354 459
GlifName: uniE_3F_2
Width: 0
VWidth: 0
GlyphClass: 2
LayerCount: 2
Fore
SplineSet
196 524 m 257
 196 628 l 257
 225 628 248 605 248 576 c 256
 248 547 225 524 196 524 c 257
EndSplineSet
EndChar

StartChar: uniE3F3
Encoding: 461 58355 460
GlifName: uniE_3F_3
Width: 0
VWidth: 0
GlyphClass: 2
LayerCount: 2
Fore
SplineSet
196 372 m 257
 196 476 l 257
 225 476 248 453 248 424 c 256
 248 395 225 372 196 372 c 257
EndSplineSet
EndChar

StartChar: uniE3F4
Encoding: 462 58356 461
GlifName: uniE_3F_4
Width: 0
VWidth: 0
GlyphClass: 2
LayerCount: 2
Fore
SplineSet
52 310 m 257
 52 414 l 257
 81 414 104 391 104 362 c 256
 104 333 81 310 52 310 c 257
EndSplineSet
EndChar

StartChar: uniE3F5
Encoding: 463 58357 462
GlifName: uniE_3F_5
Width: 0
VWidth: 0
GlyphClass: 2
LayerCount: 2
Fore
SplineSet
196 248 m 257
 196 352 l 257
 225 352 248 329 248 300 c 256
 248 271 225 248 196 248 c 257
EndSplineSet
EndChar

StartChar: uniE3F6
Encoding: 464 58358 463
GlifName: uniE_3F_6
Width: 0
VWidth: 0
GlyphClass: 2
LayerCount: 2
Fore
SplineSet
196 124 m 257
 196 228 l 257
 225 228 248 205 248 176 c 256
 248 147 225 124 196 124 c 257
EndSplineSet
EndChar

StartChar: uniE3F7
Encoding: 465 58359 464
GlifName: uniE_3F_7
Width: 0
VWidth: 0
GlyphClass: 2
LayerCount: 2
Fore
SplineSet
196 0 m 257
 196 104 l 257
 225 104 248 81 248 52 c 256
 248 23 225 0 196 0 c 257
EndSplineSet
EndChar

StartChar: uniE3FD
Encoding: 466 58365 465
GlifName: uniE_3F_D_
Width: 0
VWidth: 0
GlyphClass: 2
LayerCount: 2
Fore
SplineSet
170 903 m 257
 154 912 144 929 144 948 c 256
 144 967 154 984 170 993 c 257
 170 903 l 257
EndSplineSet
EndChar

StartChar: uniE3FE
Encoding: 467 58366 466
GlifName: uniE_3F_E_
Width: 0
VWidth: 0
GlyphClass: 2
LayerCount: 2
Fore
SplineSet
26 841 m 257
 10 850 0 867 0 886 c 256
 0 905 10 922 26 931 c 257
 26 841 l 257
EndSplineSet
EndChar

StartChar: uniE3FF
Encoding: 468 58367 467
GlifName: uniE_3F_F_
Width: 0
VWidth: 0
GlyphClass: 2
LayerCount: 2
Fore
SplineSet
170 779 m 257
 154 788 144 805 144 824 c 256
 144 843 154 860 170 869 c 257
 170 779 l 257
EndSplineSet
EndChar

StartChar: uniE400
Encoding: 469 58368 468
GlifName: uniE_400
Width: 0
VWidth: 0
GlyphClass: 2
LayerCount: 2
Fore
SplineSet
26 717 m 257
 10 726 0 743 0 762 c 256
 0 781 10 798 26 807 c 257
 26 717 l 257
EndSplineSet
EndChar

StartChar: uniE401
Encoding: 470 58369 469
GlifName: uniE_401
Width: 0
VWidth: 0
GlyphClass: 2
LayerCount: 2
Fore
SplineSet
170 655 m 257
 154 664 144 681 144 700 c 256
 144 719 154 736 170 745 c 257
 170 655 l 257
EndSplineSet
EndChar

StartChar: uniE402
Encoding: 471 58370 470
GlifName: uniE_402
Width: 0
VWidth: 0
GlyphClass: 2
LayerCount: 2
Fore
SplineSet
170 531 m 257
 154 540 144 557 144 576 c 256
 144 595 154 612 170 621 c 257
 170 531 l 257
EndSplineSet
EndChar

StartChar: uniE403
Encoding: 472 58371 471
GlifName: uniE_403
Width: 0
VWidth: 0
GlyphClass: 2
LayerCount: 2
Fore
SplineSet
170 379 m 257
 154 388 144 405 144 424 c 256
 144 443 154 460 170 469 c 257
 170 379 l 257
EndSplineSet
EndChar

StartChar: uniE404
Encoding: 473 58372 472
GlifName: uniE_404
Width: 0
VWidth: 0
GlyphClass: 2
LayerCount: 2
Fore
SplineSet
26 317 m 257
 10 326 0 343 0 362 c 256
 0 381 10 398 26 407 c 257
 26 317 l 257
EndSplineSet
EndChar

StartChar: uniE405
Encoding: 474 58373 473
GlifName: uniE_405
Width: 0
VWidth: 0
GlyphClass: 2
LayerCount: 2
Fore
SplineSet
170 255 m 257
 154 264 144 281 144 300 c 256
 144 319 154 336 170 345 c 257
 170 255 l 257
EndSplineSet
EndChar

StartChar: uniE406
Encoding: 475 58374 474
GlifName: uniE_406
Width: 0
VWidth: 0
GlyphClass: 2
LayerCount: 2
Fore
SplineSet
170 131 m 257
 154 140 144 157 144 176 c 256
 144 195 154 212 170 221 c 257
 170 131 l 257
EndSplineSet
EndChar

StartChar: uniE407
Encoding: 476 58375 475
GlifName: uniE_407
Width: 0
VWidth: 0
GlyphClass: 2
LayerCount: 2
Fore
SplineSet
170 7 m 257
 154 16 144 33 144 52 c 256
 144 71 154 88 170 97 c 257
 170 7 l 257
EndSplineSet
EndChar

StartChar: uniE40D
Encoding: 477 58381 476
GlifName: uniE_40D_
Width: 0
VWidth: 0
GlyphClass: 2
LayerCount: 2
Fore
SplineSet
222 993 m 257
 238 984 248 967 248 948 c 256
 248 929 238 912 222 903 c 257
 222 993 l 257
EndSplineSet
EndChar

StartChar: uniE40E
Encoding: 478 58382 477
GlifName: uniE_40E_
Width: 0
VWidth: 0
GlyphClass: 2
LayerCount: 2
Fore
SplineSet
78 931 m 257
 94 922 104 905 104 886 c 256
 104 867 94 850 78 841 c 257
 78 931 l 257
EndSplineSet
EndChar

StartChar: uniE40F
Encoding: 479 58383 478
GlifName: uniE_40F_
Width: 0
VWidth: 0
GlyphClass: 2
LayerCount: 2
Fore
SplineSet
212 869 m 257
 228 860 238 843 238 824 c 256
 238 805 228 788 212 779 c 257
 212 869 l 257
EndSplineSet
EndChar

